<svg width="38" height="38" viewBox="0 0 38 38" fill="none" xmlns="http://www.w3.org/2000/svg">
<mask id="mask0_4146_697" style="mask-type:alpha" maskUnits="userSpaceOnUse" x="0" y="0" width="38" height="38">
<rect width="38" height="38" fill="#D9D9D9"/>
</mask>
<g mask="url(#mask0_4146_697)">
<path d="M32.9761 20.1879H29.6265C29.2895 20.1879 29.0074 20.0742 28.7802 19.8467C28.5528 19.6195 28.439 19.3374 28.439 19.0004C28.439 18.6634 28.5528 18.3813 28.7802 18.1541C29.0074 17.9267 29.2895 17.8129 29.6265 17.8129H32.9761C33.3131 17.8129 33.5952 17.9267 33.8224 18.1541C34.0498 18.3813 34.1636 18.6634 34.1636 19.0004C34.1636 19.3374 34.0498 19.6195 33.8224 19.8467C33.5952 20.0742 33.3131 20.1879 32.9761 20.1879ZM26.3898 26.4635C26.5927 26.1853 26.8521 26.0249 27.168 25.9821C27.4836 25.9396 27.7805 26.0199 28.0586 26.2228L30.7289 28.2293C31.0071 28.4325 31.1674 28.6919 31.2099 29.0075C31.2526 29.3231 31.1724 29.62 30.9692 29.8981C30.7663 30.176 30.507 30.3363 30.1914 30.379C29.8758 30.4218 29.5789 30.3416 29.3008 30.1384L26.6305 28.1319C26.3523 27.929 26.192 27.6697 26.1495 27.3541C26.1068 27.0385 26.1869 26.7416 26.3898 26.4635ZM30.668 9.71061L27.9977 11.7171C27.7195 11.92 27.4227 12.0002 27.107 11.9578C26.7914 11.915 26.532 11.7546 26.3288 11.4764C26.1259 11.1985 26.0458 10.9017 26.0886 10.5858C26.1311 10.2702 26.2914 10.0109 26.5695 9.80798L29.2398 7.8015C29.5179 7.59857 29.8148 7.51835 30.1304 7.56084C30.446 7.60359 30.7054 7.7639 30.9086 8.04178C31.1116 8.31991 31.1917 8.61679 31.1489 8.9324C31.1064 9.24828 30.9461 9.50768 30.668 9.71061ZM8.31248 23.0807H6.69867C5.90911 23.0807 5.23474 22.8009 4.67556 22.2415C4.11612 21.6823 3.8364 21.008 3.8364 20.2184V17.7824C3.8364 16.9929 4.11612 16.3185 4.67556 15.7593C5.23474 15.1999 5.90911 14.9202 6.69867 14.9202H12.819L17.7424 11.976C18.2195 11.6896 18.7006 11.6871 19.1856 11.9684C19.6709 12.2495 19.9136 12.663 19.9136 13.209V24.7919C19.9136 25.3378 19.6709 25.7514 19.1856 26.0324C18.7006 26.3137 18.2195 26.3112 17.7424 26.0249L12.819 23.0807H10.6875V28.0741C10.6875 28.4111 10.5737 28.6932 10.3463 28.9204C10.1191 29.1479 9.83697 29.2616 9.49998 29.2616C9.16299 29.2616 8.8809 29.1479 8.65369 28.9204C8.42622 28.6932 8.31248 28.4111 8.31248 28.0741V23.0807ZM17.5386 23.0929V14.9079L13.4765 17.2952H6.69867C6.57701 17.2952 6.46539 17.346 6.36379 17.4476C6.26219 17.5492 6.2114 17.6608 6.2114 17.7824V20.2184C6.2114 20.3401 6.26219 20.4517 6.36379 20.5533C6.46539 20.6549 6.57701 20.7057 6.69867 20.7057H13.4765L17.5386 23.0929ZM22.1057 23.9392V14.0616C22.7269 14.624 23.2272 15.3324 23.6067 16.1868C23.9864 17.0416 24.1763 17.9794 24.1763 19.0004C24.1763 20.0214 23.9864 20.9593 23.6067 21.814C23.2272 22.6685 22.7269 23.3769 22.1057 23.9392Z" fill="#B0C2C8"/>
</g>
</svg>
