<svg width="38" height="38" viewBox="0 0 38 38" fill="none" xmlns="http://www.w3.org/2000/svg">
<mask id="mask0_4146_710" style="mask-type:alpha" maskUnits="userSpaceOnUse" x="0" y="0" width="38" height="38">
<rect width="38" height="38" fill="#D9D9D9"/>
</mask>
<g mask="url(#mask0_4146_710)">
<path d="M16.5457 19.5968L18.7105 21.6354C18.9705 21.8896 19.3019 22.0167 19.7049 22.0167C20.1078 22.0167 20.4443 21.8896 20.7143 21.6354L25.7291 16.9272V18.7108C25.7291 19.0184 25.8428 19.2755 26.0703 19.482C26.2975 19.6885 26.5796 19.7918 26.9166 19.7918C27.2433 19.7918 27.5229 19.6847 27.7553 19.4704C27.9878 19.2565 28.1041 18.9908 28.1041 18.6735V14.4297C28.1041 14.0553 27.965 13.7371 27.6869 13.4751C27.4087 13.2132 27.0708 13.0823 26.6731 13.0823H22.127C21.8003 13.0823 21.5273 13.1917 21.308 13.4106C21.0887 13.6296 20.9791 13.8929 20.9791 14.2005C20.9791 14.5178 21.0928 14.7835 21.3203 14.9974C21.5475 15.2117 21.8296 15.3188 22.1666 15.3188H24.021L19.7124 19.4276L17.5476 17.389C17.2776 17.1194 16.9412 16.9846 16.5382 16.9846C16.1353 16.9846 15.8038 17.1194 15.5439 17.389L10.8821 21.7644C10.6468 21.9805 10.5291 22.2448 10.5291 22.5572C10.5291 22.8698 10.6468 23.1294 10.8821 23.3359C11.1117 23.567 11.3924 23.6825 11.7241 23.6825C12.0561 23.6825 12.3317 23.567 12.551 23.3359L16.5457 19.5968ZM8.40384 31.347C7.60399 31.347 6.92698 31.0861 6.37282 30.5642C5.81865 30.0424 5.54156 29.4049 5.54156 28.6517V8.69536C5.54156 7.94215 5.81865 7.30463 6.37282 6.78278C6.92698 6.26093 7.60399 6 8.40384 6H29.596C30.3958 6 31.0728 6.26093 31.627 6.78278C32.1812 7.30463 32.4582 7.94215 32.4582 8.69536V28.6517C32.4582 29.4049 32.1812 30.0424 31.627 30.5642C31.0728 31.0861 30.3958 31.347 29.596 31.347H8.40384ZM8.40384 29.1105H29.596C29.7179 29.1105 29.8295 29.0627 29.9308 28.967C30.0324 28.8716 30.0832 28.7665 30.0832 28.6517V8.69536C30.0832 8.58055 30.0324 8.47543 29.9308 8.38001C29.8295 8.28434 29.7179 8.2365 29.596 8.2365H8.40384C8.28192 8.2365 8.17029 8.28434 8.06896 8.38001C7.96736 8.47543 7.91657 8.58055 7.91657 8.69536V28.6517C7.91657 28.7665 7.96736 28.8716 8.06896 28.967C8.17029 29.0627 8.28192 29.1105 8.40384 29.1105Z" fill="#B0C2C8"/>
</g>
</svg>
