<svg width="38" height="38" viewBox="0 0 38 38" fill="none" xmlns="http://www.w3.org/2000/svg">
<path d="M18.1184 21.6184C19.2228 21.6184 20.1587 21.2348 20.9261 20.4677C21.6932 19.7003 22.0768 18.7644 22.0768 17.6601C22.0768 16.556 21.6932 15.6202 20.9261 14.8528C20.1587 14.0854 19.2228 13.7017 18.1184 13.7017C17.0143 13.7017 16.0786 14.0854 15.3112 14.8528C14.5438 15.6202 14.1601 16.556 14.1601 17.6601C14.1601 18.7644 14.5438 19.7003 15.3112 20.4677C16.0786 21.2348 17.0143 21.6184 18.1184 21.6184ZM18.1184 23.9934C16.3565 23.9934 14.8605 23.3784 13.6305 22.1484C12.4002 20.9182 11.7851 19.4221 11.7851 17.6601C11.7851 15.8981 12.4002 14.4021 13.6305 13.1721C14.8605 11.9419 16.3565 11.3267 18.1184 11.3267C19.8804 11.3267 21.3765 11.9419 22.6068 13.1721C23.8368 14.4021 24.4518 15.8981 24.4518 17.6601C24.4518 18.2976 24.3558 18.9158 24.164 19.5145C23.9722 20.1133 23.6895 20.6766 23.3161 21.2044L26.7844 24.6572C27.0198 24.8929 27.1359 25.1685 27.1328 25.4841C27.1299 25.7997 27.0056 26.0804 26.7599 26.326C26.5142 26.5554 26.2361 26.6741 25.9255 26.6823C25.6151 26.6902 25.3371 26.5715 25.0914 26.326L21.6627 22.8823C21.135 23.2557 20.5717 23.5342 19.9729 23.7179C19.3742 23.9016 18.756 23.9934 18.1184 23.9934ZM8.86227 32.4583C8.06242 32.4583 7.38542 32.1812 6.83125 31.627C6.27708 31.0729 6 30.3959 6 29.596V24.9375C6 24.6005 6.11374 24.3184 6.34121 24.0912C6.56842 23.8637 6.85051 23.75 7.1875 23.75C7.52449 23.75 7.80658 23.8637 8.03379 24.0912C8.26126 24.3184 8.375 24.6005 8.375 24.9375V29.596C8.375 29.7179 8.4258 29.8296 8.5274 29.9309C8.62873 30.0325 8.74035 30.0833 8.86227 30.0833H13.5208C13.8578 30.0833 14.1399 30.197 14.3671 30.4245C14.5946 30.6517 14.7083 30.9338 14.7083 31.2708C14.7083 31.6078 14.5946 31.8899 14.3671 32.1171C14.1399 32.3446 13.8578 32.4583 13.5208 32.4583H8.86227ZM30.0544 32.4583H25.3958C25.0588 32.4583 24.7768 32.3446 24.5495 32.1171C24.3221 31.8899 24.2083 31.6078 24.2083 31.2708C24.2083 30.9338 24.3221 30.6517 24.5495 30.4245C24.7768 30.197 25.0588 30.0833 25.3958 30.0833H30.0544C30.1763 30.0833 30.2879 30.0325 30.3893 29.9309C30.4909 29.8296 30.5417 29.7179 30.5417 29.596V24.9375C30.5417 24.6005 30.6554 24.3184 30.8829 24.0912C31.1101 23.8637 31.3922 23.75 31.7292 23.75C32.0662 23.75 32.3483 23.8637 32.5755 24.0912C32.8029 24.3184 32.9167 24.6005 32.9167 24.9375V29.596C32.9167 30.3959 32.6396 31.0729 32.0854 31.627C31.5313 32.1812 30.8542 32.4583 30.0544 32.4583ZM6 13.0625V8.4039C6 7.60405 6.27708 6.92704 6.83125 6.37288C7.38542 5.81871 8.06242 5.54163 8.86227 5.54163H13.5208C13.8578 5.54163 14.1399 5.65536 14.3671 5.88283C14.5946 6.11004 14.7083 6.39214 14.7083 6.72913C14.7083 7.06611 14.5946 7.34821 14.3671 7.57542C14.1399 7.80289 13.8578 7.91663 13.5208 7.91663H8.86227C8.74035 7.91663 8.62873 7.96742 8.5274 8.06902C8.4258 8.17035 8.375 8.28198 8.375 8.4039V13.0625C8.375 13.3994 8.26126 13.6815 8.03379 13.9088C7.80658 14.1362 7.52449 14.25 7.1875 14.25C6.85051 14.25 6.56842 14.1362 6.34121 13.9088C6.11374 13.6815 6 13.3994 6 13.0625ZM30.5417 13.0625V8.4039C30.5417 8.28198 30.4909 8.17035 30.3893 8.06902C30.2879 7.96742 30.1763 7.91663 30.0544 7.91663H25.3958C25.0588 7.91663 24.7768 7.80289 24.5495 7.57542C24.3221 7.34821 24.2083 7.06611 24.2083 6.72913C24.2083 6.39214 24.3221 6.11004 24.5495 5.88283C24.7768 5.65536 25.0588 5.54163 25.3958 5.54163H30.0544C30.8542 5.54163 31.5313 5.81871 32.0854 6.37288C32.6396 6.92704 32.9167 7.60405 32.9167 8.4039V13.0625C32.9167 13.3994 32.8029 13.6815 32.5755 13.9088C32.3483 14.1362 32.0662 14.25 31.7292 14.25C31.3922 14.25 31.1101 14.1362 30.8829 13.9088C30.6554 13.6815 30.5417 13.3994 30.5417 13.0625Z" fill="#B0C2C8"/>
</svg>
