<svg width="51" height="50" viewBox="0 0 51 50" fill="none" xmlns="http://www.w3.org/2000/svg">
<rect x="0.62793" y="0.367676" width="49.6277" height="49.6277" rx="24.8139" fill="#336272"/>
<g clip-path="url(#clip0_4184_4309)">
<path d="M21.812 17.458H29.1792C29.3429 17.5399 29.5885 17.5399 29.7522 17.6217C30.4706 17.7382 31.1423 18.0526 31.6918 18.5298C32.2413 19.007 32.6468 19.628 32.8628 20.323C32.9837 20.7235 33.0659 21.1347 33.1084 21.5509V28.7543C32.9914 29.6673 32.6543 30.5381 32.1261 31.2919C31.673 31.8169 31.1049 32.2303 30.4661 32.5001C29.8272 32.7698 29.1347 32.8886 28.4425 32.8472H22.3032C21.2076 32.9004 20.1303 32.551 19.2745 31.8649C18.754 31.4153 18.3433 30.8525 18.0737 30.2197C17.8042 29.587 17.6829 28.9009 17.7192 28.2141V22.4841C17.7056 22.0731 17.7331 21.6618 17.801 21.2562C17.8837 20.417 18.2287 19.6252 18.7872 18.9933C19.3456 18.3614 20.0889 17.9216 20.9116 17.7363L21.812 17.458ZM19.2745 25.2345V28.4269C19.2396 28.8334 19.2939 29.2427 19.4338 29.626C19.5737 30.0093 19.7956 30.3574 20.0842 30.6459C20.3727 30.9345 20.7208 31.1564 21.1041 31.2963C21.4874 31.4362 21.8967 31.4905 22.3032 31.4556C24.4315 31.5375 26.5598 31.5375 28.6881 31.4556C30.5708 31.4556 31.6349 30.3096 31.7168 28.4269C31.7987 26.2986 31.7987 24.1703 31.7168 22.042C31.738 21.6387 31.6742 21.2354 31.5295 20.8584C31.3848 20.4813 31.1624 20.1388 30.8768 19.8533C30.5913 19.5677 30.2488 19.3453 29.8717 19.2006C29.4947 19.0559 29.0914 18.9921 28.6881 19.0133C26.5598 18.9314 24.4315 18.9314 22.3032 19.0133C21.8967 18.9784 21.4874 19.0328 21.1041 19.1727C20.7208 19.3125 20.3727 19.5345 20.0842 19.823C19.7956 20.1115 19.5737 20.4596 19.4338 20.8429C19.2939 21.2262 19.2396 21.6355 19.2745 22.042V25.2345Z" fill="#E6EBED"/>
<path d="M21.5176 25.2674C21.5197 24.2042 21.943 23.1853 22.6948 22.4335C23.4465 21.6818 24.4655 21.2585 25.5286 21.2563C26.5858 21.2773 27.5939 21.7066 28.3416 22.4543C29.0894 23.202 29.5187 24.2101 29.5396 25.2674C29.5374 26.3305 29.1142 27.3494 28.3624 28.1012C27.6107 28.8529 26.5917 29.2762 25.5286 29.2784C24.4714 29.2574 23.4633 28.8281 22.7156 28.0804C21.9678 27.3327 21.5385 26.3246 21.5176 25.2674ZM25.5286 22.7298C25.0314 22.7217 24.5431 22.8623 24.1264 23.1335C23.7096 23.4046 23.3833 23.7941 23.1892 24.252C22.9952 24.7098 22.9423 25.2151 23.0374 25.7032C23.1324 26.1913 23.371 26.6399 23.7226 26.9915C24.0742 27.3431 24.5228 27.5817 25.0109 27.6767C25.499 27.7718 26.0043 27.7189 26.4621 27.5249C26.92 27.3308 27.3095 27.0045 27.5807 26.5878C27.8518 26.171 27.9924 25.6827 27.9843 25.1855C27.9843 24.5342 27.7256 23.9096 27.2651 23.449C26.8045 22.9885 26.1799 22.7298 25.5286 22.7298Z" fill="#E6EBED"/>
<path d="M28.6393 21.0922C28.6347 20.962 28.657 20.8322 28.7047 20.711C28.7525 20.5898 28.8246 20.4796 28.9168 20.3875C29.0089 20.2953 29.1191 20.2232 29.2403 20.1754C29.3615 20.1277 29.4913 20.1054 29.6215 20.11C29.8764 20.1272 30.1163 20.2362 30.297 20.4168C30.4776 20.5974 30.5866 20.8374 30.6038 21.0922C30.6038 21.3528 30.5003 21.6026 30.3161 21.7868C30.1319 21.971 29.8821 22.0745 29.6215 22.0745C29.361 22.0745 29.1112 21.971 28.927 21.7868C28.7427 21.6026 28.6393 21.3528 28.6393 21.0922Z" fill="#E6EBED"/>
</g>
<defs>
<clipPath id="clip0_4184_4309">
<rect width="23.6323" height="23.6323" fill="white" transform="translate(13.626 13.3652)"/>
</clipPath>
</defs>
</svg>
