<svg width="50" height="50" viewBox="0 0 50 50" fill="none" xmlns="http://www.w3.org/2000/svg">
<rect y="0.367676" width="49.6277" height="49.6277" rx="24.8139" fill="#336272"/>
<path d="M17.9376 22.7987H20.9935V32.2712H17.9376V22.7987ZM19.4961 18.0918C19.8462 18.0918 20.1885 18.1914 20.4797 18.3781C20.771 18.5648 20.9981 18.8301 21.1326 19.1407C21.267 19.4512 21.3027 19.7931 21.2352 20.1231C21.1676 20.4531 20.9998 20.7565 20.7529 20.995C20.5061 21.2335 20.1912 21.3965 19.8481 21.4633C19.5049 21.5301 19.1489 21.4977 18.8248 21.3704C18.5008 21.243 18.2233 21.0263 18.0273 20.7476C17.8313 20.4688 17.7257 20.1406 17.7237 19.8043C17.7223 19.5799 17.7672 19.3574 17.8556 19.1497C17.9441 18.942 18.0745 18.7531 18.2392 18.594C18.4039 18.4348 18.5997 18.3085 18.8154 18.2223C19.0312 18.1362 19.2625 18.0918 19.4961 18.0918Z" fill="#E6EBED"/>
<path d="M22.4603 23.0488H25.379V24.3039C25.6711 23.8345 26.0932 23.4486 26.6001 23.1873C27.1071 22.9261 27.6798 22.7994 28.2573 22.8207C31.287 22.8207 31.9031 24.7222 31.9031 27.2037V32.2522H28.8733V27.8027C28.8733 26.7378 28.8733 25.3592 27.2978 25.3592C25.7224 25.3592 25.48 26.5191 25.48 27.7171V32.2713H22.4502L22.4603 23.0488Z" fill="#E6EBED"/>
</svg>
