<svg width="50" height="50" viewBox="0 0 50 50" fill="none" xmlns="http://www.w3.org/2000/svg">
<rect x="0.255859" y="0.367676" width="49.6277" height="49.6277" rx="24.8139" fill="#336272"/>
<path d="M34.8179 23.1521C34.8617 21.8837 34.5843 20.6247 34.0115 19.4921C33.6228 19.0274 33.0833 18.7137 32.4872 18.6059C30.0213 18.3821 27.5453 18.2904 25.0696 18.3312C22.603 18.2886 20.1358 18.3773 17.6786 18.597C17.1928 18.6854 16.7432 18.9133 16.3847 19.2528C15.5872 19.9884 15.4985 21.2468 15.4099 22.3102C15.2813 24.2223 15.2813 26.1408 15.4099 28.0529C15.4355 28.6514 15.5247 29.2456 15.6758 29.8253C15.7826 30.2729 15.9988 30.687 16.305 31.0305C16.6659 31.3881 17.126 31.6289 17.6254 31.7218C19.536 31.9576 21.4611 32.0554 23.3858 32.0142C26.4875 32.0585 29.2082 32.0142 32.4251 31.7661C32.9369 31.6789 33.4099 31.4378 33.781 31.0748C34.0291 30.8266 34.2145 30.5228 34.3216 30.1886C34.6386 29.2161 34.7942 28.1983 34.7825 27.1755C34.8179 26.6792 34.8179 23.6839 34.8179 23.1521ZM23.0668 27.7073V22.2216L28.3131 24.9777C26.842 25.793 24.9012 26.7147 23.0668 27.7073Z" fill="#E6EBED"/>
</svg>
