<svg width="24" height="25" viewBox="0 0 24 25" fill="none" xmlns="http://www.w3.org/2000/svg">
<rect y="0.5" width="24" height="24" rx="12" fill="#E6EBED"/>
<path d="M11.8836 13.8748L8.98359 16.7748C8.80026 16.9581 8.56693 17.0498 8.28359 17.0498C8.00026 17.0498 7.76693 16.9581 7.58359 16.7748C7.40026 16.5915 7.30859 16.3581 7.30859 16.0748C7.30859 15.7915 7.40026 15.5581 7.58359 15.3748L10.4836 12.4748L7.58359 9.5998C7.40026 9.41647 7.30859 9.18314 7.30859 8.8998C7.30859 8.61647 7.40026 8.38314 7.58359 8.1998C7.76693 8.01647 8.00026 7.9248 8.28359 7.9248C8.56693 7.9248 8.80026 8.01647 8.98359 8.1998L11.8836 11.0998L14.7586 8.1998C14.9419 8.01647 15.1753 7.9248 15.4586 7.9248C15.7419 7.9248 15.9753 8.01647 16.1586 8.1998C16.3586 8.3998 16.4586 8.6373 16.4586 8.9123C16.4586 9.1873 16.3586 9.41647 16.1586 9.5998L13.2586 12.4748L16.1586 15.3748C16.3419 15.5581 16.4336 15.7915 16.4336 16.0748C16.4336 16.3581 16.3419 16.5915 16.1586 16.7748C15.9586 16.9748 15.7211 17.0748 15.4461 17.0748C15.1711 17.0748 14.9419 16.9748 14.7586 16.7748L11.8836 13.8748Z" fill="#003B4F"/>
</svg>
