<svg width="24" height="25" viewBox="0 0 24 25" fill="none" xmlns="http://www.w3.org/2000/svg">
<rect y="0.588867" width="24" height="24" rx="12" fill="#E6EBED"/>
<path d="M10.9105 13.561L6.80932 13.561C6.55005 13.561 6.32024 13.4608 6.11989 13.2604C5.91954 13.0601 5.81937 12.8303 5.81937 12.571C5.81937 12.3117 5.91954 12.0819 6.11989 11.8816C6.32024 11.6812 6.55005 11.5811 6.80932 11.5811L10.9105 11.5811L10.8929 7.49751C10.8929 7.23824 10.993 7.00843 11.1934 6.80808C11.3937 6.60773 11.6235 6.50756 11.8828 6.50756C12.1421 6.50756 12.3719 6.60773 12.5722 6.80808C12.7726 7.00843 12.8728 7.23824 12.8728 7.49751L12.8728 11.5987L16.9563 11.5811C17.2156 11.5811 17.4454 11.6812 17.6457 11.8816C17.8461 12.0819 17.9463 12.3117 17.9463 12.571C17.9463 12.8538 17.849 13.0925 17.6546 13.2869C17.4601 13.4814 17.2274 13.5727 16.9563 13.561L12.8728 13.5433L12.8728 17.6445C12.8728 17.9038 12.7726 18.1336 12.5722 18.3339C12.3719 18.5343 12.1421 18.6344 11.8828 18.6344C11.6 18.6344 11.3613 18.5372 11.1669 18.3428C10.9724 18.1483 10.8811 17.9156 10.8929 17.6445L10.9105 13.561Z" fill="#003B4F"/>
</svg>
