<svg width="55" height="56" viewBox="0 0 55 56" fill="none" xmlns="http://www.w3.org/2000/svg">
<path d="M16 1H39C47.5604 1 54.5 7.93959 54.5 16.5V39.5C54.5 48.0604 47.5604 55 39 55H16C7.43959 55 0.5 48.0604 0.5 39.5V16.5C0.5 7.93959 7.43959 1 16 1Z" fill="url(#paint0_linear_4044_1413)"/>
<path d="M16 1H39C47.5604 1 54.5 7.93959 54.5 16.5V39.5C54.5 48.0604 47.5604 55 39 55H16C7.43959 55 0.5 48.0604 0.5 39.5V16.5C0.5 7.93959 7.43959 1 16 1Z" stroke="#FDFDFD"/>
<mask id="mask0_4044_1413" style="mask-type:alpha" maskUnits="userSpaceOnUse" x="10" y="10" width="35" height="36">
<rect x="10" y="10.5" width="35" height="35" fill="#D9D9D9"/>
</mask>
<g mask="url(#mask0_4044_1413)">
<path d="M18.7499 28.0729C18.7499 28.4618 18.7742 28.8446 18.8228 29.2214C18.8714 29.5981 18.9565 29.9688 19.078 30.3333C19.1996 30.7465 19.1874 31.1415 19.0416 31.5182C18.8958 31.895 18.6405 32.1684 18.276 32.3385C17.8871 32.533 17.5043 32.5512 17.1275 32.3932C16.7508 32.2352 16.5017 31.9497 16.3801 31.5365C16.1857 30.9774 16.0459 30.4063 15.9609 29.8229C15.8758 29.2396 15.8333 28.6563 15.8333 28.0729C15.8333 24.816 16.9635 22.0451 19.2239 19.7604C21.4843 17.4757 24.243 16.3333 27.4999 16.3333H27.7551L26.4426 15.0208C26.1753 14.7535 26.0416 14.4132 26.0416 14C26.0416 13.5868 26.1753 13.2465 26.4426 12.9792C26.71 12.7118 27.0503 12.5781 27.4635 12.5781C27.8767 12.5781 28.2169 12.7118 28.4843 12.9792L32.276 16.7708C32.5676 17.0625 32.7135 17.4028 32.7135 17.7917C32.7135 18.1806 32.5676 18.5208 32.276 18.8125L28.4843 22.6042C28.2169 22.8715 27.8767 23.0052 27.4635 23.0052C27.0503 23.0052 26.71 22.8715 26.4426 22.6042C26.1753 22.3368 26.0416 21.9965 26.0416 21.5833C26.0416 21.1701 26.1753 20.8299 26.4426 20.5625L27.7551 19.25H27.4999C25.0694 19.25 23.0034 20.1068 21.302 21.8203C19.6006 23.5339 18.7499 25.6181 18.7499 28.0729ZM36.2499 27.9271C36.2499 27.5382 36.2256 27.1554 36.177 26.7786C36.1284 26.4019 36.0433 26.0313 35.9218 25.6667C35.8003 25.2535 35.8124 24.8585 35.9583 24.4818C36.1041 24.105 36.3593 23.8316 36.7239 23.6615C37.1128 23.467 37.4956 23.4488 37.8723 23.6068C38.2491 23.7648 38.4982 24.0503 38.6197 24.4635C38.8142 25.0226 38.9539 25.5938 39.039 26.1771C39.1241 26.7604 39.1666 27.3438 39.1666 27.9271C39.1666 31.184 38.0364 33.9549 35.776 36.2396C33.5155 38.5243 30.7569 39.6667 27.4999 39.6667H27.2447L28.5572 40.9792C28.8246 41.2465 28.9583 41.5868 28.9583 42C28.9583 42.4132 28.8246 42.7535 28.5572 43.0208C28.2899 43.2882 27.9496 43.4219 27.5364 43.4219C27.1232 43.4219 26.7829 43.2882 26.5155 43.0208L22.7239 39.2292C22.4322 38.9375 22.2864 38.5972 22.2864 38.2083C22.2864 37.8194 22.4322 37.4792 22.7239 37.1875L26.5155 33.3958C26.7829 33.1285 27.1232 32.9948 27.5364 32.9948C27.9496 32.9948 28.2899 33.1285 28.5572 33.3958C28.8246 33.6632 28.9583 34.0035 28.9583 34.4167C28.9583 34.8299 28.8246 35.1701 28.5572 35.4375L27.2447 36.75H27.4999C29.9305 36.75 31.9964 35.8932 33.6978 34.1797C35.3992 32.4661 36.2499 30.3819 36.2499 27.9271Z" fill="#003B4F"/>
</g>
<defs>
<linearGradient id="paint0_linear_4044_1413" x1="5" y1="5.5" x2="49.5" y2="53" gradientUnits="userSpaceOnUse">
<stop stop-color="#F7EB00"/>
<stop offset="1" stop-color="#FFFA91"/>
</linearGradient>
</defs>
</svg>
