<svg width="189" height="37" viewBox="0 0 189 37" fill="none" xmlns="http://www.w3.org/2000/svg">
<g clip-path="url(#clip0_4467_2945)">
<mask id="mask0_4467_2945" style="mask-type:luminance" maskUnits="userSpaceOnUse" x="-92" y="-243" width="372" height="522">
<path d="M-91.9951 -242.742H279.804V278.806H-91.9951V-242.742Z" fill="white"/>
</mask>
<g mask="url(#mask0_4467_2945)">
<path d="M18.083 7.77598C18.0453 7.75716 18.0004 7.73469 17.9816 7.72437C17.9628 7.71526 17.916 7.72315 17.8783 7.74015L12.723 10.2553C12.6859 10.2735 12.6896 10.2881 12.7297 10.2881H23.16C23.2013 10.2881 23.2044 10.2735 23.1679 10.2553L18.083 7.77598Z" fill="#4E4E4E"/>
<path d="M28.8409 11.0314L28.196 12.1627C28.176 12.1985 28.1256 12.2282 28.0849 12.2282H7.80831C7.76702 12.2282 7.71723 12.1985 7.69719 12.1627L7.0517 11.0314C7.03166 10.9962 7.04442 10.9518 7.08146 10.9318L17.8804 5.18803C17.9169 5.16799 17.9758 5.16799 18.0116 5.18803L28.8124 10.9318C28.8488 10.9518 28.8622 10.9962 28.8409 11.0314ZM14.4672 23.5063V13.2028H16.8038V23.5093H19.0821V13.2053H21.4133V23.5093H23.7432V13.2053H26.0695V23.5093H27.1024V25.6061C27.1024 25.6371 27.0787 25.662 27.0484 25.662H8.83453C8.80599 25.662 8.78048 25.6371 8.78048 25.6061V23.5093H9.81156V13.2053H12.136V23.5063H14.4672ZM28.1596 28.8554C28.1596 28.8845 28.1353 28.91 28.1049 28.91H7.77552C7.74576 28.91 7.72148 28.8845 7.72148 28.8554V26.8108C7.72148 26.7811 7.74576 26.7562 7.77552 26.7562H28.1049C28.1353 26.7562 28.1596 26.7811 28.1596 26.8108V28.8554ZM17.9399 0.184465C7.93886 0.184465 -0.199219 8.3189 -0.199219 18.3218C-0.199219 28.321 7.93886 36.4585 17.9399 36.4585C27.9398 36.4585 36.076 28.321 36.076 18.3218C36.076 8.3189 27.9398 0.184465 17.9399 0.184465Z" fill="#4E4E4E"/>
<path d="M49.897 24.671H52.0842C53.3114 24.671 54.215 24.4572 54.7949 24.0261C55.3742 23.5986 55.6644 22.9124 55.6644 21.9731C55.6644 21.0816 55.3936 20.3882 54.8556 19.8951C54.3158 19.3978 53.4347 19.1525 52.2099 19.1525H49.897V24.671ZM49.897 17.2215H51.9026C52.9914 17.2215 53.7808 17.0084 54.2781 16.5796C54.7736 16.1546 55.0214 15.5237 55.0214 14.6839C55.0214 13.0753 54.0067 12.2689 51.9761 12.2689H49.897V17.2215ZM45.1934 25.0159C45.3761 24.9673 45.6603 24.9187 46.0483 24.8701C46.4364 24.8191 46.8031 24.7942 47.1505 24.7942V12.1718C46.8031 12.1718 46.4364 12.1463 46.0483 12.0971C45.6603 12.0479 45.3761 11.9987 45.1934 11.9477V10.2408H52.2475C53.0072 10.2408 53.7255 10.3124 54.4026 10.4521C55.0784 10.5899 55.6705 10.8195 56.183 11.1431C56.6961 11.4637 57.0957 11.8821 57.3853 12.4037C57.6731 12.9211 57.8183 13.5605 57.8183 14.3171C57.8183 15.3561 57.542 16.1795 56.993 16.7873C56.4435 17.3976 55.7185 17.8196 54.8143 18.0485V18.0977C55.3098 18.1803 55.7853 18.326 56.2419 18.5325C56.6961 18.7396 57.0932 19.0055 57.4308 19.3353C57.7709 19.6686 58.0387 20.0597 58.2379 20.5163C58.437 20.9693 58.5354 21.494 58.5354 22.0878C58.5354 22.9167 58.3781 23.6217 58.0648 24.2095C57.7509 24.7961 57.3167 25.277 56.7617 25.6468C56.2079 26.0196 55.5418 26.2917 54.7645 26.4653C53.9872 26.6378 53.1268 26.7271 52.185 26.7271H45.1934V25.0159Z" fill="#4E4E4E"/>
<path d="M63.9163 25.041C64.5254 25.041 65.05 24.9195 65.4879 24.6705C65.9251 24.4234 66.2827 24.1095 66.5645 23.7312V21.2306H66.1188C64.9954 21.2306 64.0845 21.3994 63.3832 21.7364C62.6818 22.0752 62.3321 22.6752 62.3321 23.5332C62.3321 24.0767 62.5039 24.4665 62.8525 24.6967C63.1986 24.9256 63.5532 25.041 63.9163 25.041ZM63.2466 27.0229C62.7353 27.0229 62.2653 26.9489 61.8366 26.7995C61.4073 26.6507 61.0356 26.4327 60.7235 26.1431C60.4096 25.8552 60.1612 25.5091 59.9803 25.1041C59.7993 24.6991 59.707 24.2352 59.707 23.7051C59.707 22.9314 59.8953 22.2793 60.2645 21.751C60.6373 21.2227 61.1237 20.7964 61.7249 20.4776C62.3284 20.154 63.0128 19.9251 63.7797 19.7842C64.5473 19.6433 65.3263 19.5729 66.1188 19.5729H66.5645V18.5661C66.5645 17.8459 66.3999 17.3255 66.0684 17.0061C65.7405 16.6873 65.1867 16.5294 64.4094 16.5294C63.8004 16.5294 63.2356 16.6424 62.7146 16.8755C62.1961 17.1075 61.7133 17.4111 61.267 17.7906L60.1048 16.1511C60.6324 15.6684 61.2755 15.264 62.0339 14.9391C62.793 14.6112 63.6765 14.4497 64.6827 14.4497C66.1843 14.4497 67.3108 14.7806 68.0613 15.4382C68.8124 16.1001 69.1883 17.1798 69.1883 18.6808V23.7051C69.1883 23.9376 69.1907 24.1471 69.2004 24.3372C69.2083 24.5278 69.2211 24.7118 69.2387 24.894C69.5842 24.9256 69.9054 24.9523 70.203 24.9681C70.4987 24.9845 70.7562 24.9936 70.9693 24.9936V26.7272C70.6068 26.7576 70.0585 26.7922 69.3255 26.8244C68.5896 26.8572 67.785 26.8748 66.9112 26.8748C66.8602 26.709 66.8183 26.491 66.7867 26.2172C66.7533 25.9469 66.7375 25.6451 66.7375 25.3154H66.6883C66.358 25.7605 65.9002 26.1564 65.3154 26.5038C64.7294 26.8511 64.0396 27.0229 63.2466 27.0229Z" fill="#4E4E4E"/>
<path d="M72.1699 25.0165C72.3527 24.9679 72.6241 24.9193 72.9873 24.8708C73.3498 24.8197 73.6953 24.7948 74.028 24.7948V16.6021C73.6479 16.5705 73.2939 16.5463 72.9636 16.5292C72.6326 16.511 72.3697 16.5025 72.1699 16.5025V14.7956C72.55 14.7446 73.1524 14.7021 73.9764 14.6602C74.8023 14.6177 75.7101 14.5977 76.7005 14.5977L76.6021 16.4795H76.6519C77.0958 15.8844 77.6247 15.3974 78.2343 15.0172C78.8446 14.6389 79.5872 14.4495 80.4616 14.4495C81.1047 14.4495 81.6554 14.5479 82.1084 14.7446C82.5614 14.9438 82.9306 15.2164 83.2099 15.5644C83.4899 15.9081 83.6976 16.3125 83.8281 16.7752C83.9593 17.2385 84.0267 17.7328 84.0267 18.2599V24.7948C84.3558 24.7948 84.6983 24.8252 85.0541 24.8811C85.4087 24.9406 85.6686 24.9843 85.8332 25.0165V26.7271H79.6467V25.0165C79.8107 24.9843 80.0572 24.9436 80.3876 24.8938C80.7179 24.8452 81.0567 24.8112 81.4041 24.7948V18.7068C81.4041 18.0309 81.2626 17.5105 80.9838 17.1474C80.7015 16.7831 80.2236 16.6021 79.5471 16.6021C78.9193 16.6021 78.3679 16.7916 77.8882 17.1717C77.4097 17.5518 77.0065 17.9635 76.6743 18.4092V24.7948C77.0065 24.8112 77.3399 24.8452 77.6799 24.8938C78.0157 24.9436 78.2671 24.9843 78.4335 25.0165V26.7271H72.1699V25.0165Z" fill="#4E4E4E"/>
<path d="M93.9031 17.9639C93.8879 17.7587 93.8709 17.5298 93.8557 17.3057C93.8381 17.0841 93.8296 16.8746 93.8296 16.6772C93.4337 16.5114 92.9473 16.4295 92.3686 16.4295C91.8251 16.4295 91.346 16.54 90.9343 16.7616C90.5208 16.9857 90.1795 17.2905 89.9057 17.6791C89.6336 18.066 89.4266 18.5196 89.2881 19.0393C89.146 19.5603 89.0756 20.1257 89.0756 20.7341C89.0756 21.328 89.1509 21.8872 89.299 22.4052C89.4484 22.925 89.667 23.3756 89.9561 23.7551C90.2439 24.1352 90.5997 24.4346 91.0199 24.6574C91.4407 24.8809 91.932 24.9914 92.4955 24.9914C92.8568 24.9914 93.1914 24.9598 93.4962 24.893C93.8023 24.8287 94.0737 24.7443 94.3123 24.6459C94.5516 24.5481 94.758 24.4467 94.9311 24.3483C95.1054 24.2488 95.2396 24.168 95.3404 24.1L96.2051 25.884C96.0733 25.9812 95.8929 26.0929 95.661 26.2162C95.4308 26.3425 95.1448 26.4651 94.8078 26.5884C94.469 26.7129 94.0822 26.8161 93.6444 26.8981C93.2072 26.9807 92.7159 27.022 92.1706 27.022C91.2325 27.022 90.3969 26.8708 89.6688 26.5635C88.9402 26.2587 88.3287 25.8354 87.8271 25.2889C87.3274 24.7443 86.9454 24.1 86.6782 23.3573C86.4129 22.6165 86.2793 21.8077 86.2793 20.9333C86.2793 19.9095 86.4335 18.9938 86.7414 18.1862C87.0487 17.3767 87.478 16.696 88.0293 16.1447C88.5777 15.5921 89.2195 15.1701 89.9561 14.8816C90.689 14.5932 91.4942 14.4487 92.3686 14.4487C93.2284 14.4487 93.9626 14.5471 94.5734 14.7462C95.1825 14.9436 95.6276 15.1494 95.9099 15.3632V17.9639H93.9031Z" fill="#4E4E4E"/>
<path d="M102.84 25.041C103.384 25.041 103.842 24.9329 104.221 24.7076C104.599 24.4866 104.91 24.1848 105.158 23.8046C105.405 23.4251 105.584 22.9727 105.7 22.4432C105.815 21.9162 105.874 21.3545 105.874 20.7612C105.874 20.1667 105.812 19.6056 105.686 19.0774C105.564 18.5497 105.38 18.0918 105.134 17.7026C104.887 17.3146 104.571 17.0061 104.185 16.7754C103.797 16.5452 103.333 16.4298 102.792 16.4298C102.267 16.4298 101.814 16.541 101.435 16.7632C101.058 16.9861 100.75 17.2885 100.511 17.6668C100.272 18.0463 100.101 18.4975 99.9943 19.0166C99.8874 19.5358 99.834 20.0939 99.834 20.6871C99.834 21.2804 99.8911 21.8427 100.007 22.371C100.122 22.8974 100.299 23.3583 100.536 23.7561C100.775 24.1532 101.082 24.4665 101.461 24.6967C101.838 24.9256 102.298 25.041 102.84 25.041ZM102.792 27.0229C101.769 27.0229 100.893 26.8456 100.161 26.491C99.4284 26.1358 98.8315 25.6688 98.3706 25.092C97.9091 24.5151 97.5721 23.8556 97.3577 23.1112C97.144 22.371 97.0371 21.6119 97.0371 20.8335C97.0371 20.0939 97.1476 19.3415 97.3705 18.5837C97.5921 17.8234 97.9352 17.1391 98.3955 16.5294C98.8564 15.9192 99.4484 15.4188 100.173 15.0308C100.898 14.6428 101.769 14.4497 102.792 14.4497C103.812 14.4497 104.694 14.6264 105.434 14.9798C106.175 15.3362 106.784 15.802 107.26 16.38C107.738 16.9575 108.094 17.617 108.323 18.3627C108.556 19.1029 108.67 19.8625 108.67 20.6379C108.67 21.3624 108.556 22.1068 108.323 22.864C108.094 23.6225 107.738 24.3123 107.26 24.9329C106.784 25.5504 106.175 26.0532 105.434 26.4406C104.694 26.8286 103.812 27.0229 102.792 27.0229Z" fill="#4E4E4E"/>
<path d="M114.932 25.0165C115.114 24.9679 115.399 24.9193 115.785 24.8708C116.173 24.8185 116.542 24.7948 116.888 24.7948V12.1724C116.542 12.1724 116.173 12.1463 115.785 12.0977C115.399 12.0497 115.114 11.9993 114.932 11.9483V10.2402H119.512L126.516 20.067C126.912 20.6116 127.273 21.132 127.605 21.6269C127.935 22.1224 128.141 22.4601 128.223 22.6422H128.274C128.256 22.4771 128.24 22.1832 128.223 21.7617C128.207 21.3421 128.201 20.8181 128.201 20.1896V12.1724C127.853 12.1724 127.489 12.1463 127.11 12.0977C126.73 12.0497 126.45 11.9993 126.27 11.9483V10.2402H132.505V11.9483C132.323 11.9993 132.045 12.0497 131.666 12.0977C131.284 12.1463 130.93 12.1724 130.6 12.1724V26.7271H128.176L120.774 16.3532C120.592 16.1078 120.414 15.8546 120.241 15.6008C120.069 15.3433 119.916 15.1041 119.783 14.8824C119.653 14.6602 119.538 14.4647 119.437 14.3001C119.338 14.1362 119.273 14.0196 119.239 13.9546H119.188C119.222 14.1028 119.247 14.3863 119.264 14.8071C119.279 15.2286 119.289 15.6378 119.289 16.0325V24.7948C119.618 24.8112 119.977 24.841 120.365 24.8799C120.754 24.9236 121.039 24.9679 121.219 25.0165V26.7271H114.932V25.0165Z" fill="#4E4E4E"/>
<path d="M137.067 25.041C137.678 25.041 138.2 24.9195 138.638 24.6724C139.074 24.4234 139.435 24.1107 139.714 23.7312V21.2306H139.269C138.147 21.2306 137.235 21.3994 136.534 21.7364C135.832 22.0771 135.481 22.6752 135.481 23.532C135.481 24.0767 135.657 24.4665 136.003 24.6967C136.349 24.9268 136.702 25.041 137.067 25.041ZM136.399 27.0229C135.887 27.0229 135.416 26.9495 134.989 26.7995C134.556 26.6507 134.186 26.4327 133.875 26.1443C133.561 25.8552 133.312 25.5091 133.132 25.1041C132.948 24.7009 132.857 24.2352 132.857 23.7075C132.857 22.9314 133.043 22.2793 133.416 21.7504C133.788 21.2227 134.273 20.7964 134.875 20.4764C135.479 20.154 136.162 19.9226 136.93 19.7824C137.696 19.6433 138.477 19.5729 139.269 19.5729H139.714V18.5661C139.714 17.8459 139.55 17.3267 139.219 17.0055C138.891 16.6873 138.337 16.5294 137.56 16.5294C136.951 16.5294 136.387 16.6424 135.865 16.8755C135.345 17.1075 134.864 17.4099 134.419 17.7906L133.255 16.1511C133.783 15.6672 134.425 15.264 135.186 14.9391C135.943 14.6118 136.826 14.4497 137.835 14.4497C139.334 14.4497 140.461 14.7788 141.213 15.4388C141.963 16.1001 142.337 17.1816 142.337 18.6808V23.7075C142.337 23.9364 142.342 24.1471 142.349 24.336C142.359 24.5278 142.373 24.7131 142.388 24.894C142.735 24.9268 143.056 24.9499 143.353 24.9681C143.652 24.9857 143.907 24.9936 144.12 24.9936V26.7272C143.757 26.7576 143.208 26.7922 142.475 26.8244C141.741 26.8572 140.935 26.8736 140.062 26.8736C140.012 26.709 139.971 26.4904 139.937 26.2172C139.905 25.9469 139.888 25.6451 139.888 25.3154H139.837C139.508 25.7605 139.05 26.1564 138.465 26.5026C137.879 26.8499 137.191 27.0229 136.399 27.0229Z" fill="#4E4E4E"/>
<path d="M152.224 17.9524C152.208 17.7447 152.192 17.5304 152.176 17.3075C152.159 17.0829 152.153 16.8752 152.153 16.676C151.755 16.5127 151.268 16.4283 150.69 16.4283C150.146 16.4283 149.668 16.5406 149.255 16.7628C148.843 16.9857 148.501 17.2905 148.229 17.6785C147.957 18.066 147.749 18.5202 147.609 19.0399C147.468 19.5616 147.398 20.1239 147.398 20.7347C147.398 21.3286 147.473 21.886 147.623 22.4058C147.772 22.925 147.989 23.3762 148.277 23.7557C148.567 24.1346 148.92 24.4352 149.342 24.658C149.763 24.8797 150.254 24.992 150.815 24.992C151.178 24.992 151.511 24.9604 151.818 24.8936C152.121 24.8287 152.395 24.7443 152.636 24.6465C152.873 24.5463 153.08 24.4479 153.255 24.3483C153.426 24.2512 153.563 24.1656 153.663 24.1018L154.529 25.8846C154.396 25.9818 154.214 26.0929 153.982 26.2162C153.751 26.3425 153.467 26.4658 153.129 26.5884C152.79 26.7135 152.402 26.8167 151.967 26.8969C151.528 26.9807 151.037 27.022 150.492 27.022C149.554 27.022 148.719 26.8696 147.99 26.5641C147.264 26.2605 146.65 25.833 146.149 25.2889C145.651 24.7443 145.268 24.1018 145.001 23.3592C144.736 22.619 144.602 21.8083 144.602 20.9333C144.602 19.9107 144.757 18.9944 145.064 18.1868C145.372 17.378 145.801 16.6967 146.35 16.1435C146.901 15.5921 147.542 15.1707 148.277 14.8816C149.012 14.595 149.816 14.4469 150.69 14.4469C151.548 14.4469 152.282 14.5477 152.894 14.7444C153.505 14.9436 153.949 15.15 154.23 15.3632V17.9524H152.224Z" fill="#4E4E4E"/>
<path d="M159.039 13.1222C158.607 13.1222 158.245 12.9734 157.946 12.6771C157.651 12.379 157.502 12.0231 157.502 11.606C157.502 11.1894 157.651 10.836 157.946 10.5372C158.245 10.2409 158.607 10.0927 159.039 10.0927C159.483 10.0927 159.852 10.2409 160.14 10.5372C160.43 10.836 160.574 11.1894 160.574 11.606C160.574 12.0231 160.43 12.379 160.14 12.6771C159.852 12.9734 159.483 13.1222 159.039 13.1222ZM155.883 25.0172C156.063 24.9674 156.33 24.9188 156.687 24.8703C157.047 24.818 157.388 24.7944 157.715 24.7944V16.601C157.341 16.5701 156.989 16.5445 156.664 16.5288C156.339 16.5124 156.077 16.5026 155.883 16.5026V14.7951C156.26 14.7465 156.867 14.6992 157.704 14.6591C158.539 14.619 159.469 14.5984 160.487 14.5984L160.387 16.5524V24.7944C160.718 24.7944 161.056 24.8229 161.403 24.8794C161.747 24.9389 162.012 24.985 162.193 25.0172V26.7266H155.883V25.0172Z" fill="#4E4E4E"/>
<path d="M169.694 10.1817H173.257L170.112 12.9816H167.81L169.694 10.1817ZM168.864 25.0406C169.408 25.0406 169.866 24.9325 170.245 24.7078C170.624 24.485 170.935 24.1826 171.181 23.8043C171.427 23.426 171.608 22.9724 171.724 22.4423C171.841 21.9158 171.897 21.3535 171.897 20.7608C171.897 20.1658 171.835 19.6053 171.712 19.0776C171.588 18.5493 171.403 18.0884 171.157 17.7022C170.91 17.3166 170.594 17.0045 170.209 16.7744C169.82 16.5442 169.357 16.4283 168.813 16.4283C168.29 16.4283 167.837 16.5406 167.46 16.7628C167.081 16.9857 166.772 17.2881 166.536 17.6664C166.296 18.0447 166.124 18.4941 166.016 19.0138C165.913 19.5348 165.858 20.0917 165.858 20.6849C165.858 21.2794 165.916 21.8411 166.03 22.3688C166.145 22.8965 166.321 23.3592 166.561 23.7551C166.797 24.1528 167.108 24.4655 167.483 24.6957C167.861 24.9258 168.322 25.0406 168.864 25.0406ZM168.813 27.022C167.793 27.022 166.918 26.8441 166.184 26.49C165.452 26.1354 164.854 25.6685 164.392 25.0916C163.933 24.5141 163.595 23.8528 163.381 23.1108C163.168 22.3688 163.059 21.6085 163.059 20.8331C163.059 20.0917 163.172 19.3411 163.394 18.5821C163.618 17.8231 163.958 17.1375 164.418 16.5291C164.88 15.917 165.472 15.4184 166.197 15.0298C166.919 14.6424 167.793 14.4487 168.813 14.4487C169.836 14.4487 170.717 14.6254 171.458 14.9788C172.199 15.3359 172.806 15.801 173.284 16.3797C173.761 16.9559 174.119 17.6178 174.348 18.3605C174.578 19.1019 174.694 19.8615 174.694 20.6376C174.694 21.362 174.578 22.1046 174.348 22.8625C174.119 23.6221 173.761 24.3119 173.284 24.9325C172.806 25.5488 172.199 26.0528 171.458 26.4396C170.717 26.8258 169.836 27.022 168.813 27.022Z" fill="#4E4E4E"/>
<path d="M175.561 25.016C175.74 24.9674 176.012 24.9188 176.377 24.8703C176.74 24.818 177.085 24.7944 177.414 24.7944V16.6016C177.036 16.5701 176.681 16.5458 176.351 16.5288C176.021 16.5124 175.759 16.5026 175.561 16.5026V14.7939C175.938 14.7441 176.541 14.6986 177.366 14.6597C178.191 14.6184 179.097 14.5984 180.09 14.5984L179.991 16.4784H180.04C180.483 15.8851 181.013 15.3963 181.621 15.0168C182.235 14.6372 182.975 14.4478 183.848 14.4478C184.493 14.4478 185.042 14.5486 185.495 14.7441C185.951 14.9433 186.316 15.2159 186.598 15.5639C186.88 15.9088 187.084 16.3132 187.219 16.7747C187.349 17.2386 187.415 17.7335 187.415 18.2594V24.7944C187.743 24.7944 188.088 24.8229 188.443 24.8794C188.798 24.9389 189.056 24.985 189.221 25.016V26.7266H183.035V25.016C183.198 24.985 183.446 24.9431 183.777 24.8933C184.108 24.8448 184.445 24.8108 184.79 24.7944V18.7039C184.79 18.0286 184.651 17.51 184.373 17.1469C184.089 16.7838 183.611 16.6016 182.936 16.6016C182.307 16.6016 181.754 16.7923 181.276 17.1712C180.799 17.5513 180.395 17.9642 180.064 18.4112V24.7944C180.395 24.8108 180.729 24.8448 181.064 24.8933C181.404 24.9431 181.657 24.985 181.822 25.016V26.7266H175.561V25.016Z" fill="#4E4E4E"/>
</g>
</g>
<defs>
<clipPath id="clip0_4467_2945">
<rect width="189" height="36.4337" fill="white"/>
</clipPath>
</defs>
</svg>
