<svg width="127" height="58" viewBox="0 0 127 58" fill="none" xmlns="http://www.w3.org/2000/svg">
<path d="M82.7631 39.064C82.4974 37.9104 82.241 36.8181 81.9967 35.7245C81.4653 33.3507 80.9312 30.9768 80.4198 28.5989C80.3517 28.2855 80.3317 27.9254 80.4158 27.6214C81.8618 22.3535 83.3266 17.0923 84.7913 11.8298C84.8073 11.7724 84.8594 11.7244 84.9488 11.5884C89.6074 18.0312 94.2366 24.434 98.9259 30.9194C93.5236 33.6414 88.1827 36.3327 82.7631 39.064Z" fill="#4E4E4E"/>
<path d="M65.2947 9C71.6169 9.7535 77.9392 10.507 84.3389 11.2698C82.818 16.7538 81.3199 22.1537 79.7844 27.6909C74.8655 21.4348 70.0347 15.2908 65.2039 9.1467C65.2332 9.09736 65.2639 9.04934 65.2947 9Z" fill="#4E4E4E"/>
<path d="M74.0454 48.7316C75.9708 42.0007 77.8668 35.3752 79.7615 28.7497C79.8015 28.747 79.8416 28.7444 79.8816 28.7417C80.1981 30.1353 80.5159 31.5277 80.8283 32.9227C81.4425 35.6619 82.0634 38.3999 82.6469 41.1459C82.703 41.4072 82.6135 41.838 82.4266 41.9914C79.7401 44.2079 77.0269 46.391 74.3178 48.5809C74.2684 48.6209 74.2043 48.6449 74.0454 48.7316Z" fill="#4E4E4E"/>
<path d="M32.4468 30.4807C32.4468 33.3027 32.4468 36.1233 32.4468 38.9707C31.8619 38.9707 31.3412 38.9707 30.7617 38.9707C30.7617 33.4294 30.7617 27.8695 30.7617 22.2869C31.2905 22.2869 31.8179 22.2869 32.4161 22.2869C32.4161 24.7848 32.4161 27.296 32.4161 29.8072C32.4761 29.8433 32.5349 29.8793 32.595 29.9166C32.9448 29.5498 33.328 29.2084 33.6391 28.8097C35.0691 26.9733 36.4791 25.1208 37.8958 23.2738C38.6849 22.2455 38.6836 22.2442 40.1683 22.3269C39.2804 23.4111 38.4259 24.4447 37.5807 25.4863C36.602 26.6905 35.6459 27.9135 34.6485 29.1017C34.3014 29.5165 34.2533 29.8032 34.5925 30.286C36.4658 32.9506 38.2897 35.6472 40.1269 38.3358C40.2484 38.5132 40.3419 38.7079 40.5155 39.0107C39.7811 39.0107 39.1482 39.0387 38.5233 38.9907C38.3618 38.9787 38.1842 38.7506 38.0734 38.5839C36.3322 35.9646 34.6005 33.34 32.866 30.7168C32.7939 30.6061 32.7205 30.4967 32.647 30.3874C32.5803 30.418 32.5135 30.4487 32.4468 30.4807Z" fill="#4E4E4E"/>
<path d="M67.8794 38.9683C67.4241 38.9683 66.9675 38.9683 66.4374 38.9683C66.4374 38.7082 66.4414 38.4468 66.4374 38.1854C66.4014 35.9716 66.4054 33.7564 66.3092 31.5466C66.2518 30.2276 65.5989 29.5155 64.5614 29.3728C63.4225 29.2167 62.4531 29.7862 62.0579 30.9024C61.9057 31.3332 61.7989 31.804 61.7895 32.2587C61.7508 34.2512 61.7548 36.245 61.7441 38.2388C61.7428 38.4748 61.7441 38.7109 61.7441 38.9683C61.1993 38.9683 60.74 38.9683 60.23 38.9683C60.23 33.435 60.23 27.8898 60.23 22.3098C60.712 22.3098 61.1873 22.3098 61.7414 22.3098C61.7414 24.8824 61.7414 27.4363 61.7414 30.1983C61.9404 29.9329 62.0152 29.8382 62.0859 29.7408C63.0366 28.4205 64.2717 27.9378 65.7952 28.2925C66.9421 28.5592 67.8113 29.5635 67.8821 31.1452C67.9956 33.7084 67.9315 36.281 67.9395 38.8482C67.9382 38.8856 67.9008 38.9243 67.8794 38.9683Z" fill="#4E4E4E"/>
<path d="M20.0013 22.3657C20.4233 22.3657 20.8185 22.3657 21.3125 22.3657C21.3125 25.009 21.3125 27.6483 21.3125 30.2875C21.3739 30.3129 21.4354 30.3382 21.4968 30.3635C21.6356 30.1942 21.7825 30.0315 21.9134 29.8568C23.7079 27.4682 26.7976 27.7563 28.014 30.4796C29.0261 32.7467 28.8618 35.0219 27.6174 37.1664C26.7081 38.7361 25.0885 39.4736 23.4996 38.9868C22.7786 38.7655 22.1617 38.2067 21.3739 37.7239C21.0535 38.028 20.5888 38.4694 20 39.0282C20.0013 33.3802 20.0013 27.911 20.0013 22.3657ZM27.1955 33.4202C26.9712 32.4827 26.823 31.5171 26.5012 30.6129C26.1634 29.6674 25.3969 29.1126 24.3662 29.0686C23.3607 29.0246 22.5676 29.5073 22.151 30.3889C21.1429 32.5174 20.9814 34.7152 21.8373 36.9464C21.9 37.1091 21.9948 37.2638 22.0936 37.4105C23.1071 38.9082 25.0137 38.9322 26.0392 37.4425C26.8617 36.2422 27.0126 34.8552 27.1955 33.4202Z" fill="#4E4E4E"/>
<path d="M93.936 23.0712C96.9883 22.5284 99.8804 22.0136 102.937 21.4695C101.778 24.6035 100.667 27.6069 99.5079 30.7369C97.6252 28.147 95.816 25.6571 93.936 23.0712Z" fill="#4E4E4E"/>
<path d="M49.762 38.2667C49.774 38.9069 49.292 38.8668 48.9301 38.9082C47.8753 39.0309 47.5562 38.8122 47.1303 37.7173C46.8953 37.936 46.6803 38.148 46.4506 38.3441C45.5854 39.0829 44.5853 39.367 43.4771 39.1029C42.3595 38.8362 41.6906 37.956 41.5437 36.6783C41.4062 35.4794 41.9042 34.3418 42.9203 33.8884C43.6387 33.567 44.4385 33.4309 45.2035 33.2122C45.2463 33.2002 45.2917 33.2029 45.3357 33.1949C47.1222 32.8735 47.5015 32.3454 47.0822 30.7583C46.7377 29.45 45.4198 28.7979 44.0806 29.3033C43.7575 29.4247 43.4491 29.6287 43.19 29.8595C42.9403 30.0808 42.7628 30.3849 42.5318 30.681C42.2808 29.5274 42.3582 29.3393 43.2688 28.8299C44.0993 28.3658 44.9832 28.0897 45.9433 28.2084C47.5161 28.4018 48.4481 29.234 48.567 30.8077C48.7085 32.7001 48.6698 34.6059 48.7072 36.5063C48.7125 36.749 48.7072 36.9931 48.7085 37.2358C48.7072 38.216 48.7138 38.2227 49.762 38.2667ZM47.1129 33.4443C46.2784 33.6523 45.5146 33.7897 44.787 34.0351C43.4464 34.4858 42.9377 35.4487 43.2341 36.833C43.4264 37.7333 44.1394 38.2894 45.046 38.248C45.8458 38.2107 47.0862 37.2105 47.1062 36.5343C47.1356 35.5434 47.1129 34.5512 47.1129 33.4443Z" fill="#4E4E4E"/>
<path d="M52.0546 36.8609C52.3591 37.2063 52.6208 37.5544 52.9332 37.8491C53.6662 38.5413 54.4927 38.6666 55.2418 38.2372C55.9909 37.8078 56.3661 36.9222 56.2005 36.0114C56.091 35.4126 55.7305 35.0125 55.1897 34.7857C54.6396 34.555 54.0668 34.375 53.5087 34.1603C52.1454 33.6348 51.5766 32.7386 51.6701 31.2796C51.7676 29.7606 52.6114 28.6243 53.8986 28.3043C54.8359 28.0709 55.7465 28.1922 56.6358 28.5457C56.9309 28.663 57.0577 28.8137 56.9242 29.1498C56.7706 29.5379 56.6732 29.9486 56.5089 30.4874C56.346 30.2127 56.2459 30.0313 56.1337 29.858C55.7211 29.2191 55.1937 28.7857 54.3712 28.9418C53.6355 29.0818 53.2016 29.5512 53.044 30.2621C52.8705 31.0382 53.0561 31.7157 53.7156 32.2078C53.9079 32.3519 54.1336 32.4586 54.3552 32.5559C54.6797 32.6986 55.0121 32.8213 55.3446 32.9453C57.1885 33.6388 57.7413 34.491 57.5197 36.3008C57.3381 37.7798 56.1057 38.976 54.5301 39.1547C54.0935 39.2041 53.6222 39.2254 53.2056 39.1147C51.1747 38.5773 51.4752 38.7026 52.0546 36.8609Z" fill="#4E4E4E"/>
<path d="M107 25.2411C105.394 25.2411 103.853 25.2411 102.227 25.2411C102.666 24.0502 103.089 22.9006 103.514 21.751C104.662 22.9006 105.788 24.0262 107 25.2411Z" fill="#4E4E4E"/>
<path d="M86.9597 37.5877C90.932 35.5819 94.9029 33.5761 98.9393 31.5383C98.8218 32.5346 98.476 33.12 97.536 33.4748C94.0003 34.8111 90.5047 36.2541 86.9931 37.6571C86.9811 37.6344 86.9704 37.6117 86.9597 37.5877Z" fill="#4E4E4E"/>
<path d="M72.2044 19.0797C69.8103 16.8338 67.4176 14.5893 64.8767 12.2061C65.6445 12.2061 66.2306 12.1874 66.8141 12.2194C66.957 12.2274 67.1225 12.3781 67.224 12.5062C68.9238 14.6547 70.6141 16.8111 72.3072 18.965C72.2725 19.0036 72.2378 19.041 72.2044 19.0797Z" fill="#4E4E4E"/>
</svg>
