<svg width="114" height="60" viewBox="0 0 114 60" fill="none" xmlns="http://www.w3.org/2000/svg">
<mask id="mask0_4467_3114" style="mask-type:luminance" maskUnits="userSpaceOnUse" x="0" y="0" width="114" height="60">
<path d="M0 -0.000155479H114V59.8594H0V-0.000155479Z" fill="white"/>
</mask>
<g mask="url(#mask0_4467_3114)">
<path d="M57.5928 8.13629C53.2804 8.57043 50.645 10.6217 49.672 14.29C50.9897 15.443 53.625 16.0871 57.5928 16.2218C61.5758 16.1618 63.9859 14.9941 64.0312 12.2988C63.7765 9.31925 60.887 8.01632 57.5928 8.13629ZM58.1017 1.14378C65.6035 1.14378 71.682 6.17503 71.682 12.3887C71.682 18.6024 65.6035 22.3755 58.1017 22.3755C50.705 22.226 45.5543 19.8154 42.6348 15.1435C44.2066 6.27976 49.3726 1.62266 58.1017 1.14378Z" fill="#4E4E4E"/>
<path d="M42.0682 18.0935C44.2841 24.4719 50.4236 28.0208 56.7268 28.0208C61.9522 28.0208 65.4264 25.7601 67.2382 22.346L73.0929 26.0143C71.0565 31.0156 64.9922 34.6392 57.8497 34.6392C49.0154 34.6392 41.4541 28.6944 42.0682 18.3482V18.0935Z" fill="#6B6B6B"/>
<path d="M42.4774 54.8746C44.6415 57.5532 46.6993 57.4998 48.3662 56.7723C49.8923 56.0982 50.6904 54.3068 50.4246 52.3023C50.389 52.3201 50.3178 52.3201 50.3178 52.3552C49.3423 54.7328 46.8767 55.0693 44.9429 54.5376C43.2226 54.076 42.3355 52.8346 42.0692 51.1316C41.9807 50.5108 41.9273 49.8718 41.9273 49.2333C41.9095 46.661 41.9273 44.1065 41.9273 41.4813H44.9963C45.0141 41.7121 45.0319 41.9602 45.0319 42.2088V48.4881C45.0319 48.9319 45.067 49.3752 45.1381 49.819C45.3867 51.4864 46.4151 52.1427 48.0826 51.6989C49.4312 51.344 50.3356 50.1026 50.4246 48.2751C50.513 46.324 50.4952 44.3729 50.513 42.4213V41.4635H53.493C53.5291 41.5698 53.5464 41.6765 53.5642 41.8006C53.5642 45.6148 53.6527 49.4285 53.5291 53.2423C53.3695 57.7484 49.5375 60.4976 45.103 59.4514C43.6303 59.0966 42.2822 58.5109 41.2182 57.3935C40.8989 57.0565 40.8455 56.8079 41.1826 56.4358C41.6437 55.9742 42.0163 55.4419 42.4774 54.8746Z" fill="#4E4E4E"/>
<path d="M21.0331 52.1957C19.3479 52.1957 17.9646 50.3865 17.9646 48.1517C17.9646 45.9164 19.3301 44.1067 21.0331 44.1067C22.7361 44.1067 24.102 45.9164 24.102 48.1517C24.102 50.3865 22.7361 52.1957 21.0331 52.1957ZM23.9958 41.6233V43.5744C23.0375 42.1912 21.6721 41.3219 20.1465 41.3219C17.2905 41.3219 14.9668 44.3909 14.9668 48.169C14.9668 51.9476 17.2905 55.0161 20.1465 55.0161C21.6721 55.0161 23.0375 54.1473 23.9958 52.7636V55.0161H27.1182V41.6233H23.9958Z" fill="#4E4E4E"/>
<path d="M75.4381 52.1952C73.7529 52.1952 72.3696 50.386 72.3696 48.1512C72.3696 45.916 73.7351 44.1062 75.4381 44.1062C77.1411 44.1062 78.5071 45.916 78.5071 48.1512C78.5071 50.386 77.1233 52.1952 75.4381 52.1952ZM78.383 41.6228V43.5739C77.4426 42.1907 76.0593 41.3214 74.5337 41.3214C71.6777 41.3214 69.3535 44.3904 69.3535 48.1685C69.3535 51.9472 71.6777 55.0156 74.5337 55.0156C76.0593 55.0156 77.4253 54.1468 78.383 52.7631V55.0156H81.5049V41.6228H78.383Z" fill="#4E4E4E"/>
<path d="M108.079 52.1957C106.393 52.1957 105.01 50.3865 105.01 48.1517C105.01 45.9164 106.376 44.1067 108.079 44.1067C109.782 44.1067 111.147 45.9164 111.147 48.1517C111.147 50.3865 109.764 52.1957 108.079 52.1957ZM111.024 41.6233V43.5744C110.083 42.1912 108.699 41.3219 107.174 41.3219C104.318 41.3219 101.994 44.3909 101.994 48.169C101.994 51.9476 104.318 55.0161 107.174 55.0161C108.699 55.0161 110.065 54.1473 111.024 52.7636V55.0161H114.145V41.6233H111.024Z" fill="#4E4E4E"/>
<path d="M83.8125 55.0161H87.0055V41.3219H83.8125V55.0161Z" fill="#4E4E4E"/>
<path d="M87.3758 38.0575C87.3758 36.9701 86.4938 36.0886 85.4064 36.0886C84.319 36.0886 83.4375 36.9701 83.4375 38.0575C83.4375 39.1454 84.319 40.0269 85.4064 40.0269C86.4938 40.0269 87.3758 39.1454 87.3758 38.0575Z" fill="#6B6B6B"/>
<path d="M62.0275 52.1953C60.6971 52.1953 59.5792 51.1842 59.1182 49.7298V46.856C59.5792 45.4194 60.7149 44.3905 62.0275 44.3905C63.7656 44.3905 65.1671 46.1286 65.1671 48.2927C65.1671 50.4573 63.7483 52.1953 62.0275 52.1953ZM62.9146 41.5345C61.4241 41.5345 60.0759 42.3148 59.1182 43.574V41.3215H55.9785V59.8589H59.1182V52.9935C60.0759 54.2532 61.4241 55.034 62.9146 55.034C65.8412 55.034 68.2183 52.0179 68.2183 48.2927C68.2183 44.5674 65.8412 41.5345 62.9146 41.5345Z" fill="#4E4E4E"/>
<path d="M37.9021 46.1645L40.1373 44.9937C40.1018 43.9648 39.4099 43.0243 38.5406 42.4748C37.6713 41.9248 36.6251 41.6945 35.5784 41.5877C33.9104 41.4103 32.119 41.5521 30.7535 42.4926C29.387 43.4326 28.5711 45.3836 29.352 46.8564C29.9905 48.08 31.4098 48.6478 32.758 48.8959C34.1056 49.1445 35.525 49.233 36.7313 49.8537C37.0328 50.0133 37.352 50.2441 37.3698 50.5816C37.3876 50.9187 37.1568 51.1846 36.9265 51.3976C35.3303 52.7279 32.9527 52.5149 31.6228 50.9187C31.2497 50.4576 30.966 49.9248 30.842 49.3397L28.3764 50.6345C27.8619 50.9187 29.7775 53.2958 30.026 53.5083C31.8531 55.105 34.6028 55.3531 36.8554 54.6084C38.4343 54.0756 39.9243 52.9054 40.2436 51.273C40.4388 50.2263 40.1373 49.1445 39.4277 48.3464C38.6651 47.5127 37.5472 47.1222 36.4299 46.8914C35.3125 46.6612 34.1946 46.59 33.1123 46.2529C32.6512 46.1111 32.119 45.7919 32.1368 45.2947C32.1546 44.8519 32.6512 44.5677 33.0772 44.4259C33.9816 44.1244 34.9754 44.0004 35.8976 44.2663C36.8198 44.5321 37.6535 45.2601 37.9021 46.1645Z" fill="#4E4E4E"/>
<path d="M98.1814 46.165L100.416 44.9942C100.381 43.9653 99.6892 43.0248 98.8199 42.4753C97.9506 41.9252 96.9039 41.695 95.8572 41.5882C94.1897 41.4108 92.3983 41.5526 91.0323 42.4931C89.6663 43.433 88.8504 45.3841 89.6313 46.8569C90.2698 48.0805 91.6886 48.6483 93.0373 48.8964C94.3849 49.145 95.8043 49.2334 97.0106 49.8541C97.3121 50.0138 97.6313 50.2446 97.6491 50.5821C97.6669 50.9192 97.4361 51.185 97.2058 51.398C95.6091 52.7284 93.232 52.5154 91.9016 50.9192C91.529 50.4581 91.2453 49.9253 91.1213 49.3402L88.6557 50.635C88.1412 50.9192 90.0568 53.2963 90.3053 53.5088C92.1324 55.1055 94.8816 55.3536 97.1347 54.6089C98.7136 54.0761 100.204 52.9058 100.523 51.2735C100.718 50.2268 100.417 49.145 99.6892 48.3469C98.9266 47.5131 97.8088 47.1227 96.6914 46.8919C95.5735 46.6616 94.4561 46.6088 93.3916 46.2712C92.9305 46.1294 92.3983 45.8101 92.4161 45.3135C92.4338 44.8702 92.9305 44.5865 93.356 44.4442C94.2609 44.1427 95.2542 44.0187 96.1769 44.2845C97.0991 44.5504 97.9328 45.2606 98.1814 46.165Z" fill="#4E4E4E"/>
<path d="M9.00471 47.1931C7.97579 47.672 6.41461 47.5479 5.33231 47.2642C5.26165 47.2465 3.86009 46.7498 3.93126 46.6257C4.96019 44.7275 7.63874 42.9889 9.50138 44.9227C9.69659 45.1002 9.83842 45.3482 9.90959 45.5968C10.0687 46.2704 9.58983 46.9272 9.00471 47.1931ZM12.304 43.6452C12.304 43.6452 9.98025 40.0974 4.94239 41.8716C4.94239 41.8716 2.21046 42.6163 0.986328 46.9801C0.986328 46.9801 3.50526 51.0073 9.64321 49.712C9.64321 49.712 14.8941 48.346 12.304 43.6452Z" fill="#4E4E4E"/>
<path d="M1.00429 48.293C1.00429 48.293 0.401373 53.0472 4.81852 54.6084C9.23567 56.1696 12.7124 53.3136 13.7413 51.5394L11.2223 50.0494C11.2223 50.0494 9.25296 54.1295 3.59439 51.4865C3.59439 51.4865 1.53654 50.2802 1.00429 48.293Z" fill="#6B6B6B"/>
</g>
</svg>
