<svg width="127" height="50" viewBox="0 0 127 50" fill="none" xmlns="http://www.w3.org/2000/svg">
<path d="M36.5747 12.4848C37.7106 13.4547 38.4154 14.8596 39.028 16.29C41.9518 23.1015 41.6765 29.7874 37.8528 35.9128C34.2121 41.7453 29.1631 43.8399 23.1825 42.7025C22.6319 42.5988 22.0965 42.4678 21.6064 42.1384C23.2067 41.052 24.7752 39.9146 26.132 38.4041C27.8034 36.5461 29.2796 34.4861 30.4851 32.1641C30.7982 31.5617 31.0856 31.4598 31.5742 31.8219C31.9568 32.1058 32.3788 32.3187 32.7902 32.5426C33.244 32.7883 33.4996 32.5844 33.4376 31.9966C33.1094 28.9066 32.7706 25.8166 32.4121 22.7321C32.3289 22.0096 31.9402 21.7858 31.3609 22.0278C29.1314 22.9632 26.8943 23.8785 24.6693 24.8285C23.9131 25.1506 23.839 25.9476 24.4878 26.5482C24.8055 26.843 25.1443 27.1087 25.4891 27.3562C25.8748 27.6328 25.9263 27.9476 25.6888 28.4044C24.2579 31.1432 22.458 33.498 20.4357 35.6017C19.1213 36.9701 17.5361 37.7345 15.8587 38.2258C10.5179 32.2914 9.42733 22.9268 13.3494 15.3637C16.9674 8.38842 24.3804 5.02361 31.2414 8.20644C31.1113 8.41208 31.2066 8.61043 31.2535 8.80879C31.5621 10.1045 31.6422 11.4257 31.5031 12.7578C31.2671 15.0289 30.5623 17.1307 29.8483 19.2271C29.7636 19.4746 29.5851 19.7021 29.7636 19.9769C29.9527 20.2681 30.2144 20.208 30.4579 20.1225C31.2762 19.8386 32.1126 19.602 32.9022 19.2289C33.5753 18.9105 33.7416 19.2435 33.8158 19.9423C33.8884 20.6302 33.9958 21.3144 34.1031 21.995C34.147 22.2735 34.2589 22.5246 34.5342 22.5428C34.7762 22.5592 34.8867 22.3372 34.9653 22.1097C35.1075 21.6911 35.2497 21.2708 35.3692 20.8431C36.1254 18.1334 36.5762 15.3564 36.5747 12.4848Z" fill="#4E4E4E"/>
<path d="M81.0656 23.9719C80.7305 24.4646 80.6749 24.9733 80.5487 25.4373C80.0017 27.4472 79.4818 29.4678 78.9318 31.4777C78.6328 32.5722 78.2466 32.8911 77.3029 32.9179C74.7754 32.9932 74.7739 32.9932 74.0015 30.1252C73.0623 26.6375 72.1246 23.1497 71.1885 19.662C71.1209 19.4076 71.0577 19.1478 71.0202 18.8845C70.936 18.2952 71.1088 17.9763 71.6588 18.0014C72.2343 18.0282 72.8099 17.9996 73.3869 18.0014C74.5485 18.005 74.9302 18.3399 75.2698 19.6852C75.7296 21.507 76.1789 23.3324 76.6357 25.156C76.7123 25.4623 76.7995 25.7669 77.0309 26.0947C77.2924 25.0772 77.5598 24.0597 77.8138 23.0404C78.1204 21.8152 78.4224 20.5863 78.7124 19.3556C78.9183 18.4832 79.4036 18.1053 80.1415 18.0641C82.9319 17.9082 82.9334 17.9064 83.7058 21.0897C84.1055 22.7359 84.5173 24.3768 84.9425 26.0965C85.2581 25.8421 85.2836 25.5465 85.3513 25.276C85.7931 23.5062 86.2393 21.7399 86.6811 19.9701C87.0823 18.3614 87.4205 18.0515 88.8029 18.0426C89.2282 18.0408 89.6549 18.0336 90.0802 18.039C90.9803 18.0533 91.1546 18.3077 90.8826 19.3521C90.1779 22.0534 89.4506 24.7476 88.7278 27.4418C88.3626 28.8014 87.9795 30.1557 87.6233 31.5189C87.3754 32.4683 86.8554 32.9143 86.026 32.9627C83.6127 33.1024 83.4579 32.9788 82.7441 30.2524C82.2061 28.1888 81.6441 26.1323 81.0656 23.9719Z" fill="#4E4E4E"/>
<path d="M69.9847 27.4743C69.9832 28.8222 69.9878 30.1718 69.9817 31.5196C69.9771 32.5176 69.8037 32.7072 68.9061 32.7175C68.3492 32.7227 67.7908 32.7279 67.234 32.7141C66.8841 32.7055 66.5433 32.5917 66.4946 32.1384C66.4246 31.4903 66.1492 31.7333 65.8815 31.9143C64.1501 33.0829 62.2879 33.2191 60.377 32.7434C57.9655 32.1436 56.7347 30.1942 57.0481 27.5795C57.2702 25.7249 58.6456 24.3718 60.7254 23.953C62.2103 23.6531 63.7074 23.8427 65.1983 23.7979C66.1188 23.7703 66.1873 23.6669 65.9286 22.6379C65.7217 21.8123 65.2881 21.2935 64.5213 21.1608C63.397 20.966 62.3609 21.0987 61.4967 22.0605C61.0068 22.6034 58.7901 22.9068 58.2378 22.5431C57.9062 22.3242 57.8681 21.9536 57.8986 21.5658C57.9914 20.3455 58.5163 19.4061 59.5082 18.9563C62.0673 17.8015 64.6948 17.6412 67.2827 18.7581C69.1145 19.5475 69.9056 21.2763 69.9771 23.4273C70.0228 24.7769 69.9863 26.1265 69.9847 27.4743ZM63.8473 26.7883C63.33 26.8142 62.6424 26.7211 61.9699 26.9038C61.3218 27.0796 60.9703 27.607 60.914 28.3086C60.8562 29.0428 61.2122 29.5754 61.8269 29.8115C62.7549 30.1666 63.6739 30.0166 64.5746 29.6461C66.0032 29.06 65.9712 29.0549 66.0686 27.3778C66.0975 26.8797 65.9514 26.7883 65.6046 26.7866C65.0736 26.7866 64.5426 26.7883 63.8473 26.7883Z" fill="#4E4E4E"/>
<path d="M103.749 18.005C105.658 18.0032 105.661 18.0014 106.24 20.2143C106.69 21.9383 107.126 23.6678 107.58 25.39C107.838 26.3715 108.141 27.3349 108.798 28.0557C109.48 28.8036 109.856 28.6732 110.099 27.6228C110.728 24.8956 111.353 22.1665 111.98 19.4392C112.271 18.177 112.453 18.0122 113.575 18.0032C114.082 17.9995 114.589 17.9977 115.097 18.005C115.978 18.0195 116.135 18.2458 115.905 19.2672C115.31 21.9112 114.74 24.566 114.079 27.1882C113.413 29.8322 113.018 32.5776 111.958 35.0821C111.101 37.1085 109.78 38.11 107.876 37.9904C106.992 37.9343 106.109 37.8329 105.226 37.7423C104.621 37.6789 104.352 37.3005 104.34 36.5544C104.305 34.4501 104.32 34.4156 106.148 34.6837C107.598 34.8955 108.508 34.1784 108.886 32.5576C108.988 32.1194 108.953 31.8894 108.508 31.8459C106.651 31.6703 105.451 30.3863 104.665 28.483C103.52 25.7105 103.015 22.6772 102.223 19.7616C102.168 19.5606 102.118 19.3596 102.075 19.1549C101.884 18.2495 102.03 18.0267 102.835 18.005C103.14 17.9977 103.444 18.005 103.749 18.005Z" fill="#4E4E4E"/>
<path d="M47.0133 24.8184C47.1069 22.3148 46.8424 19.6639 47.1693 17.0394C47.5245 14.1881 48.4876 12.9524 50.7198 12.3326C52.5136 11.8357 54.3119 11.9415 56.1012 12.3478C56.9082 12.531 57.1177 13.1961 56.9424 14.7417C56.8428 15.6109 56.5634 15.8679 55.7029 15.7111C54.5437 15.4994 53.3979 15.3426 52.2505 15.7942C51.2385 16.1929 50.479 18.0559 50.8283 19.3105C50.9516 19.7565 51.2593 19.6677 51.5179 19.6714C52.5314 19.6865 53.5465 19.7092 54.5615 19.6771C55.2749 19.6563 55.5558 20.0815 55.5142 20.9412C55.5112 21.0035 55.5112 21.0678 55.5112 21.1301C55.5142 23.1575 55.5142 23.1575 53.8898 23.1557C53.1229 23.1538 52.3531 23.1953 51.5892 23.1424C50.9843 23.1009 50.7659 23.3484 50.7777 24.1495C50.8134 26.6021 50.7882 29.0565 50.7926 31.511C50.7956 32.8601 50.7124 32.9791 49.6706 32.9867C49.1013 32.9905 48.5307 32.9565 47.9629 32.9961C47.2481 33.0453 46.9999 32.6258 47.0073 31.7528C47.0296 29.4836 47.0133 27.2181 47.0133 24.8184Z" fill="#4E4E4E"/>
<path d="M96.2824 19.882C97.4876 18.6015 98.732 18 100.12 18C100.83 18 100.974 18.1693 100.996 19.1571C101.007 19.6845 100.992 20.2136 100.983 20.741C100.972 21.3901 100.722 21.6952 100.264 21.6811C99.8867 21.6688 99.5052 21.6846 99.1312 21.6212C98.1281 21.4518 97.3411 22.018 96.6601 22.9687C96.3241 23.4361 96.2495 24.0253 96.2533 24.6673C96.2672 27.015 96.271 29.3626 96.271 31.7103C96.271 32.7756 96.1105 32.9891 95.3462 32.9961C94.8207 33.0014 94.2951 32.9855 93.7696 32.9996C93.2819 33.012 93.004 32.7086 93.0027 32.0172C92.9989 27.7611 92.9989 23.5067 93.004 19.2506C93.004 18.6544 93.2238 18.3193 93.6634 18.314C94.3153 18.3069 94.9672 18.2999 95.6178 18.3087C96.2975 18.3175 96.2773 19.0266 96.2824 19.882Z" fill="#4E4E4E"/>
</svg>
