<svg width="19" height="19" viewBox="0 0 19 19" fill="none" xmlns="http://www.w3.org/2000/svg">
<mask id="mask0_4184_4332" style="mask-type:alpha" maskUnits="userSpaceOnUse" x="0" y="0" width="19" height="19">
<rect x="0.5" y="0.740234" width="17.52" height="17.52" fill="#D9D9D9"/>
</mask>
<g mask="url(#mask0_4184_4332)">
<path d="M12.1797 6.87214L5.68271 13.3691C5.54888 13.503 5.37855 13.5699 5.17171 13.5699C4.96488 13.5699 4.79454 13.503 4.66071 13.3691C4.52688 13.2353 4.45996 13.065 4.45996 12.8581C4.45996 12.6513 4.52688 12.481 4.66071 12.3471L11.1577 5.85014H5.60971C5.40288 5.85014 5.2295 5.78018 5.08959 5.64026C4.94967 5.50035 4.87971 5.32697 4.87971 5.12014C4.87971 4.9133 4.94967 4.73993 5.08959 4.60001C5.2295 4.4601 5.40288 4.39014 5.60971 4.39014H12.9097C13.1166 4.39014 13.2899 4.4601 13.4298 4.60001C13.5698 4.73993 13.6397 4.9133 13.6397 5.12014V12.4201C13.6397 12.627 13.5698 12.8004 13.4298 12.9403C13.2899 13.0802 13.1166 13.1501 12.9097 13.1501C12.7029 13.1501 12.5295 13.0802 12.3896 12.9403C12.2497 12.8004 12.1797 12.627 12.1797 12.4201V6.87214Z" fill="#E6EBED"/>
</g>
</svg>
