<svg width="19" height="19" viewBox="0 0 19 19" fill="none" xmlns="http://www.w3.org/2000/svg">
<mask id="mask0_4184_4432" style="mask-type:alpha" maskUnits="userSpaceOnUse" x="0" y="0" width="19" height="19">
<rect x="0.0166016" y="0.972107" width="18" height="18" fill="#D9D9D9"/>
</mask>
<g mask="url(#mask0_4184_4432)">
<path d="M9.01686 13.9283L5.90436 15.8033C5.76686 15.8908 5.62311 15.9283 5.47311 15.9158C5.32311 15.9033 5.19186 15.8533 5.07936 15.7658C4.96686 15.6783 4.87936 15.5689 4.81686 15.4377C4.75436 15.3064 4.74186 15.1596 4.77936 14.9971L5.60436 11.4533L2.84811 9.07207C2.72311 8.95957 2.64498 8.83145 2.61373 8.6877C2.58248 8.54395 2.59186 8.40332 2.64186 8.26582C2.69186 8.12832 2.76686 8.01582 2.86686 7.92832C2.96686 7.84082 3.10436 7.78457 3.27936 7.75957L6.91686 7.44082L8.32311 4.10332C8.38561 3.95332 8.48248 3.84082 8.61373 3.76582C8.74498 3.69082 8.87936 3.65332 9.01686 3.65332C9.15436 3.65332 9.28873 3.69082 9.41998 3.76582C9.55123 3.84082 9.64811 3.95332 9.71061 4.10332L11.1169 7.44082L14.7544 7.75957C14.9294 7.78457 15.0669 7.84082 15.1669 7.92832C15.2669 8.01582 15.3419 8.12832 15.3919 8.26582C15.4419 8.40332 15.4512 8.54395 15.42 8.6877C15.3887 8.83145 15.3106 8.95957 15.1856 9.07207L12.4294 11.4533L13.2544 14.9971C13.2919 15.1596 13.2794 15.3064 13.2169 15.4377C13.1544 15.5689 13.0669 15.6783 12.9544 15.7658C12.8419 15.8533 12.7106 15.9033 12.5606 15.9158C12.4106 15.9283 12.2669 15.8908 12.1294 15.8033L9.01686 13.9283Z" fill="#F8B200"/>
</g>
</svg>
