<svg width="163" height="154" viewBox="0 0 163 154" fill="none" xmlns="http://www.w3.org/2000/svg">
<g filter="url(#filter0_d_4176_4170)">
<g filter="url(#filter1_b_4176_4170)">
<path d="M135.005 131.71H27.8734C22.4206 131.71 18 127.29 18 121.837V24.8734C18 19.4206 22.4206 15 27.8734 15H135.005C140.458 15 144.878 19.4206 144.878 24.8734V121.836C144.878 127.29 140.458 131.71 135.005 131.71Z" fill="white" fill-opacity="0.5"/>
</g>
<path opacity="0.2" d="M113.124 90.0483V56.6611C113.124 55.6711 112.596 54.7564 111.739 54.2619L82.8241 37.5687C81.9669 37.0741 80.9104 37.0741 80.0532 37.5687L51.1395 54.2619C50.2823 54.7564 49.7545 55.6711 49.7545 56.6611V90.0483C49.7545 91.0384 50.2823 91.953 51.1395 92.4476L80.0532 109.141C80.9104 109.635 81.9669 109.635 82.8241 109.141L111.738 92.4476C112.596 91.953 113.124 91.0384 113.124 90.0483Z" fill="#2ACA10"/>
<path opacity="0.2" d="M102.368 83.8389V62.8714C102.368 61.8814 101.84 60.9668 100.983 60.4722L82.824 49.9885C81.9669 49.4939 80.9104 49.4939 80.0532 49.9885L61.8943 60.4722C61.0371 60.9668 60.5093 61.8814 60.5093 62.8714V83.8398C60.5093 84.8298 61.0371 85.7445 61.8943 86.239L80.0532 96.7227C80.9104 97.2173 81.9669 97.2173 82.824 96.7227L100.983 86.239C101.84 85.7436 102.368 84.8289 102.368 83.8389Z" fill="#BCE5F1"/>
<path opacity="0.2" d="M88.2912 75.7114V70.9982C88.2912 70.0081 87.7635 69.0935 86.9063 68.5989L82.8241 66.2419C81.9669 65.7473 80.9104 65.7473 80.0532 66.2419L75.972 68.5989C75.1148 69.0935 74.587 70.0081 74.587 70.9982V75.7114C74.587 76.7014 75.1148 77.616 75.972 78.1106L80.0532 80.4676C80.9104 80.9622 81.9669 80.9622 82.8241 80.4676L86.9063 78.1106C87.7635 77.616 88.2912 76.7014 88.2912 75.7114Z" fill="#BCE5F1"/>
<path d="M79.2544 56.6477L64.7585 58.5649C61.8117 58.9545 60.1081 62.1122 61.4006 64.7897L77.9358 99.0233C79.2481 101.739 82.8546 102.337 84.9729 100.189L99.9005 85.0507C100.932 84.005 101.368 82.5105 101.061 81.0744L98.1484 67.4429C97.8774 66.1755 97.057 65.0939 95.9099 64.4907L81.8547 57.11C81.0576 56.6917 80.1484 56.5292 79.2544 56.6477Z" stroke="#8AA5AE" stroke-width="1.6537" stroke-miterlimit="10" stroke-linecap="round" stroke-linejoin="round"/>
<path d="M81.0612 39.3647C82.2599 39.3647 83.2316 38.393 83.2316 37.1944C83.2316 35.9957 82.2599 35.024 81.0612 35.024C79.8626 35.024 78.8909 35.9957 78.8909 37.1944C78.8909 38.393 79.8626 39.3647 81.0612 39.3647Z" fill="#8AA5AE"/>
<path d="M82.7828 109.941C82.7828 110.892 82.012 111.663 81.0612 111.663C80.1104 111.663 79.3397 110.892 79.3397 109.941C79.3397 108.991 80.1104 108.22 81.0612 108.22C82.012 108.22 82.7828 108.991 82.7828 109.941Z" fill="#2ACA10" stroke="#36CF00" stroke-width="0.897579"/>
<path d="M114.845 55.6558C114.845 56.6066 114.074 57.3774 113.124 57.3774C112.173 57.3774 111.402 56.6066 111.402 55.6558C111.402 54.705 112.173 53.9343 113.124 53.9343C114.074 53.9343 114.845 54.705 114.845 55.6558Z" fill="#2ACA10" stroke="#36CF00" stroke-width="0.897579"/>
<path d="M113.124 93.6343C114.322 93.6343 115.294 92.6626 115.294 91.4639C115.294 90.2653 114.322 89.2936 113.124 89.2936C111.925 89.2936 110.953 90.2653 110.953 91.4639C110.953 92.6626 111.925 93.6343 113.124 93.6343Z" fill="#8AA5AE"/>
<path d="M51.4761 55.6558C51.4761 56.6066 50.7054 57.3774 49.7546 57.3774C48.8038 57.3774 48.033 56.6066 48.033 55.6558C48.033 54.705 48.8038 53.9343 49.7546 53.9343C50.7054 53.9343 51.4761 54.705 51.4761 55.6558Z" fill="#2ACA10" stroke="#36CF00" stroke-width="0.897579"/>
<path d="M49.7546 93.6343C50.9532 93.6343 51.9249 92.6626 51.9249 91.4639C51.9249 90.2653 50.9532 89.2936 49.7546 89.2936C48.5559 89.2936 47.5842 90.2653 47.5842 91.4639C47.5842 92.6626 48.5559 93.6343 49.7546 93.6343Z" fill="#8AA5AE"/>
<g opacity="0.45">
<path d="M77.0478 115.26V113.364H77.2774V115.056H78.1589V115.26H77.0478ZM79.0625 115.29C78.9341 115.29 78.8215 115.259 78.7246 115.198C78.6283 115.137 78.553 115.051 78.4987 114.942C78.445 114.832 78.4181 114.703 78.4181 114.556C78.4181 114.408 78.445 114.279 78.4987 114.169C78.553 114.058 78.6283 113.972 78.7246 113.911C78.8215 113.85 78.9341 113.819 79.0625 113.819C79.1909 113.819 79.3032 113.85 79.3995 113.911C79.4964 113.972 79.5718 114.058 79.6255 114.169C79.6798 114.279 79.7069 114.408 79.7069 114.556C79.7069 114.703 79.6798 114.832 79.6255 114.942C79.5718 115.051 79.4964 115.137 79.3995 115.198C79.3032 115.259 79.1909 115.29 79.0625 115.29ZM79.0625 115.093C79.16 115.093 79.2403 115.068 79.3032 115.018C79.3662 114.968 79.4128 114.903 79.4431 114.821C79.4733 114.74 79.4884 114.652 79.4884 114.556C79.4884 114.461 79.4733 114.373 79.4431 114.291C79.4128 114.209 79.3662 114.142 79.3032 114.092C79.2403 114.041 79.16 114.016 79.0625 114.016C78.965 114.016 78.8847 114.041 78.8218 114.092C78.7588 114.142 78.7122 114.209 78.682 114.291C78.6517 114.373 78.6366 114.461 78.6366 114.556C78.6366 114.652 78.6517 114.74 78.682 114.821C78.7122 114.903 78.7588 114.968 78.8218 115.018C78.8847 115.068 78.965 115.093 79.0625 115.093ZM80.0405 115.26V113.838H80.2516V114.053H80.2664C80.2923 113.982 80.3392 113.925 80.4071 113.881C80.475 113.838 80.5516 113.816 80.6368 113.816C80.6528 113.816 80.6729 113.816 80.6969 113.817C80.721 113.817 80.7392 113.818 80.7516 113.819V114.042C80.7442 114.04 80.7272 114.037 80.7006 114.033C80.6747 114.029 80.6472 114.027 80.6182 114.027C80.5491 114.027 80.4874 114.041 80.4331 114.07C80.3794 114.099 80.3368 114.138 80.3053 114.189C80.2744 114.239 80.259 114.296 80.259 114.36V115.26H80.0405ZM81.5636 115.29C81.4265 115.29 81.3083 115.26 81.2089 115.199C81.1102 115.138 81.034 115.053 80.9803 114.943C80.9272 114.834 80.9006 114.706 80.9006 114.56C80.9006 114.414 80.9272 114.286 80.9803 114.175C81.034 114.063 81.1086 113.976 81.2043 113.914C81.3006 113.851 81.413 113.819 81.5413 113.819C81.6154 113.819 81.6886 113.832 81.7608 113.856C81.833 113.881 81.8987 113.921 81.958 113.977C82.0172 114.032 82.0645 114.105 82.0996 114.195C82.1348 114.286 82.1524 114.398 82.1524 114.531V114.623H81.0562V114.434H81.9302C81.9302 114.354 81.9142 114.282 81.8821 114.219C81.8506 114.156 81.8055 114.107 81.7469 114.07C81.6889 114.034 81.6203 114.016 81.5413 114.016C81.4543 114.016 81.379 114.037 81.3154 114.081C81.2525 114.123 81.204 114.179 81.1701 114.247C81.1361 114.316 81.1191 114.389 81.1191 114.468V114.593C81.1191 114.701 81.1377 114.792 81.1747 114.867C81.2123 114.941 81.2645 114.997 81.3312 115.036C81.3978 115.074 81.4753 115.093 81.5636 115.093C81.621 115.093 81.6728 115.085 81.7191 115.069C81.766 115.053 81.8065 115.028 81.8404 114.995C81.8743 114.962 81.9006 114.921 81.9191 114.871L82.1302 114.931C82.108 115.002 82.0706 115.065 82.0182 115.119C81.9657 115.173 81.9009 115.215 81.8237 115.245C81.7466 115.275 81.6599 115.29 81.5636 115.29ZM82.4848 115.26V113.838H82.6959V114.06H82.7144C82.7441 113.984 82.7919 113.925 82.8579 113.883C82.924 113.841 83.0033 113.819 83.0959 113.819C83.1897 113.819 83.2678 113.841 83.3301 113.883C83.3931 113.925 83.4422 113.984 83.4774 114.06H83.4922C83.5286 113.987 83.5832 113.928 83.6561 113.885C83.7289 113.841 83.8162 113.819 83.9181 113.819C84.0452 113.819 84.1492 113.859 84.2301 113.939C84.311 114.018 84.3514 114.141 84.3514 114.308V115.26H84.1329V114.308C84.1329 114.203 84.1042 114.128 84.0468 114.083C83.9894 114.038 83.9218 114.016 83.844 114.016C83.744 114.016 83.6666 114.046 83.6116 114.106C83.5567 114.166 83.5292 114.242 83.5292 114.334V115.26H83.307V114.286C83.307 114.205 83.2808 114.14 83.2283 114.091C83.1758 114.041 83.1082 114.016 83.0255 114.016C82.9687 114.016 82.9157 114.031 82.8663 114.061C82.8175 114.091 82.778 114.133 82.7478 114.187C82.7181 114.24 82.7033 114.302 82.7033 114.371V115.26H82.4848Z" fill="#222222"/>
<path d="M77.5055 118.388V116.966H77.724V118.388H77.5055ZM77.6166 116.729C77.574 116.729 77.5373 116.714 77.5064 116.685C77.4762 116.656 77.4611 116.622 77.4611 116.581C77.4611 116.54 77.4762 116.505 77.5064 116.476C77.5373 116.447 77.574 116.433 77.6166 116.433C77.6592 116.433 77.6956 116.447 77.7259 116.476C77.7567 116.505 77.7722 116.54 77.7722 116.581C77.7722 116.622 77.7567 116.656 77.7259 116.685C77.6956 116.714 77.6592 116.729 77.6166 116.729ZM78.1242 118.921V116.966H78.3353V117.192H78.3613C78.3773 117.167 78.3995 117.136 78.4279 117.098C78.4569 117.059 78.4983 117.024 78.552 116.994C78.6063 116.963 78.6798 116.948 78.7724 116.948C78.8921 116.948 78.9977 116.977 79.089 117.037C79.1804 117.097 79.2517 117.182 79.3029 117.292C79.3541 117.402 79.3797 117.531 79.3797 117.681C79.3797 117.831 79.3541 117.962 79.3029 118.072C79.2517 118.182 79.1807 118.268 79.0899 118.328C78.9992 118.388 78.8946 118.418 78.7761 118.418C78.6847 118.418 78.6116 118.403 78.5566 118.372C78.5017 118.342 78.4594 118.307 78.4298 118.268C78.4002 118.228 78.3773 118.196 78.3613 118.17H78.3427V118.921H78.1242ZM78.339 117.677C78.339 117.785 78.3548 117.879 78.3863 117.961C78.4177 118.043 78.4637 118.107 78.5242 118.153C78.5847 118.199 78.6588 118.222 78.7464 118.222C78.8378 118.222 78.914 118.197 78.9751 118.149C79.0369 118.101 79.0831 118.035 79.114 117.953C79.1455 117.87 79.1612 117.778 79.1612 117.677C79.1612 117.577 79.1458 117.487 79.1149 117.407C79.0847 117.326 79.0387 117.262 78.977 117.215C78.9159 117.168 78.839 117.144 78.7464 117.144C78.6575 117.144 78.5829 117.166 78.5224 117.211C78.4619 117.256 78.4162 117.318 78.3853 117.398C78.3545 117.478 78.339 117.571 78.339 117.677ZM80.7204 117.285L80.5241 117.34C80.5118 117.307 80.4936 117.276 80.4695 117.245C80.446 117.213 80.4139 117.187 80.3732 117.167C80.3325 117.147 80.2803 117.136 80.2167 117.136C80.1297 117.136 80.0572 117.156 79.9992 117.197C79.9417 117.236 79.913 117.286 79.913 117.347C79.913 117.402 79.9328 117.445 79.9723 117.476C80.0118 117.508 80.0735 117.534 80.1575 117.555L80.3686 117.607C80.4957 117.638 80.5905 117.685 80.6528 117.748C80.7152 117.811 80.7463 117.893 80.7463 117.992C80.7463 118.073 80.7229 118.146 80.676 118.21C80.6297 118.275 80.5649 118.325 80.4815 118.362C80.3982 118.399 80.3013 118.418 80.1908 118.418C80.0458 118.418 79.9257 118.386 79.8306 118.323C79.7356 118.26 79.6754 118.168 79.6501 118.047L79.8575 117.996C79.8772 118.072 79.9146 118.13 79.9695 118.168C80.0251 118.206 80.0976 118.225 80.1871 118.225C80.289 118.225 80.3698 118.204 80.4297 118.16C80.4902 118.117 80.5204 118.064 80.5204 118.003C80.5204 117.954 80.5031 117.912 80.4686 117.879C80.434 117.845 80.3809 117.82 80.3093 117.803L80.0723 117.747C79.9421 117.717 79.8464 117.669 79.7853 117.604C79.7248 117.539 79.6945 117.457 79.6945 117.359C79.6945 117.278 79.7171 117.207 79.7621 117.146C79.8078 117.084 79.8698 117.035 79.9482 117C80.0272 116.965 80.1167 116.948 80.2167 116.948C80.3575 116.948 80.468 116.978 80.5482 117.04C80.6291 117.102 80.6865 117.183 80.7204 117.285ZM81.9715 117.807V116.966H82.19V118.388H81.9715V118.147H81.9567C81.9234 118.22 81.8715 118.281 81.8012 118.332C81.7308 118.382 81.6419 118.407 81.5345 118.407C81.4456 118.407 81.3666 118.387 81.2975 118.348C81.2283 118.309 81.174 118.25 81.1345 118.171C81.095 118.091 81.0753 117.991 81.0753 117.87V116.966H81.2938V117.855C81.2938 117.959 81.3228 118.041 81.3808 118.103C81.4394 118.165 81.5141 118.196 81.6049 118.196C81.6592 118.196 81.7144 118.182 81.7706 118.154C81.8274 118.126 81.8749 118.084 81.9132 118.026C81.9521 117.969 81.9715 117.896 81.9715 117.807ZM82.5902 118.388V116.966H82.8013V117.188H82.8199C82.8495 117.112 82.8973 117.053 82.9634 117.011C83.0294 116.969 83.1087 116.948 83.2013 116.948C83.2951 116.948 83.3732 116.969 83.4356 117.011C83.4985 117.053 83.5476 117.112 83.5828 117.188H83.5976C83.634 117.115 83.6886 117.056 83.7615 117.013C83.8343 116.969 83.9217 116.948 84.0235 116.948C84.1507 116.948 84.2547 116.987 84.3355 117.067C84.4164 117.146 84.4568 117.269 84.4568 117.436V118.388H84.2383V117.436C84.2383 117.331 84.2096 117.256 84.1522 117.211C84.0948 117.166 84.0272 117.144 83.9494 117.144C83.8494 117.144 83.772 117.174 83.717 117.235C83.6621 117.294 83.6346 117.37 83.6346 117.462V118.388H83.4124V117.414C83.4124 117.333 83.3862 117.268 83.3337 117.219C83.2813 117.169 83.2137 117.144 83.131 117.144C83.0742 117.144 83.0211 117.159 82.9717 117.189C82.9229 117.219 82.8834 117.261 82.8532 117.315C82.8236 117.368 82.8087 117.43 82.8087 117.499V118.388H82.5902Z" fill="#222222"/>
<path d="M117.228 90.2086V88.3124H117.458V90.0049H118.339V90.2086H117.228ZM119.243 90.2382C119.114 90.2382 119.002 90.2077 118.905 90.1466C118.809 90.0855 118.733 90 118.679 89.8901C118.625 89.7802 118.598 89.6519 118.598 89.5049C118.598 89.3568 118.625 89.2275 118.679 89.117C118.733 89.0065 118.809 88.9207 118.905 88.8596C119.002 88.7985 119.114 88.7679 119.243 88.7679C119.371 88.7679 119.484 88.7985 119.58 88.8596C119.677 88.9207 119.752 89.0065 119.806 89.117C119.86 89.2275 119.887 89.3568 119.887 89.5049C119.887 89.6519 119.86 89.7802 119.806 89.8901C119.752 90 119.677 90.0855 119.58 90.1466C119.484 90.2077 119.371 90.2382 119.243 90.2382ZM119.243 90.042C119.34 90.042 119.421 90.017 119.484 89.967C119.547 89.917 119.593 89.8512 119.623 89.7697C119.654 89.6883 119.669 89.6 119.669 89.5049C119.669 89.4099 119.654 89.3213 119.623 89.2392C119.593 89.1571 119.547 89.0908 119.484 89.0402C119.421 88.9895 119.34 88.9642 119.243 88.9642C119.145 88.9642 119.065 88.9895 119.002 89.0402C118.939 89.0908 118.893 89.1571 118.862 89.2392C118.832 89.3213 118.817 89.4099 118.817 89.5049C118.817 89.6 118.832 89.6883 118.862 89.7697C118.893 89.8512 118.939 89.917 119.002 89.967C119.065 90.017 119.145 90.042 119.243 90.042ZM120.221 90.2086V88.7865H120.432V89.0013H120.447C120.473 88.9309 120.52 88.8738 120.587 88.83C120.655 88.7862 120.732 88.7642 120.817 88.7642C120.833 88.7642 120.853 88.7645 120.877 88.7652C120.901 88.7658 120.92 88.7667 120.932 88.7679V88.9902C120.925 88.9883 120.908 88.9855 120.881 88.9818C120.855 88.9775 120.828 88.9753 120.799 88.9753C120.729 88.9753 120.668 88.9898 120.613 89.0189C120.56 89.0473 120.517 89.0868 120.486 89.1374C120.455 89.1874 120.439 89.2445 120.439 89.3087V90.2086H120.221ZM121.744 90.2382C121.607 90.2382 121.489 90.208 121.389 90.1475C121.291 90.0864 121.214 90.0012 121.161 89.892C121.108 89.7821 121.081 89.6543 121.081 89.5087C121.081 89.363 121.108 89.2346 121.161 89.1235C121.214 89.0118 121.289 88.9247 121.385 88.8624C121.481 88.7994 121.593 88.7679 121.722 88.7679C121.796 88.7679 121.869 88.7803 121.941 88.805C122.013 88.8297 122.079 88.8698 122.138 88.9253C122.198 88.9803 122.245 89.0531 122.28 89.1439C122.315 89.2346 122.333 89.3463 122.333 89.479V89.5716H121.237V89.3827H122.111C122.111 89.3025 122.095 89.2309 122.062 89.1679C122.031 89.105 121.986 89.0553 121.927 89.0189C121.869 88.9824 121.801 88.9642 121.722 88.9642C121.635 88.9642 121.559 88.9858 121.496 89.029C121.433 89.0716 121.384 89.1272 121.35 89.1957C121.316 89.2642 121.299 89.3377 121.299 89.4161V89.542C121.299 89.6494 121.318 89.7404 121.355 89.8151C121.393 89.8892 121.445 89.9457 121.512 89.9846C121.578 90.0228 121.656 90.042 121.744 90.042C121.801 90.042 121.853 90.0339 121.899 90.0179C121.946 90.0012 121.987 89.9765 122.021 89.9438C122.055 89.9105 122.081 89.8691 122.099 89.8197L122.311 89.879C122.288 89.9506 122.251 90.0136 122.199 90.0679C122.146 90.1216 122.081 90.1636 122.004 90.1938C121.927 90.2234 121.84 90.2382 121.744 90.2382ZM122.665 90.2086V88.7865H122.876V89.0087H122.895C122.924 88.9328 122.972 88.8738 123.038 88.8318C123.104 88.7892 123.184 88.7679 123.276 88.7679C123.37 88.7679 123.448 88.7892 123.511 88.8318C123.573 88.8738 123.623 88.9328 123.658 89.0087H123.673C123.709 88.9352 123.764 88.8769 123.836 88.8337C123.909 88.7899 123.997 88.7679 124.098 88.7679C124.226 88.7679 124.33 88.8078 124.41 88.8874C124.491 88.9664 124.532 89.0895 124.532 89.2568V90.2086H124.313V89.2568C124.313 89.1519 124.285 89.0769 124.227 89.0318C124.17 88.9868 124.102 88.9642 124.024 88.9642C123.924 88.9642 123.847 88.9945 123.792 89.055C123.737 89.1148 123.71 89.1908 123.71 89.2827V90.2086H123.487V89.2346C123.487 89.1537 123.461 89.0886 123.409 89.0392C123.356 88.9892 123.289 88.9642 123.206 88.9642C123.149 88.9642 123.096 88.9794 123.047 89.0096C122.998 89.0398 122.958 89.0818 122.928 89.1355C122.898 89.1886 122.884 89.25 122.884 89.3198V90.2086H122.665Z" fill="#222222"/>
<path d="M117.686 93.3367V91.9145H117.904V93.3367H117.686ZM117.797 91.6775C117.754 91.6775 117.718 91.663 117.687 91.634C117.657 91.605 117.641 91.5701 117.641 91.5293C117.641 91.4886 117.657 91.4537 117.687 91.4247C117.718 91.3957 117.754 91.3812 117.797 91.3812C117.84 91.3812 117.876 91.3957 117.906 91.4247C117.937 91.4537 117.953 91.4886 117.953 91.5293C117.953 91.5701 117.937 91.605 117.906 91.634C117.876 91.663 117.84 91.6775 117.797 91.6775ZM118.305 93.87V91.9145H118.516V92.1404H118.542C118.558 92.1157 118.58 92.0843 118.608 92.046C118.637 92.0071 118.679 91.9725 118.732 91.9423C118.787 91.9114 118.86 91.896 118.953 91.896C119.072 91.896 119.178 91.9259 119.269 91.9858C119.361 92.0457 119.432 92.1306 119.483 92.2404C119.534 92.3503 119.56 92.4799 119.56 92.6293C119.56 92.7799 119.534 92.9105 119.483 93.0209C119.432 93.1308 119.361 93.216 119.27 93.2765C119.18 93.3364 119.075 93.3663 118.956 93.3663C118.865 93.3663 118.792 93.3512 118.737 93.3209C118.682 93.2901 118.64 93.2552 118.61 93.2163C118.581 93.1768 118.558 93.1441 118.542 93.1182H118.523V93.87H118.305ZM118.519 92.6256C118.519 92.733 118.535 92.8277 118.567 92.9098C118.598 92.9913 118.644 93.0552 118.705 93.1015C118.765 93.1472 118.839 93.17 118.927 93.17C119.018 93.17 119.094 93.1459 119.155 93.0978C119.217 93.049 119.264 92.9836 119.294 92.9015C119.326 92.8188 119.342 92.7268 119.342 92.6256C119.342 92.5256 119.326 92.4355 119.295 92.3552C119.265 92.2744 119.219 92.2105 119.157 92.1636C119.096 92.116 119.019 92.0923 118.927 92.0923C118.838 92.0923 118.763 92.1148 118.703 92.1599C118.642 92.2043 118.597 92.2667 118.566 92.3469C118.535 92.4265 118.519 92.5194 118.519 92.6256ZM120.901 92.233L120.704 92.2886C120.692 92.2559 120.674 92.2241 120.65 92.1932C120.626 92.1617 120.594 92.1358 120.554 92.1154C120.513 92.0951 120.461 92.0849 120.397 92.0849C120.31 92.0849 120.238 92.1049 120.18 92.1451C120.122 92.1846 120.093 92.2349 120.093 92.296C120.093 92.3503 120.113 92.3932 120.153 92.4247C120.192 92.4562 120.254 92.4824 120.338 92.5034L120.549 92.5552C120.676 92.5861 120.771 92.6333 120.833 92.6969C120.896 92.7598 120.927 92.841 120.927 92.9404C120.927 93.0219 120.903 93.0947 120.856 93.1589C120.81 93.2231 120.745 93.2737 120.662 93.3107C120.579 93.3478 120.482 93.3663 120.371 93.3663C120.226 93.3663 120.106 93.3348 120.011 93.2719C119.916 93.2089 119.856 93.1169 119.83 92.9959L120.038 92.9441C120.058 93.0206 120.095 93.078 120.15 93.1163C120.205 93.1546 120.278 93.1737 120.367 93.1737C120.469 93.1737 120.55 93.1521 120.61 93.1089C120.671 93.0651 120.701 93.0126 120.701 92.9515C120.701 92.9021 120.684 92.8608 120.649 92.8274C120.614 92.7935 120.561 92.7682 120.49 92.7515L120.253 92.696C120.122 92.6651 120.027 92.6173 119.966 92.5524C119.905 92.487 119.875 92.4052 119.875 92.3071C119.875 92.2268 119.897 92.1559 119.942 92.0941C119.988 92.0324 120.05 91.984 120.129 91.9488C120.208 91.9136 120.297 91.896 120.397 91.896C120.538 91.896 120.648 91.9269 120.729 91.9886C120.809 92.0503 120.867 92.1318 120.901 92.233ZM122.152 92.7552V91.9145H122.37V93.3367H122.152V93.0959H122.137C122.104 93.1682 122.052 93.2296 121.982 93.2802C121.911 93.3302 121.822 93.3552 121.715 93.3552C121.626 93.3552 121.547 93.3357 121.478 93.2969C121.409 93.2574 121.354 93.1981 121.315 93.1191C121.275 93.0395 121.256 92.9392 121.256 92.8182V91.9145H121.474V92.8034C121.474 92.9071 121.503 92.9898 121.561 93.0515C121.62 93.1132 121.694 93.1441 121.785 93.1441C121.84 93.1441 121.895 93.1302 121.951 93.1024C122.008 93.0746 122.055 93.0321 122.094 92.9746C122.132 92.9172 122.152 92.8441 122.152 92.7552ZM122.771 93.3367V91.9145H122.982V92.1367H123C123.03 92.0608 123.078 92.0019 123.144 91.9599C123.21 91.9173 123.289 91.896 123.382 91.896C123.476 91.896 123.554 91.9173 123.616 91.9599C123.679 92.0019 123.728 92.0608 123.763 92.1367H123.778C123.814 92.0633 123.869 92.0049 123.942 91.9617C124.015 91.9179 124.102 91.896 124.204 91.896C124.331 91.896 124.435 91.9358 124.516 92.0154C124.597 92.0944 124.637 92.2176 124.637 92.3849V93.3367H124.419V92.3849C124.419 92.2799 124.39 92.2049 124.333 92.1599C124.275 92.1148 124.208 92.0923 124.13 92.0923C124.03 92.0923 123.952 92.1225 123.897 92.183C123.842 92.2429 123.815 92.3188 123.815 92.4108V93.3367H123.593V92.3626C123.593 92.2818 123.567 92.2167 123.514 92.1673C123.462 92.1173 123.394 92.0923 123.311 92.0923C123.255 92.0923 123.201 92.1074 123.152 92.1377C123.103 92.1679 123.064 92.2099 123.034 92.2636C123.004 92.3167 122.989 92.3781 122.989 92.4478V93.3367H122.771Z" fill="#222222"/>
<path d="M117.228 53.8596V51.9634H117.458V53.6559H118.339V53.8596H117.228ZM119.243 53.8892C119.114 53.8892 119.002 53.8587 118.905 53.7976C118.809 53.7365 118.733 53.651 118.679 53.5411C118.625 53.4312 118.598 53.3029 118.598 53.1559C118.598 53.0078 118.625 52.8785 118.679 52.768C118.733 52.6575 118.809 52.5717 118.905 52.5106C119.002 52.4495 119.114 52.4189 119.243 52.4189C119.371 52.4189 119.484 52.4495 119.58 52.5106C119.677 52.5717 119.752 52.6575 119.806 52.768C119.86 52.8785 119.887 53.0078 119.887 53.1559C119.887 53.3029 119.86 53.4312 119.806 53.5411C119.752 53.651 119.677 53.7365 119.58 53.7976C119.484 53.8587 119.371 53.8892 119.243 53.8892ZM119.243 53.693C119.34 53.693 119.421 53.668 119.484 53.618C119.547 53.568 119.593 53.5022 119.623 53.4208C119.654 53.3393 119.669 53.251 119.669 53.1559C119.669 53.0609 119.654 52.9723 119.623 52.8902C119.593 52.8081 119.547 52.7418 119.484 52.6912C119.421 52.6405 119.34 52.6152 119.243 52.6152C119.145 52.6152 119.065 52.6405 119.002 52.6912C118.939 52.7418 118.893 52.8081 118.862 52.8902C118.832 52.9723 118.817 53.0609 118.817 53.1559C118.817 53.251 118.832 53.3393 118.862 53.4208C118.893 53.5022 118.939 53.568 119.002 53.618C119.065 53.668 119.145 53.693 119.243 53.693ZM120.221 53.8596V52.4375H120.432V52.6523H120.447C120.473 52.5819 120.52 52.5248 120.587 52.481C120.655 52.4372 120.732 52.4152 120.817 52.4152C120.833 52.4152 120.853 52.4155 120.877 52.4162C120.901 52.4168 120.92 52.4177 120.932 52.4189V52.6412C120.925 52.6393 120.908 52.6365 120.881 52.6328C120.855 52.6285 120.828 52.6263 120.799 52.6263C120.729 52.6263 120.668 52.6408 120.613 52.6699C120.56 52.6983 120.517 52.7378 120.486 52.7884C120.455 52.8384 120.439 52.8955 120.439 52.9597V53.8596H120.221ZM121.744 53.8892C121.607 53.8892 121.489 53.859 121.389 53.7985C121.291 53.7374 121.214 53.6522 121.161 53.543C121.108 53.4331 121.081 53.3053 121.081 53.1597C121.081 53.014 121.108 52.8856 121.161 52.7745C121.214 52.6628 121.289 52.5757 121.385 52.5134C121.481 52.4504 121.593 52.4189 121.722 52.4189C121.796 52.4189 121.869 52.4313 121.941 52.456C122.013 52.4807 122.079 52.5208 122.138 52.5763C122.198 52.6313 122.245 52.7041 122.28 52.7949C122.315 52.8856 122.333 52.9973 122.333 53.13V53.2226H121.237V53.0337H122.111C122.111 52.9535 122.095 52.8819 122.062 52.8189C122.031 52.756 121.986 52.7063 121.927 52.6699C121.869 52.6334 121.801 52.6152 121.722 52.6152C121.635 52.6152 121.559 52.6368 121.496 52.68C121.433 52.7226 121.384 52.7782 121.35 52.8467C121.316 52.9152 121.299 52.9887 121.299 53.0671V53.193C121.299 53.3004 121.318 53.3914 121.355 53.4661C121.393 53.5402 121.445 53.5967 121.512 53.6356C121.578 53.6738 121.656 53.693 121.744 53.693C121.801 53.693 121.853 53.6849 121.899 53.6689C121.946 53.6522 121.987 53.6275 122.021 53.5948C122.055 53.5615 122.081 53.5201 122.099 53.4707L122.311 53.53C122.288 53.6016 122.251 53.6646 122.199 53.7189C122.146 53.7726 122.081 53.8146 122.004 53.8448C121.927 53.8744 121.84 53.8892 121.744 53.8892ZM122.665 53.8596V52.4375H122.876V52.6597H122.895C122.924 52.5838 122.972 52.5248 123.038 52.4828C123.104 52.4402 123.184 52.4189 123.276 52.4189C123.37 52.4189 123.448 52.4402 123.511 52.4828C123.573 52.5248 123.623 52.5838 123.658 52.6597H123.673C123.709 52.5862 123.764 52.5279 123.836 52.4847C123.909 52.4409 123.997 52.4189 124.098 52.4189C124.226 52.4189 124.33 52.4588 124.41 52.5384C124.491 52.6174 124.532 52.7405 124.532 52.9078V53.8596H124.313V52.9078C124.313 52.8029 124.285 52.7279 124.227 52.6828C124.17 52.6378 124.102 52.6152 124.024 52.6152C123.924 52.6152 123.847 52.6455 123.792 52.706C123.737 52.7658 123.71 52.8418 123.71 52.9337V53.8596H123.487V52.8856C123.487 52.8047 123.461 52.7396 123.409 52.6902C123.356 52.6402 123.289 52.6152 123.206 52.6152C123.149 52.6152 123.096 52.6304 123.047 52.6606C122.998 52.6908 122.958 52.7328 122.928 52.7865C122.898 52.8396 122.884 52.901 122.884 52.9708V53.8596H122.665Z" fill="#222222"/>
<path d="M117.686 56.9885V55.5664H117.904V56.9885H117.686ZM117.797 55.3293C117.754 55.3293 117.718 55.3148 117.687 55.2858C117.657 55.2568 117.641 55.2219 117.641 55.1812C117.641 55.1405 117.657 55.1056 117.687 55.0766C117.718 55.0476 117.754 55.0331 117.797 55.0331C117.84 55.0331 117.876 55.0476 117.906 55.0766C117.937 55.1056 117.953 55.1405 117.953 55.1812C117.953 55.2219 117.937 55.2568 117.906 55.2858C117.876 55.3148 117.84 55.3293 117.797 55.3293ZM118.305 57.5218V55.5664H118.516V55.7923H118.542C118.558 55.7676 118.58 55.7361 118.608 55.6978C118.637 55.659 118.679 55.6244 118.732 55.5941C118.787 55.5633 118.86 55.5479 118.953 55.5479C119.072 55.5479 119.178 55.5778 119.269 55.6377C119.361 55.6975 119.432 55.7824 119.483 55.8923C119.534 56.0022 119.56 56.1318 119.56 56.2812C119.56 56.4318 119.534 56.5623 119.483 56.6728C119.432 56.7827 119.361 56.8679 119.27 56.9283C119.18 56.9882 119.075 57.0182 118.956 57.0182C118.865 57.0182 118.792 57.003 118.737 56.9728C118.682 56.9419 118.64 56.907 118.61 56.8682C118.581 56.8287 118.558 56.7959 118.542 56.77H118.523V57.5218H118.305ZM118.519 56.2774C118.519 56.3848 118.535 56.4796 118.567 56.5617C118.598 56.6432 118.644 56.7071 118.705 56.7534C118.765 56.799 118.839 56.8219 118.927 56.8219C119.018 56.8219 119.094 56.7978 119.155 56.7496C119.217 56.7009 119.264 56.6355 119.294 56.5534C119.326 56.4706 119.342 56.3787 119.342 56.2774C119.342 56.1775 119.326 56.0873 119.295 56.0071C119.265 55.9262 119.219 55.8623 119.157 55.8154C119.096 55.7679 119.019 55.7441 118.927 55.7441C118.838 55.7441 118.763 55.7667 118.703 55.8117C118.642 55.8562 118.597 55.9185 118.566 55.9988C118.535 56.0784 118.519 56.1713 118.519 56.2774ZM120.901 55.8849L120.704 55.9404C120.692 55.9077 120.674 55.8759 120.65 55.8451C120.626 55.8136 120.594 55.7877 120.554 55.7673C120.513 55.7469 120.461 55.7367 120.397 55.7367C120.31 55.7367 120.238 55.7568 120.18 55.7969C120.122 55.8364 120.093 55.8867 120.093 55.9478C120.093 56.0022 120.113 56.0451 120.153 56.0765C120.192 56.108 120.254 56.1342 120.338 56.1552L120.549 56.2071C120.676 56.2379 120.771 56.2852 120.833 56.3487C120.896 56.4117 120.927 56.4929 120.927 56.5922C120.927 56.6737 120.903 56.7466 120.856 56.8108C120.81 56.875 120.745 56.9256 120.662 56.9626C120.579 56.9996 120.482 57.0182 120.371 57.0182C120.226 57.0182 120.106 56.9867 120.011 56.9237C119.916 56.8608 119.856 56.7688 119.83 56.6478L120.038 56.596C120.058 56.6725 120.095 56.7299 120.15 56.7682C120.205 56.8064 120.278 56.8256 120.367 56.8256C120.469 56.8256 120.55 56.804 120.61 56.7608C120.671 56.7169 120.701 56.6645 120.701 56.6034C120.701 56.554 120.684 56.5126 120.649 56.4793C120.614 56.4453 120.561 56.42 120.49 56.4034L120.253 56.3478C120.122 56.317 120.027 56.2691 119.966 56.2043C119.905 56.1389 119.875 56.0571 119.875 55.9589C119.875 55.8787 119.897 55.8077 119.942 55.746C119.988 55.6843 120.05 55.6358 120.129 55.6006C120.208 55.5654 120.297 55.5479 120.397 55.5479C120.538 55.5479 120.648 55.5787 120.729 55.6404C120.809 55.7022 120.867 55.7836 120.901 55.8849ZM122.152 56.4071V55.5664H122.37V56.9885H122.152V56.7478H122.137C122.104 56.82 122.052 56.8814 121.982 56.932C121.911 56.982 121.822 57.007 121.715 57.007C121.626 57.007 121.547 56.9876 121.478 56.9487C121.409 56.9092 121.354 56.85 121.315 56.7709C121.275 56.6913 121.256 56.591 121.256 56.47V55.5664H121.474V56.4552C121.474 56.5589 121.503 56.6416 121.561 56.7034C121.62 56.7651 121.694 56.7959 121.785 56.7959C121.84 56.7959 121.895 56.7821 121.951 56.7543C122.008 56.7265 122.055 56.6839 122.094 56.6265C122.132 56.5691 122.152 56.496 122.152 56.4071ZM122.771 56.9885V55.5664H122.982V55.7886H123C123.03 55.7127 123.078 55.6537 123.144 55.6117C123.21 55.5691 123.289 55.5479 123.382 55.5479C123.476 55.5479 123.554 55.5691 123.616 55.6117C123.679 55.6537 123.728 55.7127 123.763 55.7886H123.778C123.814 55.7151 123.869 55.6568 123.942 55.6136C124.015 55.5698 124.102 55.5479 124.204 55.5479C124.331 55.5479 124.435 55.5877 124.516 55.6673C124.597 55.7463 124.637 55.8694 124.637 56.0367V56.9885H124.419V56.0367C124.419 55.9318 124.39 55.8568 124.333 55.8117C124.275 55.7667 124.208 55.7441 124.13 55.7441C124.03 55.7441 123.952 55.7744 123.897 55.8349C123.842 55.8947 123.815 55.9707 123.815 56.0626V56.9885H123.593V56.0145C123.593 55.9336 123.567 55.8685 123.514 55.8191C123.462 55.7691 123.394 55.7441 123.311 55.7441C123.255 55.7441 123.201 55.7593 123.152 55.7895C123.103 55.8198 123.064 55.8617 123.034 55.9154C123.004 55.9685 122.989 56.0299 122.989 56.0997V56.9885H122.771Z" fill="#222222"/>
<path d="M35.9591 90.2086V88.3124H36.1887V90.0049H37.0701V90.2086H35.9591ZM37.9738 90.2382C37.8454 90.2382 37.7327 90.2077 37.6358 90.1466C37.5395 90.0855 37.4642 90 37.4099 89.8901C37.3562 89.7802 37.3294 89.6519 37.3294 89.5049C37.3294 89.3568 37.3562 89.2275 37.4099 89.117C37.4642 89.0065 37.5395 88.9207 37.6358 88.8596C37.7327 88.7985 37.8454 88.7679 37.9738 88.7679C38.1022 88.7679 38.2145 88.7985 38.3108 88.8596C38.4077 88.9207 38.483 89.0065 38.5367 89.117C38.591 89.2275 38.6182 89.3568 38.6182 89.5049C38.6182 89.6519 38.591 89.7802 38.5367 89.8901C38.483 90 38.4077 90.0855 38.3108 90.1466C38.2145 90.2077 38.1022 90.2382 37.9738 90.2382ZM37.9738 90.042C38.0713 90.042 38.1515 90.017 38.2145 89.967C38.2775 89.917 38.3241 89.8512 38.3543 89.7697C38.3846 89.6883 38.3997 89.6 38.3997 89.5049C38.3997 89.4099 38.3846 89.3213 38.3543 89.2392C38.3241 89.1571 38.2775 89.0908 38.2145 89.0402C38.1515 88.9895 38.0713 88.9642 37.9738 88.9642C37.8763 88.9642 37.796 88.9895 37.7331 89.0402C37.6701 89.0908 37.6235 89.1571 37.5932 89.2392C37.563 89.3213 37.5479 89.4099 37.5479 89.5049C37.5479 89.6 37.563 89.6883 37.5932 89.7697C37.6235 89.8512 37.6701 89.917 37.7331 89.967C37.796 90.017 37.8763 90.042 37.9738 90.042ZM38.9517 90.2086V88.7865H39.1628V89.0013H39.1777C39.2036 88.9309 39.2505 88.8738 39.3184 88.83C39.3863 88.7862 39.4628 88.7642 39.548 88.7642C39.5641 88.7642 39.5841 88.7645 39.6082 88.7652C39.6323 88.7658 39.6505 88.7667 39.6628 88.7679V88.9902C39.6554 88.9883 39.6384 88.9855 39.6119 88.9818C39.586 88.9775 39.5585 88.9753 39.5295 88.9753C39.4604 88.9753 39.3986 88.9898 39.3443 89.0189C39.2906 89.0473 39.248 89.0868 39.2165 89.1374C39.1857 89.1874 39.1703 89.2445 39.1703 89.3087V90.2086H38.9517ZM40.4748 90.2382C40.3378 90.2382 40.2196 90.208 40.1202 90.1475C40.0214 90.0864 39.9452 90.0012 39.8915 89.892C39.8384 89.7821 39.8119 89.6543 39.8119 89.5087C39.8119 89.363 39.8384 89.2346 39.8915 89.1235C39.9452 89.0118 40.0199 88.9247 40.1156 88.8624C40.2119 88.7994 40.3242 88.7679 40.4526 88.7679C40.5267 88.7679 40.5998 88.7803 40.672 88.805C40.7443 88.8297 40.81 88.8698 40.8692 88.9253C40.9285 88.9803 40.9757 89.0531 41.0109 89.1439C41.0461 89.2346 41.0637 89.3463 41.0637 89.479V89.5716H39.9674V89.3827H40.8415C40.8415 89.3025 40.8254 89.2309 40.7933 89.1679C40.7618 89.105 40.7168 89.0553 40.6581 89.0189C40.6001 88.9824 40.5316 88.9642 40.4526 88.9642C40.3656 88.9642 40.2903 88.9858 40.2267 89.029C40.1637 89.0716 40.1153 89.1272 40.0813 89.1957C40.0474 89.2642 40.0304 89.3377 40.0304 89.4161V89.542C40.0304 89.6494 40.0489 89.7404 40.086 89.8151C40.1236 89.8892 40.1758 89.9457 40.2424 89.9846C40.3091 90.0228 40.3866 90.042 40.4748 90.042C40.5322 90.042 40.5841 90.0339 40.6304 90.0179C40.6773 90.0012 40.7177 89.9765 40.7517 89.9438C40.7856 89.9105 40.8118 89.8691 40.8304 89.8197L41.0415 89.879C41.0192 89.9506 40.9819 90.0136 40.9294 90.0679C40.877 90.1216 40.8122 90.1636 40.735 90.1938C40.6578 90.2234 40.5711 90.2382 40.4748 90.2382ZM41.3961 90.2086V88.7865H41.6072V89.0087H41.6257C41.6553 88.9328 41.7032 88.8738 41.7692 88.8318C41.8353 88.7892 41.9146 88.7679 42.0072 88.7679C42.101 88.7679 42.1791 88.7892 42.2414 88.8318C42.3044 88.8738 42.3534 88.9328 42.3886 89.0087H42.4034C42.4399 88.9352 42.4945 88.8769 42.5673 88.8337C42.6402 88.7899 42.7275 88.7679 42.8293 88.7679C42.9565 88.7679 43.0605 88.8078 43.1414 88.8874C43.2222 88.9664 43.2627 89.0895 43.2627 89.2568V90.2086H43.0441V89.2568C43.0441 89.1519 43.0154 89.0769 42.958 89.0318C42.9006 88.9868 42.833 88.9642 42.7553 88.9642C42.6553 88.9642 42.5778 88.9945 42.5229 89.055C42.4679 89.1148 42.4405 89.1908 42.4405 89.2827V90.2086H42.2183V89.2346C42.2183 89.1537 42.192 89.0886 42.1396 89.0392C42.0871 88.9892 42.0195 88.9642 41.9368 88.9642C41.88 88.9642 41.8269 88.9794 41.7775 89.0096C41.7288 89.0398 41.6893 89.0818 41.659 89.1355C41.6294 89.1886 41.6146 89.25 41.6146 89.3198V90.2086H41.3961Z" fill="#222222"/>
<path d="M36.4168 93.3367V91.9145H36.6354V93.3367H36.4168ZM36.528 91.6775C36.4854 91.6775 36.4486 91.663 36.4178 91.634C36.3875 91.605 36.3724 91.5701 36.3724 91.5293C36.3724 91.4886 36.3875 91.4537 36.4178 91.4247C36.4486 91.3957 36.4854 91.3812 36.528 91.3812C36.5705 91.3812 36.607 91.3957 36.6372 91.4247C36.6681 91.4537 36.6835 91.4886 36.6835 91.5293C36.6835 91.5701 36.6681 91.605 36.6372 91.634C36.607 91.663 36.5705 91.6775 36.528 91.6775ZM37.0356 93.87V91.9145H37.2467V92.1404H37.2726C37.2886 92.1157 37.3109 92.0843 37.3393 92.046C37.3683 92.0071 37.4096 91.9725 37.4633 91.9423C37.5176 91.9114 37.5911 91.896 37.6837 91.896C37.8034 91.896 37.909 91.9259 38.0003 91.9858C38.0917 92.0457 38.163 92.1306 38.2142 92.2404C38.2655 92.3503 38.2911 92.4799 38.2911 92.6293C38.2911 92.7799 38.2655 92.9105 38.2142 93.0209C38.163 93.1308 38.092 93.216 38.0013 93.2765C37.9105 93.3364 37.8059 93.3663 37.6874 93.3663C37.596 93.3663 37.5229 93.3512 37.468 93.3209C37.413 93.2901 37.3707 93.2552 37.3411 93.2163C37.3115 93.1768 37.2886 93.1441 37.2726 93.1182H37.2541V93.87H37.0356ZM37.2504 92.6256C37.2504 92.733 37.2661 92.8277 37.2976 92.9098C37.3291 92.9913 37.3751 93.0552 37.4356 93.1015C37.496 93.1472 37.5701 93.17 37.6578 93.17C37.7491 93.17 37.8253 93.1459 37.8865 93.0978C37.9482 93.049 37.9945 92.9836 38.0253 92.9015C38.0568 92.8188 38.0726 92.7268 38.0726 92.6256C38.0726 92.5256 38.0571 92.4355 38.0263 92.3552C37.996 92.2744 37.95 92.2105 37.8883 92.1636C37.8272 92.116 37.7504 92.0923 37.6578 92.0923C37.5689 92.0923 37.4942 92.1148 37.4337 92.1599C37.3732 92.2043 37.3275 92.2667 37.2967 92.3469C37.2658 92.4265 37.2504 92.5194 37.2504 92.6256ZM39.6317 92.233L39.4355 92.2886C39.4231 92.2559 39.4049 92.2241 39.3808 92.1932C39.3574 92.1617 39.3253 92.1358 39.2845 92.1154C39.2438 92.0951 39.1916 92.0849 39.1281 92.0849C39.041 92.0849 38.9685 92.1049 38.9105 92.1451C38.8531 92.1846 38.8244 92.2349 38.8244 92.296C38.8244 92.3503 38.8441 92.3932 38.8836 92.4247C38.9231 92.4562 38.9849 92.4824 39.0688 92.5034L39.2799 92.5552C39.4071 92.5861 39.5018 92.6333 39.5642 92.6969C39.6265 92.7598 39.6577 92.841 39.6577 92.9404C39.6577 93.0219 39.6342 93.0947 39.5873 93.1589C39.541 93.2231 39.4762 93.2737 39.3929 93.3107C39.3095 93.3478 39.2126 93.3663 39.1021 93.3663C38.9571 93.3663 38.837 93.3348 38.742 93.2719C38.6469 93.2089 38.5867 93.1169 38.5614 92.9959L38.7688 92.9441C38.7886 93.0206 38.8259 93.078 38.8809 93.1163C38.9364 93.1546 39.0089 93.1737 39.0984 93.1737C39.2003 93.1737 39.2811 93.1521 39.341 93.1089C39.4015 93.0651 39.4318 93.0126 39.4318 92.9515C39.4318 92.9021 39.4145 92.8608 39.3799 92.8274C39.3453 92.7935 39.2923 92.7682 39.2207 92.7515L38.9836 92.696C38.8534 92.6651 38.7577 92.6173 38.6966 92.5524C38.6361 92.487 38.6059 92.4052 38.6059 92.3071C38.6059 92.2268 38.6284 92.1559 38.6735 92.0941C38.7191 92.0324 38.7812 91.984 38.8596 91.9488C38.9386 91.9136 39.0281 91.896 39.1281 91.896C39.2688 91.896 39.3793 91.9269 39.4595 91.9886C39.5404 92.0503 39.5978 92.1318 39.6317 92.233ZM40.8828 92.7552V91.9145H41.1014V93.3367H40.8828V93.0959H40.868C40.8347 93.1682 40.7829 93.2296 40.7125 93.2802C40.6421 93.3302 40.5532 93.3552 40.4458 93.3552C40.3569 93.3552 40.2779 93.3357 40.2088 93.2969C40.1397 93.2574 40.0854 93.1981 40.0458 93.1191C40.0063 93.0395 39.9866 92.9392 39.9866 92.8182V91.9145H40.2051V92.8034C40.2051 92.9071 40.2341 92.9898 40.2921 93.0515C40.3508 93.1132 40.4255 93.1441 40.5162 93.1441C40.5705 93.1441 40.6258 93.1302 40.6819 93.1024C40.7387 93.0746 40.7862 93.0321 40.8245 92.9746C40.8634 92.9172 40.8828 92.8441 40.8828 92.7552ZM41.5016 93.3367V91.9145H41.7127V92.1367H41.7312C41.7608 92.0608 41.8087 92.0019 41.8747 91.9599C41.9407 91.9173 42.0201 91.896 42.1127 91.896C42.2065 91.896 42.2846 91.9173 42.3469 91.9599C42.4099 92.0019 42.4589 92.0608 42.4941 92.1367H42.5089C42.5453 92.0633 42.6 92.0049 42.6728 91.9617C42.7456 91.9179 42.833 91.896 42.9348 91.896C43.062 91.896 43.166 91.9358 43.2469 92.0154C43.3277 92.0944 43.3682 92.2176 43.3682 92.3849V93.3367H43.1496V92.3849C43.1496 92.2799 43.1209 92.2049 43.0635 92.1599C43.0061 92.1148 42.9385 92.0923 42.8608 92.0923C42.7608 92.0923 42.6833 92.1225 42.6284 92.183C42.5734 92.2429 42.546 92.3188 42.546 92.4108V93.3367H42.3238V92.3626C42.3238 92.2818 42.2975 92.2167 42.2451 92.1673C42.1926 92.1173 42.125 92.0923 42.0423 92.0923C41.9855 92.0923 41.9324 92.1074 41.883 92.1377C41.8343 92.1679 41.7948 92.2099 41.7645 92.2636C41.7349 92.3167 41.7201 92.3781 41.7201 92.4478V93.3367H41.5016Z" fill="#222222"/>
<path d="M35.9591 53.8596V51.9634H36.1887V53.6559H37.0701V53.8596H35.9591ZM37.9738 53.8892C37.8454 53.8892 37.7327 53.8587 37.6358 53.7976C37.5395 53.7365 37.4642 53.651 37.4099 53.5411C37.3562 53.4312 37.3294 53.3029 37.3294 53.1559C37.3294 53.0078 37.3562 52.8785 37.4099 52.768C37.4642 52.6575 37.5395 52.5717 37.6358 52.5106C37.7327 52.4495 37.8454 52.4189 37.9738 52.4189C38.1022 52.4189 38.2145 52.4495 38.3108 52.5106C38.4077 52.5717 38.483 52.6575 38.5367 52.768C38.591 52.8785 38.6182 53.0078 38.6182 53.1559C38.6182 53.3029 38.591 53.4312 38.5367 53.5411C38.483 53.651 38.4077 53.7365 38.3108 53.7976C38.2145 53.8587 38.1022 53.8892 37.9738 53.8892ZM37.9738 53.693C38.0713 53.693 38.1515 53.668 38.2145 53.618C38.2775 53.568 38.3241 53.5022 38.3543 53.4208C38.3846 53.3393 38.3997 53.251 38.3997 53.1559C38.3997 53.0609 38.3846 52.9723 38.3543 52.8902C38.3241 52.8081 38.2775 52.7418 38.2145 52.6912C38.1515 52.6405 38.0713 52.6152 37.9738 52.6152C37.8763 52.6152 37.796 52.6405 37.7331 52.6912C37.6701 52.7418 37.6235 52.8081 37.5932 52.8902C37.563 52.9723 37.5479 53.0609 37.5479 53.1559C37.5479 53.251 37.563 53.3393 37.5932 53.4208C37.6235 53.5022 37.6701 53.568 37.7331 53.618C37.796 53.668 37.8763 53.693 37.9738 53.693ZM38.9517 53.8596V52.4375H39.1628V52.6523H39.1777C39.2036 52.5819 39.2505 52.5248 39.3184 52.481C39.3863 52.4372 39.4628 52.4152 39.548 52.4152C39.5641 52.4152 39.5841 52.4155 39.6082 52.4162C39.6323 52.4168 39.6505 52.4177 39.6628 52.4189V52.6412C39.6554 52.6393 39.6384 52.6365 39.6119 52.6328C39.586 52.6285 39.5585 52.6263 39.5295 52.6263C39.4604 52.6263 39.3986 52.6408 39.3443 52.6699C39.2906 52.6983 39.248 52.7378 39.2165 52.7884C39.1857 52.8384 39.1703 52.8955 39.1703 52.9597V53.8596H38.9517ZM40.4748 53.8892C40.3378 53.8892 40.2196 53.859 40.1202 53.7985C40.0214 53.7374 39.9452 53.6522 39.8915 53.543C39.8384 53.4331 39.8119 53.3053 39.8119 53.1597C39.8119 53.014 39.8384 52.8856 39.8915 52.7745C39.9452 52.6628 40.0199 52.5757 40.1156 52.5134C40.2119 52.4504 40.3242 52.4189 40.4526 52.4189C40.5267 52.4189 40.5998 52.4313 40.672 52.456C40.7443 52.4807 40.81 52.5208 40.8692 52.5763C40.9285 52.6313 40.9757 52.7041 41.0109 52.7949C41.0461 52.8856 41.0637 52.9973 41.0637 53.13V53.2226H39.9674V53.0337H40.8415C40.8415 52.9535 40.8254 52.8819 40.7933 52.8189C40.7618 52.756 40.7168 52.7063 40.6581 52.6699C40.6001 52.6334 40.5316 52.6152 40.4526 52.6152C40.3656 52.6152 40.2903 52.6368 40.2267 52.68C40.1637 52.7226 40.1153 52.7782 40.0813 52.8467C40.0474 52.9152 40.0304 52.9887 40.0304 53.0671V53.193C40.0304 53.3004 40.0489 53.3914 40.086 53.4661C40.1236 53.5402 40.1758 53.5967 40.2424 53.6356C40.3091 53.6738 40.3866 53.693 40.4748 53.693C40.5322 53.693 40.5841 53.6849 40.6304 53.6689C40.6773 53.6522 40.7177 53.6275 40.7517 53.5948C40.7856 53.5615 40.8118 53.5201 40.8304 53.4707L41.0415 53.53C41.0192 53.6016 40.9819 53.6646 40.9294 53.7189C40.877 53.7726 40.8122 53.8146 40.735 53.8448C40.6578 53.8744 40.5711 53.8892 40.4748 53.8892ZM41.3961 53.8596V52.4375H41.6072V52.6597H41.6257C41.6553 52.5838 41.7032 52.5248 41.7692 52.4828C41.8353 52.4402 41.9146 52.4189 42.0072 52.4189C42.101 52.4189 42.1791 52.4402 42.2414 52.4828C42.3044 52.5248 42.3534 52.5838 42.3886 52.6597H42.4034C42.4399 52.5862 42.4945 52.5279 42.5673 52.4847C42.6402 52.4409 42.7275 52.4189 42.8293 52.4189C42.9565 52.4189 43.0605 52.4588 43.1414 52.5384C43.2222 52.6174 43.2627 52.7405 43.2627 52.9078V53.8596H43.0441V52.9078C43.0441 52.8029 43.0154 52.7279 42.958 52.6828C42.9006 52.6378 42.833 52.6152 42.7553 52.6152C42.6553 52.6152 42.5778 52.6455 42.5229 52.706C42.4679 52.7658 42.4405 52.8418 42.4405 52.9337V53.8596H42.2183V52.8856C42.2183 52.8047 42.192 52.7396 42.1396 52.6902C42.0871 52.6402 42.0195 52.6152 41.9368 52.6152C41.88 52.6152 41.8269 52.6304 41.7775 52.6606C41.7288 52.6908 41.6893 52.7328 41.659 52.7865C41.6294 52.8396 41.6146 52.901 41.6146 52.9708V53.8596H41.3961Z" fill="#222222"/>
<path d="M36.4168 56.9885V55.5664H36.6354V56.9885H36.4168ZM36.528 55.3293C36.4854 55.3293 36.4486 55.3148 36.4178 55.2858C36.3875 55.2568 36.3724 55.2219 36.3724 55.1812C36.3724 55.1405 36.3875 55.1056 36.4178 55.0766C36.4486 55.0476 36.4854 55.0331 36.528 55.0331C36.5705 55.0331 36.607 55.0476 36.6372 55.0766C36.6681 55.1056 36.6835 55.1405 36.6835 55.1812C36.6835 55.2219 36.6681 55.2568 36.6372 55.2858C36.607 55.3148 36.5705 55.3293 36.528 55.3293ZM37.0356 57.5218V55.5664H37.2467V55.7923H37.2726C37.2886 55.7676 37.3109 55.7361 37.3393 55.6978C37.3683 55.659 37.4096 55.6244 37.4633 55.5941C37.5176 55.5633 37.5911 55.5479 37.6837 55.5479C37.8034 55.5479 37.909 55.5778 38.0003 55.6377C38.0917 55.6975 38.163 55.7824 38.2142 55.8923C38.2655 56.0022 38.2911 56.1318 38.2911 56.2812C38.2911 56.4318 38.2655 56.5623 38.2142 56.6728C38.163 56.7827 38.092 56.8679 38.0013 56.9283C37.9105 56.9882 37.8059 57.0182 37.6874 57.0182C37.596 57.0182 37.5229 57.003 37.468 56.9728C37.413 56.9419 37.3707 56.907 37.3411 56.8682C37.3115 56.8287 37.2886 56.7959 37.2726 56.77H37.2541V57.5218H37.0356ZM37.2504 56.2774C37.2504 56.3848 37.2661 56.4796 37.2976 56.5617C37.3291 56.6432 37.3751 56.7071 37.4356 56.7534C37.496 56.799 37.5701 56.8219 37.6578 56.8219C37.7491 56.8219 37.8253 56.7978 37.8865 56.7496C37.9482 56.7009 37.9945 56.6355 38.0253 56.5534C38.0568 56.4706 38.0726 56.3787 38.0726 56.2774C38.0726 56.1775 38.0571 56.0873 38.0263 56.0071C37.996 55.9262 37.95 55.8623 37.8883 55.8154C37.8272 55.7679 37.7504 55.7441 37.6578 55.7441C37.5689 55.7441 37.4942 55.7667 37.4337 55.8117C37.3732 55.8562 37.3275 55.9185 37.2967 55.9988C37.2658 56.0784 37.2504 56.1713 37.2504 56.2774ZM39.6317 55.8849L39.4355 55.9404C39.4231 55.9077 39.4049 55.8759 39.3808 55.8451C39.3574 55.8136 39.3253 55.7877 39.2845 55.7673C39.2438 55.7469 39.1916 55.7367 39.1281 55.7367C39.041 55.7367 38.9685 55.7568 38.9105 55.7969C38.8531 55.8364 38.8244 55.8867 38.8244 55.9478C38.8244 56.0022 38.8441 56.0451 38.8836 56.0765C38.9231 56.108 38.9849 56.1342 39.0688 56.1552L39.2799 56.2071C39.4071 56.2379 39.5018 56.2852 39.5642 56.3487C39.6265 56.4117 39.6577 56.4929 39.6577 56.5922C39.6577 56.6737 39.6342 56.7466 39.5873 56.8108C39.541 56.875 39.4762 56.9256 39.3929 56.9626C39.3095 56.9996 39.2126 57.0182 39.1021 57.0182C38.9571 57.0182 38.837 56.9867 38.742 56.9237C38.6469 56.8608 38.5867 56.7688 38.5614 56.6478L38.7688 56.596C38.7886 56.6725 38.8259 56.7299 38.8809 56.7682C38.9364 56.8064 39.0089 56.8256 39.0984 56.8256C39.2003 56.8256 39.2811 56.804 39.341 56.7608C39.4015 56.7169 39.4318 56.6645 39.4318 56.6034C39.4318 56.554 39.4145 56.5126 39.3799 56.4793C39.3453 56.4453 39.2923 56.42 39.2207 56.4034L38.9836 56.3478C38.8534 56.317 38.7577 56.2691 38.6966 56.2043C38.6361 56.1389 38.6059 56.0571 38.6059 55.9589C38.6059 55.8787 38.6284 55.8077 38.6735 55.746C38.7191 55.6843 38.7812 55.6358 38.8596 55.6006C38.9386 55.5654 39.0281 55.5479 39.1281 55.5479C39.2688 55.5479 39.3793 55.5787 39.4595 55.6404C39.5404 55.7022 39.5978 55.7836 39.6317 55.8849ZM40.8828 56.4071V55.5664H41.1014V56.9885H40.8828V56.7478H40.868C40.8347 56.82 40.7829 56.8814 40.7125 56.932C40.6421 56.982 40.5532 57.007 40.4458 57.007C40.3569 57.007 40.2779 56.9876 40.2088 56.9487C40.1397 56.9092 40.0854 56.85 40.0458 56.7709C40.0063 56.6913 39.9866 56.591 39.9866 56.47V55.5664H40.2051V56.4552C40.2051 56.5589 40.2341 56.6416 40.2921 56.7034C40.3508 56.7651 40.4255 56.7959 40.5162 56.7959C40.5705 56.7959 40.6258 56.7821 40.6819 56.7543C40.7387 56.7265 40.7862 56.6839 40.8245 56.6265C40.8634 56.5691 40.8828 56.496 40.8828 56.4071ZM41.5016 56.9885V55.5664H41.7127V55.7886H41.7312C41.7608 55.7127 41.8087 55.6537 41.8747 55.6117C41.9407 55.5691 42.0201 55.5479 42.1127 55.5479C42.2065 55.5479 42.2846 55.5691 42.3469 55.6117C42.4099 55.6537 42.4589 55.7127 42.4941 55.7886H42.5089C42.5453 55.7151 42.6 55.6568 42.6728 55.6136C42.7456 55.5698 42.833 55.5479 42.9348 55.5479C43.062 55.5479 43.166 55.5877 43.2469 55.6673C43.3277 55.7463 43.3682 55.8694 43.3682 56.0367V56.9885H43.1496V56.0367C43.1496 55.9318 43.1209 55.8568 43.0635 55.8117C43.0061 55.7667 42.9385 55.7441 42.8608 55.7441C42.7608 55.7441 42.6833 55.7744 42.6284 55.8349C42.5734 55.8947 42.546 55.9707 42.546 56.0626V56.9885H42.3238V56.0145C42.3238 55.9336 42.2975 55.8685 42.2451 55.8191C42.1926 55.7691 42.125 55.7441 42.0423 55.7441C41.9855 55.7441 41.9324 55.7593 41.883 55.7895C41.8343 55.8198 41.7948 55.8617 41.7645 55.9154C41.7349 55.9685 41.7201 56.0299 41.7201 56.0997V56.9885H41.5016Z" fill="#222222"/>
<path d="M76.6704 28.8492V26.953H76.9001V28.6455H77.7815V28.8492H76.6704ZM78.6852 28.8789C78.5568 28.8789 78.4441 28.8483 78.3472 28.7872C78.2509 28.7261 78.1756 28.6406 78.1213 28.5307C78.0676 28.4209 78.0408 28.2925 78.0408 28.1456C78.0408 27.9974 78.0676 27.8681 78.1213 27.7576C78.1756 27.6471 78.2509 27.5613 78.3472 27.5002C78.4441 27.4391 78.5568 27.4086 78.6852 27.4086C78.8136 27.4086 78.9259 27.4391 79.0222 27.5002C79.1191 27.5613 79.1944 27.6471 79.2481 27.7576C79.3024 27.8681 79.3296 27.9974 79.3296 28.1456C79.3296 28.2925 79.3024 28.4209 79.2481 28.5307C79.1944 28.6406 79.1191 28.7261 79.0222 28.7872C78.9259 28.8483 78.8136 28.8789 78.6852 28.8789ZM78.6852 28.6826C78.7827 28.6826 78.8629 28.6576 78.9259 28.6076C78.9889 28.5576 79.0355 28.4919 79.0657 28.4104C79.096 28.3289 79.1111 28.2406 79.1111 28.1456C79.1111 28.0505 79.096 27.9619 79.0657 27.8798C79.0355 27.7977 78.9889 27.7314 78.9259 27.6808C78.8629 27.6302 78.7827 27.6049 78.6852 27.6049C78.5876 27.6049 78.5074 27.6302 78.4444 27.6808C78.3815 27.7314 78.3349 27.7977 78.3046 27.8798C78.2744 27.9619 78.2593 28.0505 78.2593 28.1456C78.2593 28.2406 78.2744 28.3289 78.3046 28.4104C78.3349 28.4919 78.3815 28.5576 78.4444 28.6076C78.5074 28.6576 78.5876 28.6826 78.6852 28.6826ZM79.6631 28.8492V27.4271H79.8742V27.6419H79.889C79.915 27.5715 79.9619 27.5144 80.0298 27.4706C80.0977 27.4268 80.1742 27.4049 80.2594 27.4049C80.2754 27.4049 80.2955 27.4052 80.3196 27.4058C80.3437 27.4064 80.3619 27.4073 80.3742 27.4086V27.6308C80.3668 27.6289 80.3498 27.6262 80.3233 27.6224C80.2974 27.6181 80.2699 27.616 80.2409 27.616C80.1718 27.616 80.11 27.6305 80.0557 27.6595C80.002 27.6879 79.9594 27.7274 79.9279 27.778C79.8971 27.828 79.8816 27.8851 79.8816 27.9493V28.8492H79.6631ZM81.1862 28.8789C81.0492 28.8789 80.931 28.8486 80.8316 28.7881C80.7328 28.727 80.6566 28.6418 80.6029 28.5326C80.5498 28.4227 80.5233 28.2949 80.5233 28.1493C80.5233 28.0036 80.5498 27.8752 80.6029 27.7641C80.6566 27.6524 80.7313 27.5654 80.827 27.503C80.9233 27.44 81.0356 27.4086 81.164 27.4086C81.2381 27.4086 81.3112 27.4209 81.3834 27.4456C81.4556 27.4703 81.5214 27.5104 81.5806 27.566C81.6399 27.6209 81.6871 27.6937 81.7223 27.7845C81.7575 27.8752 81.7751 27.9869 81.7751 28.1196V28.2122H80.6788V28.0234H81.5529C81.5529 27.9431 81.5368 27.8715 81.5047 27.8086C81.4732 27.7456 81.4282 27.6959 81.3695 27.6595C81.3115 27.6231 81.243 27.6049 81.164 27.6049C81.077 27.6049 81.0017 27.6265 80.9381 27.6697C80.8751 27.7123 80.8267 27.7678 80.7927 27.8363C80.7588 27.9048 80.7418 27.9783 80.7418 28.0567V28.1826C80.7418 28.29 80.7603 28.3811 80.7973 28.4557C80.835 28.5298 80.8872 28.5863 80.9538 28.6252C81.0205 28.6634 81.0979 28.6826 81.1862 28.6826C81.2436 28.6826 81.2955 28.6746 81.3418 28.6585C81.3887 28.6418 81.4291 28.6172 81.463 28.5844C81.497 28.5511 81.5232 28.5098 81.5418 28.4604L81.7529 28.5196C81.7306 28.5912 81.6933 28.6542 81.6408 28.7085C81.5884 28.7622 81.5235 28.8042 81.4464 28.8344C81.3692 28.8641 81.2825 28.8789 81.1862 28.8789ZM82.1075 28.8492V27.4271H82.3186V27.6493H82.3371C82.3667 27.5734 82.4145 27.5144 82.4806 27.4725C82.5466 27.4299 82.626 27.4086 82.7185 27.4086C82.8124 27.4086 82.8905 27.4299 82.9528 27.4725C83.0158 27.5144 83.0648 27.5734 83.1 27.6493H83.1148C83.1512 27.5758 83.2059 27.5175 83.2787 27.4743C83.3515 27.4305 83.4389 27.4086 83.5407 27.4086C83.6679 27.4086 83.7719 27.4484 83.8528 27.528C83.9336 27.607 83.974 27.7302 83.974 27.8974V28.8492H83.7555V27.8974C83.7555 27.7925 83.7268 27.7175 83.6694 27.6724C83.612 27.6274 83.5444 27.6049 83.4667 27.6049C83.3667 27.6049 83.2892 27.6351 83.2343 27.6956C83.1793 27.7555 83.1519 27.8314 83.1519 27.9234V28.8492H82.9296V27.8752C82.9296 27.7944 82.9034 27.7292 82.8509 27.6799C82.7985 27.6299 82.7309 27.6049 82.6482 27.6049C82.5914 27.6049 82.5383 27.62 82.4889 27.6502C82.4402 27.6805 82.4007 27.7224 82.3704 27.7761C82.3408 27.8292 82.326 27.8906 82.326 27.9604V28.8492H82.1075Z" fill="#222222"/>
<path d="M77.1282 31.9783V30.5561H77.3467V31.9783H77.1282ZM77.2393 30.3191C77.1967 30.3191 77.16 30.3046 77.1291 30.2756C77.0989 30.2466 77.0838 30.2117 77.0838 30.1709C77.0838 30.1302 77.0989 30.0953 77.1291 30.0663C77.16 30.0373 77.1967 30.0228 77.2393 30.0228C77.2819 30.0228 77.3183 30.0373 77.3486 30.0663C77.3794 30.0953 77.3949 30.1302 77.3949 30.1709C77.3949 30.2117 77.3794 30.2466 77.3486 30.2756C77.3183 30.3046 77.2819 30.3191 77.2393 30.3191ZM77.7469 32.5116V30.5561H77.958V30.782H77.9839C78 30.7573 78.0222 30.7259 78.0506 30.6876C78.0796 30.6487 78.121 30.6141 78.1747 30.5839C78.229 30.553 78.3025 30.5376 78.395 30.5376C78.5148 30.5376 78.6203 30.5675 78.7117 30.6274C78.803 30.6873 78.8743 30.7722 78.9256 30.882C78.9768 30.9919 79.0024 31.1215 79.0024 31.2709C79.0024 31.4215 78.9768 31.5521 78.9256 31.6625C78.8743 31.7724 78.8034 31.8576 78.7126 31.9181C78.6219 31.978 78.5173 32.0079 78.3987 32.0079C78.3074 32.0079 78.2342 31.9928 78.1793 31.9625C78.1244 31.9317 78.0821 31.8968 78.0525 31.8579C78.0228 31.8184 78 31.7857 77.9839 31.7598H77.9654V32.5116H77.7469ZM77.9617 31.2672C77.9617 31.3746 77.9775 31.4693 78.0089 31.5514C78.0404 31.6329 78.0864 31.6968 78.1469 31.7431C78.2074 31.7888 78.2815 31.8116 78.3691 31.8116C78.4605 31.8116 78.5367 31.7875 78.5978 31.7394C78.6595 31.6906 78.7058 31.6252 78.7367 31.5431C78.7682 31.4604 78.7839 31.3684 78.7839 31.2672C78.7839 31.1672 78.7685 31.0771 78.7376 30.9968C78.7074 30.916 78.6614 30.8521 78.5997 30.8052C78.5386 30.7576 78.4617 30.7339 78.3691 30.7339C78.2802 30.7339 78.2055 30.7564 78.145 30.8015C78.0846 30.8459 78.0389 30.9083 78.008 30.9885C77.9772 31.0681 77.9617 31.161 77.9617 31.2672ZM80.3431 30.8746L80.1468 30.9302C80.1345 30.8975 80.1163 30.8657 80.0922 30.8348C80.0687 30.8033 80.0366 30.7774 79.9959 30.757C79.9552 30.7367 79.903 30.7265 79.8394 30.7265C79.7524 30.7265 79.6799 30.7465 79.6218 30.7867C79.5644 30.8262 79.5357 30.8765 79.5357 30.9376C79.5357 30.9919 79.5555 31.0348 79.595 31.0663C79.6345 31.0978 79.6962 31.124 79.7802 31.145L79.9913 31.1968C80.1184 31.2277 80.2132 31.2749 80.2755 31.3385C80.3379 31.4014 80.369 31.4826 80.369 31.582C80.369 31.6635 80.3456 31.7363 80.2987 31.8005C80.2524 31.8647 80.1875 31.9153 80.1042 31.9523C80.0209 31.9894 79.924 32.0079 79.8135 32.0079C79.6684 32.0079 79.5484 31.9764 79.4533 31.9135C79.3583 31.8505 79.2981 31.7585 79.2728 31.6375L79.4802 31.5857C79.4999 31.6622 79.5373 31.7196 79.5922 31.7579C79.6478 31.7962 79.7203 31.8153 79.8098 31.8153C79.9116 31.8153 79.9925 31.7937 80.0524 31.7505C80.1129 31.7067 80.1431 31.6542 80.1431 31.5931C80.1431 31.5437 80.1258 31.5024 80.0913 31.469C80.0567 31.4351 80.0036 31.4098 79.932 31.3931L79.695 31.3376C79.5647 31.3067 79.4691 31.2589 79.408 31.194C79.3475 31.1286 79.3172 31.0468 79.3172 30.9487C79.3172 30.8684 79.3397 30.7975 79.3848 30.7357C79.4305 30.674 79.4925 30.6256 79.5709 30.5904C79.6499 30.5552 79.7394 30.5376 79.8394 30.5376C79.9802 30.5376 80.0906 30.5685 80.1709 30.6302C80.2517 30.6919 80.3091 30.7734 80.3431 30.8746ZM81.5942 31.3968V30.5561H81.8127V31.9783H81.5942V31.7375H81.5794C81.5461 31.8098 81.4942 31.8712 81.4238 31.9218C81.3535 31.9718 81.2646 31.9968 81.1572 31.9968C81.0683 31.9968 80.9893 31.9773 80.9202 31.9385C80.851 31.899 80.7967 31.8397 80.7572 31.7607C80.7177 31.6811 80.6979 31.5808 80.6979 31.4598V30.5561H80.9165V31.445C80.9165 31.5487 80.9455 31.6314 81.0035 31.6931C81.0621 31.7548 81.1368 31.7857 81.2275 31.7857C81.2819 31.7857 81.3371 31.7718 81.3933 31.744C81.4501 31.7162 81.4976 31.6737 81.5359 31.6163C81.5748 31.5588 81.5942 31.4857 81.5942 31.3968ZM82.2129 31.9783V30.5561H82.424V30.7783H82.4425C82.4722 30.7024 82.52 30.6435 82.586 30.6015C82.6521 30.5589 82.7314 30.5376 82.824 30.5376C82.9178 30.5376 82.9959 30.5589 83.0583 30.6015C83.1212 30.6435 83.1703 30.7024 83.2055 30.7783H83.2203C83.2567 30.7049 83.3113 30.6465 83.3842 30.6033C83.457 30.5595 83.5443 30.5376 83.6462 30.5376C83.7733 30.5376 83.8773 30.5774 83.9582 30.657C84.0391 30.736 84.0795 30.8592 84.0795 31.0265V31.9783H83.861V31.0265C83.861 30.9215 83.8323 30.8465 83.7749 30.8015C83.7175 30.7564 83.6499 30.7339 83.5721 30.7339C83.4721 30.7339 83.3947 30.7641 83.3397 30.8246C83.2848 30.8845 83.2573 30.9604 83.2573 31.0524V31.9783H83.0351V31.0042C83.0351 30.9234 83.0089 30.8583 82.9564 30.8089C82.9039 30.7589 82.8363 30.7339 82.7536 30.7339C82.6968 30.7339 82.6438 30.749 82.5944 30.7793C82.5456 30.8095 82.5061 30.8515 82.4759 30.9052C82.4462 30.9583 82.4314 31.0197 82.4314 31.0894V31.9783H82.2129Z" fill="#222222"/>
</g>
<path d="M83.1912 44.5035C82.2272 43.9192 80.9724 44.2369 80.4024 45.209L68.5445 65.4422L59.0086 83.7439C58.2798 85.1423 59.3641 86.7983 60.9366 86.6915L81.3 85.3011C81.3925 85.2949 81.4849 85.2949 81.5765 85.3011L103.188 86.7956C104.314 86.8737 105.285 86.0138 105.343 84.8874L106.647 59.9733C106.685 59.231 106.313 58.5273 105.677 58.1413L83.1912 44.5035Z" stroke="#2ACA10" stroke-width="1.6537" stroke-miterlimit="10"/>
</g>
<defs>
<filter id="filter0_d_4176_4170" x="0.048418" y="0.638735" width="162.781" height="152.614" filterUnits="userSpaceOnUse" color-interpolation-filters="sRGB">
<feFlood flood-opacity="0" result="BackgroundImageFix"/>
<feColorMatrix in="SourceAlpha" type="matrix" values="0 0 0 0 0 0 0 0 0 0 0 0 0 0 0 0 0 0 127 0" result="hardAlpha"/>
<feOffset dy="3.59032"/>
<feGaussianBlur stdDeviation="8.97579"/>
<feComposite in2="hardAlpha" operator="out"/>
<feColorMatrix type="matrix" values="0 0 0 0 0 0 0 0 0 0 0 0 0 0 0 0 0 0 0.09 0"/>
<feBlend mode="normal" in2="BackgroundImageFix" result="effect1_dropShadow_4176_4170"/>
<feBlend mode="normal" in="SourceGraphic" in2="effect1_dropShadow_4176_4170" result="shape"/>
</filter>
<filter id="filter1_b_4176_4170" x="4" y="1" width="154.878" height="144.71" filterUnits="userSpaceOnUse" color-interpolation-filters="sRGB">
<feFlood flood-opacity="0" result="BackgroundImageFix"/>
<feGaussianBlur in="BackgroundImageFix" stdDeviation="7"/>
<feComposite in2="SourceAlpha" operator="in" result="effect1_backgroundBlur_4176_4170"/>
<feBlend mode="normal" in="SourceGraphic" in2="effect1_backgroundBlur_4176_4170" result="shape"/>
</filter>
</defs>
</svg>
