<svg width="275" height="140" viewBox="0 0 275 140" fill="none" xmlns="http://www.w3.org/2000/svg">
<g filter="url(#filter0_bd_4176_4212)">
<path d="M231.42 105.143H19.057C14.0551 105.143 10 101.088 10 96.0863V19.057C10 14.0551 14.0551 10 19.057 10H231.42C236.422 10 240.477 14.0551 240.477 19.057V96.0863C240.477 101.088 236.422 105.143 231.42 105.143Z" fill="white" fill-opacity="0.5" shape-rendering="crispEdges"/>
</g>
<path d="M54.0922 52.6504C64.7548 52.6504 66.395 42.8078 78.6986 42.8078C91.0013 42.8078 113.968 75.6157 142.674 75.6157C152.517 75.6157 162.359 69.0543 168.101 69.0543C173.842 69.0543 174.662 70.6945 179.583 70.6945C192.296 70.6945 205.83 39.5267 227.155 39.5267" stroke="#2ACA10" stroke-width="1.78825" stroke-miterlimit="10" stroke-linecap="round" stroke-linejoin="round"/>
<path d="M54.5022 63.7231C64.3447 63.7231 64.3447 55.5207 75.0073 55.5207C85.67 55.5207 83.2097 73.5648 100.434 73.5648C117.658 73.5648 118.478 57.981 129.14 57.981C139.803 57.981 136.522 64.5424 143.084 64.5424C149.646 64.5424 148.826 60.4412 153.747 60.4412C158.668 60.4412 156.208 64.5424 162.769 64.5424C169.331 64.5424 174.252 48.1384 191.476 48.1384C207.06 48.1384 207.88 55.5199 213.621 55.5199C219.363 55.5199 218.543 48.9585 226.745 48.9585" stroke="url(#paint0_linear_4176_4212)" stroke-width="1.78825" stroke-miterlimit="10" stroke-linecap="round" stroke-linejoin="round"/>
<path d="M54.5023 66.1833C55.861 66.1833 56.9625 65.0818 56.9625 63.723C56.9625 62.3643 55.861 61.2628 54.5023 61.2628C53.1435 61.2628 52.0421 62.3643 52.0421 63.723C52.0421 65.0818 53.1435 66.1833 54.5023 66.1833Z" fill="#003B4F"/>
<path d="M229.205 49.0005C229.205 50.359 228.104 51.4607 226.745 51.4607C225.386 51.4607 224.285 50.359 224.285 49.0005C224.285 47.6411 225.386 46.5394 226.745 46.5394C228.104 46.5394 229.205 47.6411 229.205 49.0005Z" fill="#003B4F"/>
<path d="M229.205 39.5276C229.205 40.887 228.104 41.9886 226.745 41.9886C225.386 41.9886 224.285 40.887 224.285 39.5276C224.285 38.169 225.386 37.0674 226.745 37.0674C228.104 37.0666 229.205 38.1682 229.205 39.5276Z" fill="#2ACA10"/>
<path d="M56.5524 52.606C56.5524 53.9645 55.4508 55.067 54.0914 55.067C52.7328 55.067 51.6312 53.9654 51.6312 52.606C51.6312 51.2474 52.7328 50.1458 54.0914 50.1458C55.4508 50.1449 56.5524 51.2466 56.5524 52.606Z" fill="#2ACA10"/>
<path opacity="0.05" d="M69.3961 88.4916V23.2982" stroke="#222222" stroke-width="1.73089" stroke-miterlimit="10" stroke-linecap="round" stroke-linejoin="round"/>
<path opacity="0.05" d="M86.9247 88.4916V23.2982" stroke="#222222" stroke-width="1.73089" stroke-miterlimit="10" stroke-linecap="round" stroke-linejoin="round"/>
<path opacity="0.05" d="M104.453 88.4916V23.2982" stroke="#222222" stroke-width="1.73089" stroke-miterlimit="10" stroke-linecap="round" stroke-linejoin="round"/>
<path opacity="0.05" d="M121.982 88.4916V23.2982" stroke="#222222" stroke-width="1.73089" stroke-miterlimit="10" stroke-linecap="round" stroke-linejoin="round"/>
<path opacity="0.05" d="M139.511 88.4916V23.2982" stroke="#222222" stroke-width="1.73089" stroke-miterlimit="10" stroke-linecap="round" stroke-linejoin="round"/>
<path opacity="0.05" d="M157.039 88.4916V23.2982" stroke="#222222" stroke-width="1.73089" stroke-miterlimit="10" stroke-linecap="round" stroke-linejoin="round"/>
<path opacity="0.05" d="M174.568 88.4916V23.2982" stroke="#222222" stroke-width="1.73089" stroke-miterlimit="10" stroke-linecap="round" stroke-linejoin="round"/>
<path opacity="0.05" d="M192.098 88.4916V23.2982" stroke="#222222" stroke-width="1.73089" stroke-miterlimit="10" stroke-linecap="round" stroke-linejoin="round"/>
<path opacity="0.05" d="M209.626 88.4916V23.2982" stroke="#222222" stroke-width="1.73089" stroke-miterlimit="10" stroke-linecap="round" stroke-linejoin="round"/>
<path opacity="0.05" d="M227.155 88.4916V23.2982" stroke="#222222" stroke-width="1.73089" stroke-miterlimit="10" stroke-linecap="round" stroke-linejoin="round"/>
<path opacity="0.05" d="M54.0922 23.2982V88.4916H226.745" stroke="#222222" stroke-width="1.78825" stroke-miterlimit="10" stroke-linecap="round" stroke-linejoin="round"/>
<path d="M22.8572 53.449V50.2803H23.2409V53.1086H24.7139V53.449H22.8572ZM26.2239 53.4985C26.0094 53.4985 25.8212 53.4474 25.6592 53.3453C25.4983 53.2432 25.3725 53.1003 25.2817 52.9167C25.192 52.7331 25.1471 52.5186 25.1471 52.2731C25.1471 52.0255 25.192 51.8094 25.2817 51.6248C25.3725 51.4402 25.4983 51.2968 25.6592 51.1947C25.8212 51.0926 26.0094 51.0415 26.2239 51.0415C26.4385 51.0415 26.6262 51.0926 26.7871 51.1947C26.9491 51.2968 27.0749 51.4402 27.1646 51.6248C27.2554 51.8094 27.3008 52.0255 27.3008 52.2731C27.3008 52.5186 27.2554 52.7331 27.1646 52.9167C27.0749 53.1003 26.9491 53.2432 26.7871 53.3453C26.6262 53.4474 26.4385 53.4985 26.2239 53.4985ZM26.2239 53.1705C26.3869 53.1705 26.521 53.1287 26.6262 53.0452C26.7314 52.9616 26.8093 52.8518 26.8598 52.7156C26.9104 52.5794 26.9357 52.4319 26.9357 52.2731C26.9357 52.1142 26.9104 51.9662 26.8598 51.829C26.8093 51.6919 26.7314 51.581 26.6262 51.4964C26.521 51.4118 26.3869 51.3695 26.2239 51.3695C26.061 51.3695 25.9269 51.4118 25.8217 51.4964C25.7165 51.581 25.6386 51.6919 25.588 51.829C25.5375 51.9662 25.5122 52.1142 25.5122 52.2731C25.5122 52.4319 25.5375 52.5794 25.588 52.7156C25.6386 52.8518 25.7165 52.9616 25.8217 53.0452C25.9269 53.1287 26.061 53.1705 26.2239 53.1705ZM27.8582 53.449V51.0725H28.2109V51.4314H28.2357C28.279 51.3138 28.3574 51.2184 28.4709 51.1452C28.5843 51.0719 28.7122 51.0353 28.8546 51.0353C28.8814 51.0353 28.9149 51.0358 28.9552 51.0369C28.9954 51.0379 29.0258 51.0395 29.0464 51.0415V51.4128C29.0341 51.4098 29.0057 51.4051 28.9613 51.3989C28.918 51.3917 28.8721 51.3881 28.8236 51.3881C28.7081 51.3881 28.605 51.4123 28.5142 51.4608C28.4245 51.5083 28.3533 51.5743 28.3007 51.6589C28.2491 51.7424 28.2233 51.8378 28.2233 51.9451V53.449H27.8582ZM30.4033 53.4985C30.1744 53.4985 29.9768 53.4479 29.8108 53.3469C29.6457 53.2447 29.5183 53.1024 29.4286 52.9198C29.3399 52.7362 29.2955 52.5227 29.2955 52.2793C29.2955 52.0359 29.3399 51.8213 29.4286 51.6356C29.5183 51.4489 29.6431 51.3035 29.803 51.1993C29.9639 51.0941 30.1517 51.0415 30.3662 51.0415C30.49 51.0415 30.6122 51.0621 30.7329 51.1034C30.8536 51.1447 30.9634 51.2117 31.0625 51.3045C31.1615 51.3963 31.2404 51.5181 31.2992 51.6697C31.358 51.8213 31.3874 52.008 31.3874 52.2298V52.3845H29.5555V52.0689H31.016C31.016 51.9348 30.9892 51.8151 30.9356 51.7099C30.883 51.6047 30.8077 51.5217 30.7097 51.4608C30.6127 51.4 30.4982 51.3695 30.3662 51.3695C30.2208 51.3695 30.0949 51.4056 29.9887 51.4778C29.8835 51.549 29.8025 51.6418 29.7458 51.7563C29.689 51.8708 29.6607 51.9936 29.6607 52.1246V52.335C29.6607 52.5145 29.6916 52.6666 29.7535 52.7914C29.8164 52.9152 29.9036 53.0096 30.015 53.0746C30.1264 53.1385 30.2558 53.1705 30.4033 53.1705C30.4993 53.1705 30.5859 53.1571 30.6633 53.1302C30.7417 53.1024 30.8092 53.0611 30.866 53.0065C30.9227 52.9508 30.9665 52.8817 30.9975 52.7991L31.3502 52.8982C31.3131 53.0178 31.2507 53.123 31.163 53.2138C31.0753 53.3035 30.967 53.3737 30.8381 53.4242C30.7092 53.4737 30.5643 53.4985 30.4033 53.4985ZM31.9428 53.449V51.0725H32.2956V51.4438H32.3265C32.376 51.3169 32.456 51.2184 32.5663 51.1483C32.6767 51.0771 32.8092 51.0415 32.964 51.0415C33.1208 51.0415 33.2512 51.0771 33.3554 51.1483C33.4606 51.2184 33.5426 51.3169 33.6014 51.4438H33.6262C33.687 51.321 33.7783 51.2236 33.9 51.1514C34.0217 51.0781 34.1677 51.0415 34.3379 51.0415C34.5504 51.0415 34.7242 51.108 34.8593 51.2411C34.9944 51.3731 35.062 51.5789 35.062 51.8584V53.449H34.6968V51.8584C34.6968 51.6831 34.6489 51.5578 34.553 51.4825C34.457 51.4072 34.3441 51.3695 34.2141 51.3695C34.047 51.3695 33.9176 51.4201 33.8258 51.5212C33.734 51.6212 33.6881 51.7481 33.6881 51.9018V53.449H33.3167V51.8213C33.3167 51.6862 33.2729 51.5774 33.1852 51.4949C33.0975 51.4113 32.9846 51.3695 32.8464 51.3695C32.7515 51.3695 32.6628 51.3948 32.5803 51.4453C32.4988 51.4959 32.4328 51.566 32.3822 51.6558C32.3327 51.7445 32.308 51.8471 32.308 51.9637V53.449H31.9428ZM36.955 53.449V51.0725H37.3201V53.449H36.955ZM37.1407 50.6764C37.0695 50.6764 37.0081 50.6521 36.9565 50.6037C36.906 50.5552 36.8807 50.4969 36.8807 50.4288C36.8807 50.3607 36.906 50.3025 36.9565 50.254C37.0081 50.2055 37.0695 50.1813 37.1407 50.1813C37.2118 50.1813 37.2727 50.2055 37.3232 50.254C37.3748 50.3025 37.4006 50.3607 37.4006 50.4288C37.4006 50.4969 37.3748 50.5552 37.3232 50.6037C37.2727 50.6521 37.2118 50.6764 37.1407 50.6764ZM37.9889 54.3402V51.0725H38.3417V51.45H38.385C38.4118 51.4087 38.449 51.3561 38.4964 51.2922C38.5449 51.2272 38.614 51.1694 38.7037 51.1189C38.7945 51.0673 38.9172 51.0415 39.072 51.0415C39.2721 51.0415 39.4484 51.0915 39.6011 51.1916C39.7538 51.2917 39.8729 51.4335 39.9585 51.6171C40.0441 51.8007 40.0869 52.0173 40.0869 52.2669C40.0869 52.5186 40.0441 52.7367 39.9585 52.9214C39.8729 53.105 39.7543 53.2473 39.6027 53.3484C39.451 53.4485 39.2762 53.4985 39.0782 53.4985C38.9255 53.4985 38.8033 53.4732 38.7115 53.4227C38.6197 53.3711 38.549 53.3128 38.4995 53.2478C38.45 53.1818 38.4118 53.1272 38.385 53.0838H38.3541V54.3402H37.9889ZM38.3479 52.2607C38.3479 52.4402 38.3742 52.5985 38.4268 52.7357C38.4794 52.8719 38.5562 52.9786 38.6573 53.056C38.7584 53.1323 38.8822 53.1705 39.0286 53.1705C39.1813 53.1705 39.3087 53.1302 39.4108 53.0498C39.5139 52.9683 39.5913 52.859 39.6429 52.7218C39.6955 52.5836 39.7218 52.4299 39.7218 52.2607C39.7218 52.0936 39.696 51.943 39.6444 51.8089C39.5939 51.6738 39.517 51.5671 39.4139 51.4887C39.3118 51.4092 39.1834 51.3695 39.0286 51.3695C38.8801 51.3695 38.7553 51.4072 38.6542 51.4825C38.5531 51.5567 38.4768 51.6609 38.4252 51.795C38.3737 51.9281 38.3479 52.0833 38.3479 52.2607ZM42.3273 51.6047L41.9993 51.6975C41.9787 51.6429 41.9482 51.5897 41.908 51.5382C41.8688 51.4856 41.8152 51.4422 41.7471 51.4082C41.679 51.3742 41.5918 51.3571 41.4856 51.3571C41.3402 51.3571 41.219 51.3907 41.122 51.4577C41.0261 51.5237 40.9781 51.6078 40.9781 51.7099C40.9781 51.8007 41.0111 51.8724 41.0771 51.925C41.1432 51.9776 41.2463 52.0214 41.3866 52.0565L41.7393 52.1431C41.9518 52.1947 42.1102 52.2736 42.2143 52.3799C42.3185 52.4851 42.3706 52.6207 42.3706 52.7868C42.3706 52.9229 42.3314 53.0446 42.253 53.1519C42.1757 53.2592 42.0674 53.3438 41.9281 53.4057C41.7889 53.4675 41.6269 53.4985 41.4423 53.4985C41.1999 53.4985 40.9993 53.4459 40.8404 53.3407C40.6816 53.2355 40.581 53.0818 40.5387 52.8796L40.8853 52.793C40.9183 52.9209 40.9807 53.0168 41.0725 53.0807C41.1653 53.1447 41.2865 53.1767 41.4361 53.1767C41.6063 53.1767 41.7414 53.1406 41.8415 53.0684C41.9425 52.9951 41.9931 52.9075 41.9931 52.8053C41.9931 52.7228 41.9642 52.6537 41.9064 52.598C41.8487 52.5413 41.76 52.499 41.6403 52.4711L41.2442 52.3783C41.0266 52.3267 40.8667 52.2468 40.7646 52.1385C40.6635 52.0292 40.613 51.8925 40.613 51.7285C40.613 51.5944 40.6506 51.4758 40.7259 51.3726C40.8023 51.2695 40.9059 51.1885 41.0369 51.1297C41.1689 51.0709 41.3185 51.0415 41.4856 51.0415C41.7208 51.0415 41.9054 51.0931 42.0395 51.1962C42.1746 51.2994 42.2706 51.4355 42.3273 51.6047ZM44.418 52.4773V51.0725H44.7831V53.449H44.418V53.0467H44.3932C44.3375 53.1674 44.2509 53.27 44.1333 53.3546C44.0157 53.4381 43.8671 53.4799 43.6877 53.4799C43.5391 53.4799 43.4071 53.4474 43.2916 53.3824C43.1761 53.3164 43.0853 53.2174 43.0193 53.0854C42.9533 52.9523 42.9203 52.7847 42.9203 52.5825V51.0725H43.2854V52.5578C43.2854 52.7311 43.3339 52.8693 43.4308 52.9724C43.5288 53.0756 43.6536 53.1272 43.8053 53.1272C43.896 53.1272 43.9883 53.1039 44.0822 53.0575C44.1771 53.0111 44.2565 52.9399 44.3205 52.844C44.3855 52.7481 44.418 52.6259 44.418 52.4773ZM45.4519 53.449V51.0725H45.8046V51.4438H45.8356C45.8851 51.3169 45.965 51.2184 46.0754 51.1483C46.1858 51.0771 46.3183 51.0415 46.473 51.0415C46.6298 51.0415 46.7603 51.0771 46.8645 51.1483C46.9697 51.2184 47.0517 51.3169 47.1105 51.4438H47.1352C47.1961 51.321 47.2874 51.2236 47.4091 51.1514C47.5308 51.0781 47.6768 51.0415 47.847 51.0415C48.0594 51.0415 48.2332 51.108 48.3684 51.2411C48.5035 51.3731 48.571 51.5789 48.571 51.8584V53.449H48.2059V51.8584C48.2059 51.6831 48.1579 51.5578 48.062 51.4825C47.9661 51.4072 47.8531 51.3695 47.7232 51.3695C47.5561 51.3695 47.4266 51.4201 47.3348 51.5212C47.243 51.6212 47.1971 51.7481 47.1971 51.9018V53.449H46.8258V51.8213C46.8258 51.6862 46.782 51.5774 46.6943 51.4949C46.6066 51.4113 46.4937 51.3695 46.3554 51.3695C46.2606 51.3695 46.1718 51.3948 46.0893 51.4453C46.0078 51.4959 45.9418 51.566 45.8913 51.6558C45.8418 51.7445 45.817 51.8471 45.817 51.9637V53.449H45.4519Z" fill="#222222"/>
<path d="M22.8572 65.1429V61.9743H23.2409V64.8026H24.7139V65.1429H22.8572ZM26.2239 65.1925C26.0094 65.1925 25.8212 65.1414 25.6592 65.0393C25.4983 64.9372 25.3725 64.7943 25.2817 64.6107C25.192 64.4271 25.1471 64.2126 25.1471 63.9671C25.1471 63.7195 25.192 63.5034 25.2817 63.3188C25.3725 63.1342 25.4983 62.9908 25.6592 62.8887C25.8212 62.7865 26.0094 62.7355 26.2239 62.7355C26.4385 62.7355 26.6262 62.7865 26.7871 62.8887C26.9491 62.9908 27.0749 63.1342 27.1646 63.3188C27.2554 63.5034 27.3008 63.7195 27.3008 63.9671C27.3008 64.2126 27.2554 64.4271 27.1646 64.6107C27.0749 64.7943 26.9491 64.9372 26.7871 65.0393C26.6262 65.1414 26.4385 65.1925 26.2239 65.1925ZM26.2239 64.8644C26.3869 64.8644 26.521 64.8227 26.6262 64.7391C26.7314 64.6556 26.8093 64.5457 26.8598 64.4096C26.9104 64.2734 26.9357 64.1259 26.9357 63.9671C26.9357 63.8082 26.9104 63.6602 26.8598 63.523C26.8093 63.3858 26.7314 63.2749 26.6262 63.1904C26.521 63.1058 26.3869 63.0635 26.2239 63.0635C26.061 63.0635 25.9269 63.1058 25.8217 63.1904C25.7165 63.2749 25.6386 63.3858 25.588 63.523C25.5375 63.6602 25.5122 63.8082 25.5122 63.9671C25.5122 64.1259 25.5375 64.2734 25.588 64.4096C25.6386 64.5457 25.7165 64.6556 25.8217 64.7391C25.9269 64.8227 26.061 64.8644 26.2239 64.8644ZM27.8582 65.1429V62.7664H28.2109V63.1254H28.2357C28.279 63.0078 28.3574 62.9124 28.4709 62.8392C28.5843 62.7659 28.7122 62.7293 28.8546 62.7293C28.8814 62.7293 28.9149 62.7298 28.9552 62.7308C28.9954 62.7319 29.0258 62.7334 29.0464 62.7355V63.1068C29.0341 63.1037 29.0057 63.0991 28.9613 63.0929C28.918 63.0857 28.8721 63.0821 28.8236 63.0821C28.7081 63.0821 28.605 63.1063 28.5142 63.1548C28.4245 63.2022 28.3533 63.2682 28.3007 63.3528C28.2491 63.4364 28.2233 63.5318 28.2233 63.6391V65.1429H27.8582ZM30.4033 65.1925C30.1744 65.1925 29.9768 65.1419 29.8108 65.0408C29.6457 64.9387 29.5183 64.7964 29.4286 64.6138C29.3399 64.4302 29.2955 64.2167 29.2955 63.9733C29.2955 63.7298 29.3399 63.5153 29.4286 63.3296C29.5183 63.1429 29.6431 62.9975 29.803 62.8933C29.9639 62.7881 30.1517 62.7355 30.3662 62.7355C30.49 62.7355 30.6122 62.7561 30.7329 62.7974C30.8536 62.8386 30.9634 62.9057 31.0625 62.9985C31.1615 63.0903 31.2404 63.212 31.2992 63.3637C31.358 63.5153 31.3874 63.702 31.3874 63.9237V64.0785H29.5555V63.7628H31.016C31.016 63.6287 30.9892 63.5091 30.9356 63.4039C30.883 63.2987 30.8077 63.2156 30.7097 63.1548C30.6127 63.0939 30.4982 63.0635 30.3662 63.0635C30.2208 63.0635 30.0949 63.0996 29.9887 63.1718C29.8835 63.243 29.8025 63.3358 29.7458 63.4503C29.689 63.5648 29.6607 63.6875 29.6607 63.8185V64.029C29.6607 64.2084 29.6916 64.3606 29.7535 64.4854C29.8164 64.6092 29.9036 64.7035 30.015 64.7685C30.1264 64.8325 30.2558 64.8644 30.4033 64.8644C30.4993 64.8644 30.5859 64.851 30.6633 64.8242C30.7417 64.7964 30.8092 64.7551 30.866 64.7004C30.9227 64.6447 30.9665 64.5756 30.9975 64.4931L31.3502 64.5921C31.3131 64.7118 31.2507 64.817 31.163 64.9078C31.0753 64.9975 30.967 65.0676 30.8381 65.1182C30.7092 65.1677 30.5643 65.1925 30.4033 65.1925ZM31.9428 65.1429V62.7664H32.2956V63.1378H32.3265C32.376 63.0109 32.456 62.9124 32.5663 62.8422C32.6767 62.7711 32.8092 62.7355 32.964 62.7355C33.1208 62.7355 33.2512 62.7711 33.3554 62.8422C33.4606 62.9124 33.5426 63.0109 33.6014 63.1378H33.6262C33.687 63.015 33.7783 62.9175 33.9 62.8453C34.0217 62.7721 34.1677 62.7355 34.3379 62.7355C34.5504 62.7355 34.7242 62.802 34.8593 62.9351C34.9944 63.0671 35.062 63.2729 35.062 63.5524V65.1429H34.6968V63.5524C34.6968 63.3771 34.6489 63.2517 34.553 63.1764C34.457 63.1011 34.3441 63.0635 34.2141 63.0635C34.047 63.0635 33.9176 63.114 33.8258 63.2151C33.734 63.3152 33.6881 63.442 33.6881 63.5957V65.1429H33.3167V63.5153C33.3167 63.3802 33.2729 63.2713 33.1852 63.1888C33.0975 63.1053 32.9846 63.0635 32.8464 63.0635C32.7515 63.0635 32.6628 63.0888 32.5803 63.1393C32.4988 63.1899 32.4328 63.26 32.3822 63.3497C32.3327 63.4384 32.308 63.5411 32.308 63.6576V65.1429H31.9428ZM36.955 65.1429V62.7664H37.3201V65.1429H36.955ZM37.1407 62.3703C37.0695 62.3703 37.0081 62.3461 36.9565 62.2976C36.906 62.2491 36.8807 62.1909 36.8807 62.1228C36.8807 62.0547 36.906 61.9964 36.9565 61.948C37.0081 61.8995 37.0695 61.8752 37.1407 61.8752C37.2118 61.8752 37.2727 61.8995 37.3232 61.948C37.3748 61.9964 37.4006 62.0547 37.4006 62.1228C37.4006 62.1909 37.3748 62.2491 37.3232 62.2976C37.2727 62.3461 37.2118 62.3703 37.1407 62.3703ZM37.9889 66.0341V62.7664H38.3417V63.144H38.385C38.4118 63.1027 38.449 63.0501 38.4964 62.9861C38.5449 62.9212 38.614 62.8634 38.7037 62.8128C38.7945 62.7613 38.9172 62.7355 39.072 62.7355C39.2721 62.7355 39.4484 62.7855 39.6011 62.8856C39.7538 62.9856 39.8729 63.1274 39.9585 63.311C40.0441 63.4947 40.0869 63.7113 40.0869 63.9609C40.0869 64.2126 40.0441 64.4307 39.9585 64.6153C39.8729 64.7989 39.7543 64.9413 39.6027 65.0424C39.451 65.1424 39.2762 65.1925 39.0782 65.1925C38.9255 65.1925 38.8033 65.1672 38.7115 65.1166C38.6197 65.0651 38.549 65.0068 38.4995 64.9418C38.45 64.8758 38.4118 64.8211 38.385 64.7778H38.3541V66.0341H37.9889ZM38.3479 63.9547C38.3479 64.1342 38.3742 64.2925 38.4268 64.4297C38.4794 64.5658 38.5562 64.6726 38.6573 64.75C38.7584 64.8263 38.8822 64.8644 39.0286 64.8644C39.1813 64.8644 39.3087 64.8242 39.4108 64.7438C39.5139 64.6623 39.5913 64.5529 39.6429 64.4158C39.6955 64.2775 39.7218 64.1238 39.7218 63.9547C39.7218 63.7876 39.696 63.637 39.6444 63.5029C39.5939 63.3678 39.517 63.261 39.4139 63.1826C39.3118 63.1032 39.1834 63.0635 39.0286 63.0635C38.8801 63.0635 38.7553 63.1011 38.6542 63.1764C38.5531 63.2507 38.4768 63.3549 38.4252 63.489C38.3737 63.622 38.3479 63.7773 38.3479 63.9547ZM42.3273 63.2987L41.9993 63.3915C41.9787 63.3368 41.9482 63.2837 41.908 63.2321C41.8688 63.1795 41.8152 63.1362 41.7471 63.1022C41.679 63.0681 41.5918 63.0511 41.4856 63.0511C41.3402 63.0511 41.219 63.0846 41.122 63.1517C41.0261 63.2177 40.9781 63.3018 40.9781 63.4039C40.9781 63.4947 41.0111 63.5663 41.0771 63.6189C41.1432 63.6715 41.2463 63.7154 41.3866 63.7505L41.7393 63.8371C41.9518 63.8887 42.1102 63.9676 42.2143 64.0738C42.3185 64.179 42.3706 64.3147 42.3706 64.4807C42.3706 64.6169 42.3314 64.7386 42.253 64.8459C42.1757 64.9532 42.0674 65.0377 41.9281 65.0996C41.7889 65.1615 41.6269 65.1925 41.4423 65.1925C41.1999 65.1925 40.9993 65.1398 40.8404 65.0346C40.6816 64.9294 40.581 64.7757 40.5387 64.5736L40.8853 64.4869C40.9183 64.6148 40.9807 64.7108 41.0725 64.7747C41.1653 64.8387 41.2865 64.8706 41.4361 64.8706C41.6063 64.8706 41.7414 64.8345 41.8415 64.7623C41.9425 64.6891 41.9931 64.6014 41.9931 64.4993C41.9931 64.4168 41.9642 64.3477 41.9064 64.292C41.8487 64.2352 41.76 64.193 41.6403 64.1651L41.2442 64.0723C41.0266 64.0207 40.8667 63.9408 40.7646 63.8325C40.6635 63.7231 40.613 63.5865 40.613 63.4224C40.613 63.2884 40.6506 63.1697 40.7259 63.0666C40.8023 62.9634 40.9059 62.8825 41.0369 62.8237C41.1689 62.7649 41.3185 62.7355 41.4856 62.7355C41.7208 62.7355 41.9054 62.7871 42.0395 62.8902C42.1746 62.9934 42.2706 63.1295 42.3273 63.2987ZM44.418 64.1713V62.7664H44.7831V65.1429H44.418V64.7407H44.3932C44.3375 64.8614 44.2509 64.964 44.1333 65.0486C44.0157 65.1321 43.8671 65.1739 43.6877 65.1739C43.5391 65.1739 43.4071 65.1414 43.2916 65.0764C43.1761 65.0104 43.0853 64.9114 43.0193 64.7794C42.9533 64.6463 42.9203 64.4787 42.9203 64.2765V62.7664H43.2854V64.2518C43.2854 64.425 43.3339 64.5633 43.4308 64.6664C43.5288 64.7696 43.6536 64.8211 43.8053 64.8211C43.896 64.8211 43.9883 64.7979 44.0822 64.7515C44.1771 64.7051 44.2565 64.6339 44.3205 64.538C44.3855 64.4421 44.418 64.3198 44.418 64.1713ZM45.4519 65.1429V62.7664H45.8046V63.1378H45.8356C45.8851 63.0109 45.965 62.9124 46.0754 62.8422C46.1858 62.7711 46.3183 62.7355 46.473 62.7355C46.6298 62.7355 46.7603 62.7711 46.8645 62.8422C46.9697 62.9124 47.0517 63.0109 47.1105 63.1378H47.1352C47.1961 63.015 47.2874 62.9175 47.4091 62.8453C47.5308 62.7721 47.6768 62.7355 47.847 62.7355C48.0594 62.7355 48.2332 62.802 48.3684 62.9351C48.5035 63.0671 48.571 63.2729 48.571 63.5524V65.1429H48.2059V63.5524C48.2059 63.3771 48.1579 63.2517 48.062 63.1764C47.9661 63.1011 47.8531 63.0635 47.7232 63.0635C47.5561 63.0635 47.4266 63.114 47.3348 63.2151C47.243 63.3152 47.1971 63.442 47.1971 63.5957V65.1429H46.8258V63.5153C46.8258 63.3802 46.782 63.2713 46.6943 63.1888C46.6066 63.1053 46.4937 63.0635 46.3554 63.0635C46.2606 63.0635 46.1718 63.0888 46.0893 63.1393C46.0078 63.1899 45.9418 63.26 45.8913 63.3497C45.8418 63.4384 45.817 63.5411 45.817 63.6576V65.1429H45.4519Z" fill="#222222"/>
<defs>
<filter id="filter0_bd_4176_4212" x="-4" y="-4" width="278.477" height="143.143" filterUnits="userSpaceOnUse" color-interpolation-filters="sRGB">
<feFlood flood-opacity="0" result="BackgroundImageFix"/>
<feGaussianBlur in="BackgroundImageFix" stdDeviation="7"/>
<feComposite in2="SourceAlpha" operator="in" result="effect1_backgroundBlur_4176_4212"/>
<feColorMatrix in="SourceAlpha" type="matrix" values="0 0 0 0 0 0 0 0 0 0 0 0 0 0 0 0 0 0 127 0" result="hardAlpha"/>
<feOffset dx="12" dy="12"/>
<feGaussianBlur stdDeviation="11"/>
<feComposite in2="hardAlpha" operator="out"/>
<feColorMatrix type="matrix" values="0 0 0 0 0 0 0 0 0 0 0 0 0 0 0 0 0 0 0.04 0"/>
<feBlend mode="normal" in2="effect1_backgroundBlur_4176_4212" result="effect2_dropShadow_4176_4212"/>
<feBlend mode="normal" in="SourceGraphic" in2="effect2_dropShadow_4176_4212" result="shape"/>
</filter>
<linearGradient id="paint0_linear_4176_4212" x1="53.6819" y1="60.8526" x2="227.565" y2="60.8526" gradientUnits="userSpaceOnUse">
<stop stop-color="#D2D1F8"/>
<stop offset="1" stop-color="#BCE5F1"/>
</linearGradient>
</defs>
</svg>
