<svg width="106" height="106" viewBox="0 0 106 106" fill="none" xmlns="http://www.w3.org/2000/svg">
<g filter="url(#filter0_bd_4176_4203)">
<rect x="10" y="10" width="61.0354" height="61.0354" rx="20" fill="white" fill-opacity="0.5" shape-rendering="crispEdges"/>
</g>
<path d="M24.9393 47.7851V53.4594C24.9393 53.8046 25.2198 54.0923 25.5722 54.0923H29.9592C30.3044 54.0923 30.5921 53.8118 30.5921 53.4594V43.4772L27.4061 46.6631C26.7301 47.332 25.8671 47.7203 24.9393 47.7851Z" fill="#B0C2C8"/>
<path d="M32.7784 43.4053V53.4594C32.7784 53.8046 33.0589 54.0923 33.4113 54.0923H37.7983C38.1435 54.0923 38.4312 53.8118 38.4312 53.4594V47.5406C37.4315 47.519 36.4966 47.1234 35.7918 46.4186L32.7784 43.4053Z" fill="#B0C2C8"/>
<path d="M40.6176 46.9149V53.4595C40.6176 53.8047 40.898 54.0923 41.2504 54.0923H45.6374C45.9826 54.0923 46.2703 53.8119 46.2703 53.4595V41.3844L41.2432 46.4115C41.0491 46.6057 40.8405 46.7711 40.6176 46.9149Z" fill="#B0C2C8"/>
<path d="M53.685 33.9624L48.4565 39.1909V53.4594C48.4565 53.8046 48.737 54.0923 49.0894 54.0923H53.4764C53.8216 54.0923 54.1093 53.8118 54.1093 53.4594V34.358C53.9655 34.2357 53.8576 34.1278 53.7785 34.0559L53.685 33.9624Z" fill="#B0C2C8"/>
<path d="M57.2737 24.6993C57.0652 24.4764 56.7487 24.3613 56.346 24.3613C56.31 24.3613 56.2669 24.3613 56.2309 24.3613C54.1884 24.4548 52.1532 24.5555 50.1107 24.649C49.8374 24.6634 49.4634 24.6778 49.1686 24.9726C49.0751 25.0661 49.0031 25.174 48.9456 25.3035C48.6436 25.9579 49.0679 26.3822 49.2692 26.5836L49.7799 27.1014C50.1323 27.461 50.4919 27.8206 50.8514 28.173L38.5103 40.5213L32.9654 34.9764C32.6346 34.6456 32.1887 34.4586 31.714 34.4586C31.2394 34.4586 30.8007 34.6456 30.4698 34.9764L23.0839 42.3552C22.3934 43.0457 22.3934 44.1604 23.0839 44.8508L23.4147 45.1816C23.7455 45.5125 24.1914 45.6994 24.666 45.6994C25.1407 45.6994 25.5794 45.5125 25.9102 45.1816L31.714 39.3778L37.2589 44.9227C37.5897 45.2536 38.0356 45.4405 38.5103 45.4405C38.985 45.4405 39.4237 45.2536 39.7617 44.9227L53.685 30.9994L55.26 32.5672C55.447 32.7542 55.7059 33.0131 56.1015 33.0131C56.2669 33.0131 56.4323 32.9699 56.6049 32.8764C56.72 32.8117 56.8207 32.7398 56.907 32.6535C57.2162 32.3442 57.2737 31.9487 57.2881 31.6394C57.3457 30.3162 57.4104 28.9929 57.4751 27.6624L57.5686 25.6702C57.5902 25.2531 57.4967 24.9295 57.2737 24.6993Z" fill="#2ACA10"/>
<defs>
<filter id="filter0_bd_4176_4203" x="-4" y="-4" width="109.035" height="109.035" filterUnits="userSpaceOnUse" color-interpolation-filters="sRGB">
<feFlood flood-opacity="0" result="BackgroundImageFix"/>
<feGaussianBlur in="BackgroundImageFix" stdDeviation="7"/>
<feComposite in2="SourceAlpha" operator="in" result="effect1_backgroundBlur_4176_4203"/>
<feColorMatrix in="SourceAlpha" type="matrix" values="0 0 0 0 0 0 0 0 0 0 0 0 0 0 0 0 0 0 127 0" result="hardAlpha"/>
<feOffset dx="12" dy="12"/>
<feGaussianBlur stdDeviation="11"/>
<feComposite in2="hardAlpha" operator="out"/>
<feColorMatrix type="matrix" values="0 0 0 0 0 0 0 0 0 0 0 0 0 0 0 0 0 0 0.04 0"/>
<feBlend mode="normal" in2="effect1_backgroundBlur_4176_4203" result="effect2_dropShadow_4176_4203"/>
<feBlend mode="normal" in="SourceGraphic" in2="effect2_dropShadow_4176_4203" result="shape"/>
</filter>
</defs>
</svg>
