<svg width="24" height="25" viewBox="0 0 24 25" fill="none" xmlns="http://www.w3.org/2000/svg">
<mask id="mask0_4184_4472" style="mask-type:alpha" maskUnits="userSpaceOnUse" x="0" y="0" width="24" height="25">
<rect y="0.5" width="24" height="24" fill="#BABABA"/>
</mask>
<g mask="url(#mask0_4184_4472)">
<path d="M9.9998 14.1L15.8998 8.20005C16.0831 8.01672 16.3165 7.92505 16.5998 7.92505C16.8831 7.92505 17.1165 8.01672 17.2998 8.20005C17.4831 8.38338 17.5748 8.61672 17.5748 8.90005C17.5748 9.18338 17.4831 9.41672 17.2998 9.60005L10.6998 16.2C10.4998 16.4 10.2665 16.5 9.9998 16.5C9.73314 16.5 9.4998 16.4 9.2998 16.2L6.6998 13.6C6.51647 13.4167 6.4248 13.1834 6.4248 12.9C6.4248 12.6167 6.51647 12.3834 6.6998 12.2C6.88314 12.0167 7.11647 11.925 7.3998 11.925C7.68314 11.925 7.91647 12.0167 8.0998 12.2L9.9998 14.1Z" fill="#2ACA10"/>
</g>
</svg>
