<svg width="127" height="40" viewBox="0 0 127 40" fill="none" xmlns="http://www.w3.org/2000/svg">
<path d="M57.582 31.7798V15.945C57.582 14.6212 58.1182 13.4275 58.9868 12.5601C59.8553 11.6926 61.0505 11.159 62.376 11.1571L67.0568 11.1646C68.3785 11.1684 69.5681 11.7021 70.4348 12.5676C71.2995 13.4332 71.832 14.625 71.8339 15.9431V19.313C71.8339 20.6368 71.2977 21.8305 70.4291 22.6979C69.5605 23.5654 68.3653 24.099 67.0398 24.1009H60.4256C60.1555 24.1009 59.9365 24.3197 59.9365 24.5893C59.9365 24.859 60.1555 25.0778 60.4256 25.0778H67.0398C68.6316 25.0778 70.0779 24.4328 71.1202 23.39C72.1643 22.3491 72.8101 20.9046 72.8101 19.3149V15.945C72.8101 14.3591 72.1662 12.9203 71.1258 11.8793C70.0873 10.8384 68.6467 10.1934 67.0587 10.1897L62.3779 10.1821C60.7862 10.1821 59.3399 10.8271 58.2976 11.8699C57.2534 12.9108 56.6077 14.3553 56.6077 15.945V31.7779C56.6077 32.0475 56.8267 32.2663 57.0967 32.2663C57.3629 32.2663 57.582 32.0494 57.582 31.7798Z" fill="#4E4E4E"/>
<path d="M73.6275 11.157H75.6573C76.1218 11.157 76.5391 11.3437 76.845 11.6473C77.149 11.9528 77.3359 12.3677 77.3378 12.8334V24.6609C77.3378 24.9306 77.5568 25.1494 77.8268 25.1494C78.0968 25.1494 78.3159 24.9306 78.3159 24.6609V12.8334C78.3159 12.1018 78.0175 11.4361 77.5379 10.9571C77.0583 10.4781 76.3918 10.1802 75.6592 10.1802H73.6294C73.3594 10.1802 73.1404 10.3989 73.1404 10.6686C73.1404 10.9383 73.3594 11.157 73.6275 11.157Z" fill="#4E4E4E"/>
<path d="M77.3906 8.83571L76.4692 7.91546C76.2407 7.68729 76.2407 7.31768 76.4692 7.0895L77.3887 6.17113C77.6172 5.94296 77.9892 5.94296 78.2177 6.17113L79.1372 7.0895C79.3657 7.31768 79.3657 7.68729 79.1372 7.91546L78.2158 8.83571C77.9892 9.06389 77.6191 9.06389 77.3906 8.83571Z" fill="#4E4E4E"/>
<path d="M81.722 11.1458H83.7367C84.643 11.1458 85.5116 11.506 86.1536 12.1452L90.8646 16.8502C91.263 17.25 91.7917 17.4499 92.3147 17.4499C92.8377 17.4499 93.3664 17.2481 93.7648 16.8502L98.4569 12.1641C99.097 11.5248 99.9674 11.1646 100.874 11.1646H102.511C102.781 11.1646 103 10.9459 103 10.6762C103 10.4066 102.781 10.1878 102.511 10.1878H100.874C99.7088 10.1878 98.591 10.6498 97.7658 11.4739L93.0737 16.16C92.8622 16.3712 92.5904 16.473 92.3147 16.4749C92.039 16.4749 91.7671 16.3712 91.5556 16.16L86.8446 11.455C86.0214 10.6328 84.9036 10.1689 83.7386 10.1689H81.7239C81.4539 10.1689 81.2349 10.3877 81.2349 10.6574C81.233 10.927 81.452 11.1458 81.722 11.1458Z" fill="#4E4E4E"/>
<path d="M81.7221 25.0456H83.7368C84.9018 25.0456 86.0196 24.5836 86.8447 23.7596L91.5538 19.0565C91.7653 18.8453 92.0372 18.7434 92.3129 18.7415C92.5886 18.7415 92.8605 18.8453 93.0719 19.0565L97.764 23.7426C98.5873 24.5648 99.7051 25.0287 100.872 25.0287H102.509C102.779 25.0287 102.998 24.8099 102.998 24.5403C102.998 24.2706 102.779 24.0518 102.509 24.0518H100.872C99.9657 24.0518 99.0971 23.6917 98.4551 23.0524L93.763 18.3663C93.3646 17.9665 92.8359 17.7666 92.3129 17.7666C91.7899 17.7666 91.2612 17.9684 90.8628 18.3663L86.1518 23.0694C85.5117 23.7086 84.6412 24.0688 83.7349 24.0688H81.7202C81.4502 24.0688 81.2312 24.2876 81.2312 24.5572C81.2331 24.8269 81.4521 25.0456 81.7221 25.0456Z" fill="#4E4E4E"/>
<path d="M45.0879 27.5632C44.0777 27.5632 43.1261 27.1709 42.4123 26.4562L38.5491 22.5979C38.2772 22.3264 37.8052 22.3264 37.5333 22.5979L33.655 26.4713C32.9413 27.1841 31.9896 27.5782 30.9794 27.5782H30.2185L35.1127 32.4661C36.6402 33.9917 39.1194 33.9917 40.6469 32.4661L45.5543 27.565H45.0879V27.5632Z" fill="#4E4E4E"/>
<path d="M30.9794 13.9142C31.9896 13.9142 32.9413 14.3064 33.655 15.0211L37.5333 18.8945C37.8127 19.1735 38.2678 19.1754 38.5491 18.8945L42.4123 15.0362C43.1261 14.3234 44.0777 13.9292 45.0879 13.9292H45.5524L40.6469 9.02627C39.1194 7.50068 36.6402 7.50068 35.1127 9.02627L30.2185 13.9142H30.9794Z" fill="#4E4E4E"/>
<path d="M49.6138 17.9817L46.6474 15.0191C46.5813 15.0455 46.5115 15.0625 46.436 15.0625H45.0878C44.3911 15.0625 43.7075 15.3454 43.2166 15.8375L39.3534 19.6958C38.9928 20.056 38.517 20.237 38.043 20.237C37.5672 20.237 37.0933 20.056 36.7326 19.6958L32.8524 15.8225C32.3596 15.3303 31.678 15.0474 30.9794 15.0474H29.3216C29.2517 15.0474 29.1856 15.0304 29.1214 15.0078L26.1456 17.9817C24.6181 19.5072 24.6181 21.9832 26.1456 23.5088L29.1233 26.4827C29.1856 26.46 29.2517 26.4431 29.3234 26.4431H30.9813C31.678 26.4431 32.3615 26.1602 32.8543 25.668L36.7326 21.7947C37.4331 21.0951 38.6548 21.0951 39.3553 21.7947L43.2185 25.6529C43.7113 26.1451 44.393 26.428 45.0897 26.428H46.4378C46.5134 26.428 46.5832 26.445 46.6493 26.4714L49.6156 23.5088C51.1413 21.9832 51.1413 19.5072 49.6138 17.9817Z" fill="#4E4E4E"/>
<path d="M61.1184 30.4336C60.8994 30.4336 60.6445 30.4864 60.3933 30.5449V31.5104C60.5671 31.5745 60.7672 31.6047 60.9579 31.6047C61.4432 31.6047 61.6716 31.4406 61.6716 31.0144C61.6735 30.6128 61.4847 30.4336 61.1184 30.4336ZM60.231 32.2251V30.3167H60.3631L60.3763 30.3997C60.601 30.3469 60.9107 30.2771 61.1316 30.2771C61.311 30.2771 61.4828 30.3035 61.6263 30.4204C61.7925 30.5562 61.8453 30.7749 61.8453 31.0125C61.8453 31.2615 61.7623 31.4972 61.5357 31.6273C61.3771 31.7159 61.1656 31.7518 60.973 31.7518C60.7766 31.7518 60.5878 31.7216 60.3915 31.6631V32.2251H60.231Z" fill="#4E4E4E"/>
<path d="M63.0632 30.4278C62.5779 30.4278 62.3627 30.5805 62.3627 31.0067C62.3627 31.4178 62.576 31.6045 63.0632 31.6045C63.5447 31.6045 63.7618 31.4555 63.7618 31.0293C63.7618 30.6164 63.5484 30.4278 63.0632 30.4278ZM63.6863 31.6026C63.5258 31.7176 63.3105 31.7516 63.0632 31.7516C62.8121 31.7516 62.5949 31.7158 62.4382 31.6026C62.2607 31.4782 62.189 31.2726 62.189 31.0161C62.189 30.7616 62.2607 30.5541 62.4382 30.4278C62.5968 30.3146 62.8121 30.2788 63.0632 30.2788C63.3124 30.2788 63.5258 30.3146 63.6863 30.4278C63.8657 30.556 63.9355 30.7616 63.9355 31.0143C63.9355 31.2707 63.8638 31.4782 63.6863 31.6026Z" fill="#4E4E4E"/>
<path d="M65.9806 31.714L65.4406 30.5561H65.4293L64.8987 31.714H64.7514L64.1755 30.3167H64.3549L64.8345 31.4896H64.8458L65.3651 30.3167H65.5143L66.0505 31.4896H66.0599L66.5282 30.3167H66.7038L66.1279 31.714H65.9806Z" fill="#4E4E4E"/>
<path d="M67.7479 30.4261C67.2985 30.4261 67.1475 30.626 67.1191 30.9126H68.3767C68.3616 30.5939 68.1992 30.4261 67.7479 30.4261ZM67.7422 31.7518C67.4741 31.7518 67.2985 31.714 67.1607 31.5971C66.9964 31.4557 66.9417 31.252 66.9417 31.0163C66.9417 30.7919 67.0172 30.5543 67.2022 30.4185C67.357 30.311 67.5478 30.2771 67.7479 30.2771C67.9273 30.2771 68.135 30.296 68.3068 30.4129C68.5088 30.5486 68.5485 30.7863 68.5485 31.0578H67.1135C67.1191 31.3444 67.2135 31.6009 67.7555 31.6009C68.0122 31.6009 68.2539 31.5594 68.4786 31.5198V31.6669C68.2464 31.7084 67.9877 31.7518 67.7422 31.7518Z" fill="#4E4E4E"/>
<path d="M69.0166 31.714V30.3167H69.1488L69.162 30.3997C69.4584 30.3242 69.5963 30.2771 69.8568 30.2771H69.8757V30.4317H69.8361C69.617 30.4317 69.4849 30.4619 69.1771 30.543V31.7122H69.0166V31.714Z" fill="#4E4E4E"/>
<path d="M70.8256 30.4261C70.3762 30.4261 70.2252 30.626 70.1968 30.9126H71.4544C71.4411 30.5939 71.2769 30.4261 70.8256 30.4261ZM70.8218 31.7518C70.5537 31.7518 70.3781 31.714 70.2403 31.5971C70.076 31.4557 70.0212 31.252 70.0212 31.0163C70.0212 30.7919 70.0968 30.5543 70.2818 30.4185C70.4366 30.311 70.6273 30.2771 70.8275 30.2771C71.0069 30.2771 71.2146 30.296 71.3864 30.4129C71.5884 30.5486 71.6281 30.7863 71.6281 31.0578H70.1931C70.1987 31.3444 70.2931 31.6009 70.835 31.6009C71.0918 31.6009 71.3335 31.5594 71.5582 31.5198V31.6669C71.3241 31.7084 71.0673 31.7518 70.8218 31.7518Z" fill="#4E4E4E"/>
<path d="M73.4161 30.522C73.2424 30.4579 73.0423 30.4277 72.8516 30.4277C72.3663 30.4277 72.1378 30.5918 72.1378 31.0161C72.1378 31.4196 72.3266 31.5969 72.6911 31.5969C72.9101 31.5969 73.165 31.5441 73.4161 31.4894V30.522ZM73.4463 31.7138L73.4331 31.6308C73.2084 31.6836 72.8988 31.7534 72.6778 31.7534C72.4985 31.7534 72.3266 31.7289 72.1831 31.6101C72.017 31.4743 71.9641 31.2556 71.9641 31.018C71.9641 30.769 72.0472 30.5333 72.2738 30.407C72.4324 30.3165 72.6457 30.2806 72.8383 30.2806C73.0309 30.2806 73.2197 30.3146 73.4161 30.3693V29.73H73.5804V31.7157H73.4463V31.7138Z" fill="#4E4E4E"/>
<path d="M75.9746 30.4335C75.7556 30.4335 75.5007 30.4863 75.2495 30.5447V31.5065C75.427 31.5725 75.6234 31.6027 75.8141 31.6027C76.2994 31.6027 76.5278 31.4386 76.5278 31.0124C76.5278 30.6126 76.3409 30.4335 75.9746 30.4335ZM76.3938 31.6272C76.2352 31.7158 76.0218 31.7516 75.8311 31.7516C75.6234 31.7516 75.4157 31.7158 75.2061 31.646L75.1986 31.712H75.0872V29.7263H75.2514V30.392C75.4761 30.343 75.7782 30.277 75.9897 30.277C76.1691 30.277 76.3409 30.3034 76.4844 30.4203C76.6506 30.5561 76.7034 30.7748 76.7034 31.0124C76.7034 31.2632 76.6204 31.4989 76.3938 31.6272Z" fill="#4E4E4E"/>
<path d="M76.9205 32.2492V32.0964C76.9998 32.104 77.0754 32.1096 77.1282 32.1096C77.3303 32.1096 77.4511 32.0512 77.5663 31.8211L77.6191 31.7099L76.8884 30.3125H77.0772L77.7022 31.5175H77.7136L78.3083 30.3125H78.4934L77.7079 31.8815C77.5644 32.1662 77.4096 32.2605 77.1244 32.2605C77.0584 32.2643 76.9885 32.2586 76.9205 32.2492Z" fill="#4E4E4E"/>
<path d="M80.7442 30.9181H80.2022V31.4084H80.7479C81.1218 31.4084 81.2634 31.3669 81.2634 31.1613C81.2615 30.9426 81.0689 30.9181 80.7442 30.9181ZM80.6441 30.1242H80.2004V30.622H80.646C81.0142 30.622 81.1614 30.5786 81.1614 30.3712C81.1614 30.1487 80.9764 30.1242 80.6441 30.1242ZM81.4862 31.5819C81.2861 31.7082 81.0463 31.7139 80.6063 31.7139H79.7793V29.8206H80.5874C80.967 29.8206 81.1992 29.8262 81.3937 29.9431C81.5315 30.0261 81.5882 30.1525 81.5882 30.3184C81.5882 30.5183 81.5051 30.6503 81.2898 30.7389V30.7502C81.5334 30.8049 81.692 30.9294 81.692 31.199C81.6882 31.3801 81.6222 31.4989 81.4862 31.5819Z" fill="#4E4E4E"/>
<path d="M83.3442 31.1276C83.1799 31.1144 83.0156 31.1049 82.84 31.1049C82.5549 31.1049 82.4549 31.1634 82.4549 31.2935C82.4549 31.4161 82.5379 31.4821 82.757 31.4821C82.9401 31.4821 83.1591 31.4406 83.3442 31.3991V31.1276ZM83.4273 31.714L83.4159 31.6311C83.178 31.6895 82.9005 31.7537 82.6569 31.7537C82.5077 31.7537 82.3472 31.7348 82.2339 31.6518C82.1282 31.5764 82.0791 31.4557 82.0791 31.3143C82.0791 31.1559 82.149 31.0107 82.3151 30.9352C82.4624 30.8655 82.6588 30.8598 82.8382 30.8598C82.9854 30.8598 83.1818 30.8673 83.3442 30.8787V30.8541C83.3442 30.6354 83.2007 30.5637 82.806 30.5637C82.6531 30.5637 82.4681 30.5713 82.2906 30.5882V30.3054C82.487 30.2884 82.7079 30.2771 82.891 30.2771C83.1346 30.2771 83.3876 30.296 83.5424 30.4072C83.7029 30.5204 83.7331 30.6788 83.7331 30.8862V31.714H83.4273Z" fill="#4E4E4E"/>
<path d="M85.5609 31.7139V30.9426C85.5609 30.688 85.4306 30.5975 85.1984 30.5975C85.0266 30.5975 84.8113 30.6409 84.6282 30.6861V31.7139H84.2373V30.3165H84.5564L84.5696 30.4052C84.8151 30.341 85.0908 30.2788 85.3173 30.2788C85.4892 30.2788 85.6629 30.3033 85.7969 30.4221C85.9083 30.5221 85.9499 30.6597 85.9499 30.8596V31.7139H85.5609Z" fill="#4E4E4E"/>
<path d="M87.0506 31.7518C86.8713 31.7518 86.673 31.7272 86.5295 31.6047C86.3577 31.467 86.3086 31.2483 86.3086 31.0125C86.3086 30.7919 86.3803 30.5505 86.5937 30.4148C86.7674 30.3016 86.9846 30.2771 87.2093 30.2771C87.3697 30.2771 87.5283 30.2884 87.7021 30.3054V30.6033C87.5604 30.5901 87.3924 30.5788 87.2565 30.5788C86.8845 30.5788 86.7108 30.6957 86.7108 31.0163C86.7108 31.318 86.8411 31.4482 87.1451 31.4482C87.3225 31.4482 87.5302 31.4142 87.7323 31.3765V31.6631C87.5132 31.7084 87.2753 31.7518 87.0506 31.7518Z" fill="#4E4E4E"/>
<path d="M88.8858 30.5711C88.5138 30.5711 88.3515 30.688 88.3515 31.0048C88.3515 31.3235 88.512 31.4593 88.8858 31.4593C89.254 31.4593 89.4145 31.3461 89.4145 31.0275C89.4145 30.7106 89.2559 30.5711 88.8858 30.5711ZM89.5561 31.6064C89.3843 31.7214 89.1596 31.7535 88.8858 31.7535C88.6064 31.7535 88.3817 31.7195 88.2136 31.6064C88.0191 31.48 87.9512 31.2688 87.9512 31.018C87.9512 30.7653 88.021 30.5541 88.2136 30.4259C88.3817 30.3128 88.6064 30.2788 88.8858 30.2788C89.1634 30.2788 89.3843 30.3128 89.5561 30.4259C89.7506 30.5522 89.8167 30.7653 89.8167 31.0143C89.8148 31.2651 89.7468 31.4782 89.5561 31.6064Z" fill="#4E4E4E"/>
<path d="M92.0694 31.7516C91.8334 31.7516 91.5803 31.7139 91.3878 31.5555C91.1612 31.3669 91.0913 31.0765 91.0913 30.7654C91.0913 30.4863 91.1801 30.1544 91.4765 29.9602C91.7069 29.8112 91.992 29.781 92.279 29.781C92.4904 29.781 92.7057 29.7942 92.9417 29.8149V30.1544C92.7397 30.1374 92.4904 30.1242 92.296 30.1242C91.7559 30.1242 91.5256 30.3298 91.5256 30.7654C91.5256 31.2104 91.739 31.4103 92.1374 31.4103C92.3979 31.4103 92.6887 31.3575 92.9814 31.2972V31.6347C92.6906 31.6913 92.3828 31.7516 92.0694 31.7516Z" fill="#4E4E4E"/>
<path d="M94.1312 30.5277C93.8065 30.5277 93.6819 30.6446 93.6573 30.8577H94.5995C94.5882 30.6296 94.4541 30.5277 94.1312 30.5277ZM94.0727 31.7516C93.8424 31.7516 93.6347 31.7233 93.4798 31.597C93.3137 31.4593 93.2551 31.2519 93.2551 31.0143C93.2551 30.8012 93.325 30.5636 93.5176 30.4259C93.6894 30.3033 93.9084 30.2788 94.1294 30.2788C94.3295 30.2788 94.5636 30.3014 94.7355 30.4202C94.9601 30.5786 94.979 30.8219 94.9809 31.1085H93.6516C93.6592 31.3216 93.7744 31.4593 94.1671 31.4593C94.4107 31.4593 94.6826 31.4235 94.9129 31.3876V31.6611C94.6448 31.7063 94.3522 31.7516 94.0727 31.7516Z" fill="#4E4E4E"/>
<path d="M96.7199 31.7139V30.9426C96.7199 30.688 96.5896 30.5975 96.3573 30.5975C96.1855 30.5975 95.9702 30.6409 95.7871 30.6861V31.7139H95.3962V30.3165H95.7153L95.7286 30.4052C95.974 30.341 96.2497 30.2788 96.4763 30.2788C96.6481 30.2788 96.8218 30.3033 96.9559 30.4221C97.0673 30.5221 97.1088 30.6597 97.1088 30.8596V31.7139H96.7199Z" fill="#4E4E4E"/>
<path d="M98.2192 31.7515C98.0304 31.7515 97.8586 31.6987 97.766 31.5516C97.6962 31.4517 97.6641 31.3159 97.6641 31.1292V30.6069H97.3809V30.3165H97.6641L97.7056 29.894H98.0512V30.3165H98.6025V30.6069H98.0512V31.0557C98.0512 31.1632 98.0587 31.2556 98.0889 31.3216C98.1305 31.4159 98.2211 31.4517 98.3438 31.4517C98.4345 31.4517 98.5459 31.4385 98.6233 31.4253V31.7044C98.4968 31.727 98.3495 31.7515 98.2192 31.7515Z" fill="#4E4E4E"/>
<path d="M98.9819 31.7139V30.3165H99.301L99.3142 30.4052C99.571 30.3335 99.7636 30.2788 100.007 30.2788C100.019 30.2788 100.036 30.2788 100.056 30.2807V30.6126C100.013 30.6107 99.96 30.6107 99.9204 30.6107C99.7297 30.6107 99.5862 30.6333 99.3728 30.6824V31.7139H98.9819Z" fill="#4E4E4E"/>
<path d="M101.476 31.1276C101.312 31.1144 101.148 31.1049 100.972 31.1049C100.687 31.1049 100.587 31.1634 100.587 31.2935C100.587 31.4161 100.67 31.4821 100.889 31.4821C101.072 31.4821 101.291 31.4406 101.476 31.3991V31.1276ZM101.559 31.714L101.548 31.6311C101.31 31.6895 101.033 31.7537 100.789 31.7537C100.64 31.7537 100.479 31.7348 100.366 31.6518C100.26 31.5764 100.211 31.4557 100.211 31.3143C100.211 31.1559 100.281 31.0107 100.447 30.9352C100.594 30.8655 100.791 30.8598 100.97 30.8598C101.118 30.8598 101.314 30.8673 101.476 30.8787V30.8541C101.476 30.6354 101.333 30.5637 100.938 30.5637C100.785 30.5637 100.6 30.5713 100.423 30.5882V30.3054C100.619 30.2884 100.84 30.2771 101.023 30.2771C101.267 30.2771 101.518 30.296 101.675 30.4072C101.835 30.5204 101.865 30.6788 101.865 30.8862V31.714H101.559Z" fill="#4E4E4E"/>
<path d="M102.758 29.728H102.367V31.7137H102.758V29.728Z" fill="#4E4E4E"/>
</svg>
